<?xml version="1.0" encoding="utf-8"?>
<!-- Generator: Adobe Illustrator 22.1.0, SVG Export Plug-In . SVG Version: 6.00 Build 0)  -->
<svg version="1.1" id="Warstwa_1" xmlns="http://www.w3.org/2000/svg" xmlns:xlink="http://www.w3.org/1999/xlink" x="0px" y="0px"
	 viewBox="0 0 841.9 595.3" style="enable-background:new 0 0 841.9 595.3;" xml:space="preserve">
<style type="text/css">
	.st0{fill:#744829;}
	.st1{fill:#DBAC99;}
	.st2{fill:#D88500;}
	.st3{fill:#CA836B;}
</style>
<path class="st0" d="M416.9,423.8h13.6c0.7,0,1.3-0.6,1.3-1.3V352c0-0.7-0.6-1.3-1.3-1.3h-13.6c-0.7,0-1.3,0.6-1.3,1.3v70.4
	C415.6,423.2,416.2,423.8,416.9,423.8z"/>
<path class="st0" d="M413.5,307.6L515,270.9c15.4-4,29.1-4.1,30.5-0.4c0,0,28.7,78.2,28.7,78.2c0.9,2.4-3,5.6-10.9,9
	c-5.4,2.3-11.7,4.5-17.8,6.6c-29.2,10.1-56.4,20.9-84.7,31.3c-11.6,4.3-19.8,5.1-20.7,1.7c-4.6-16.4-9.2-32.9-13.8-49.3
	c-2.3-8.4-4.7-16.7-7-25.1c-1-3.5-2.3-6-6.7-8.4C410.3,313.5,401.4,310.7,413.5,307.6z"/>
<path class="st0" d="M487.2,334.7l74.5,21.7c10.9,0,19.9-7,19.9-15.5c0,0,0-177,0-177c0-5.4-3.3-9.9-9.2-12.8c-4-1.9-8.6-3-13.1-4.1
	c-21.3-5.4-41.6-13-62.4-19.6c-8.6-2.7-14.1,0.1-13.9,7.6c0.9,36.4,1.8,72.8,2.8,109.2c0.5,18.5,0.9,37.1,1.4,55.6
	c0.2,7.7,0,13.7-2.4,20.9C483.7,324.2,478.6,334.7,487.2,334.7z"/>
<path class="st1" d="M419.2,241.2c20.7-10.8,30.5-18.6,35-26.1c5.7-9.5,12.8-18.1,17.6-28.1c0.2-0.4,0.9-1.9,2.4-3.4
	c3.3-3.5,9-5.9,12.3-4.6c6.6,2.7,4.1,21,3.9,22.1c-2.6,17.6-14.5,30.4-23.9,38.2c-12.8,7.1-25.6,14.1-38.4,21.2
	c-1.6,0.9-3.9,3.9-5.5,4.8C421.3,258.8,420.3,247.7,419.2,241.2z"/>
<polygon class="st2" points="416.5,230.1 392.3,213.9 379.2,138.1 406.5,158.9 "/>
<polygon class="st2" points="466.4,239.3 415.7,230.9 406.2,158.8 448.6,167.6 "/>
<path d="M456.1,286.7c22.8,6.2,45.5,12.4,68.3,18.6c0.2,7.2-0.5,23.6-11.5,38.9c-3.6,5-10.3,14.4-22.5,18.5
	c-3.5,1.2-10.2,2.9-30.7-1.1c-9.7-1.9-23.3-5.2-39.2-11.3c-20.9,5.5-39.5-0.8-45.4-12.9c-3.2-6.4-3.8-16.8,1.7-23.8
	c3.7-4.7,8.8-6,17.6-8.1c18.4-4.3,37-2.3,38.2-2.1c9,1,12.9,2.5,17-0.1C454.7,300,455.9,292.7,456.1,286.7z"/>
<path class="st3" d="M488.4,180c-2.7,1.7-6,4.3-8.5,8.3c-1.2,1.9-1.9,3.5-2.2,4.4c-10.8,27.2-14.5,50.7-14.5,50.7
	c-2.1,13.2-5.7,31.8-12.6,55.3c11.1,8.4,21.4,12.8,28.4,15.1c10.9,3.6,24.8,8.2,38.1,2.1c4-1.8,6.9-4.1,8.7-5.8
	c-0.1-3-0.2-7.8-0.3-13.8c-0.7-34.9-0.5-58.5-4.7-87.4c-3-20.3-5.9-27.7-12.4-30.8C501.5,174.9,493.4,177.7,488.4,180z"/>
<path d="M486.9,165.3c-0.5,6.9-1.1,13.8-1.6,20.7c-1.2,1.4-2.4,3.2-1.9,4.4c1,2.4,8.8,0.6,13.3-1c5-1.8,13.7-6.1,13.4-9.9
	c-0.1-1.8-2.1-1.5-4.1-4.3c-2.7-3.8-2.5-8.8-2.2-15.4c0.4-6.9,1.5-9.2,0.6-9.9C503.2,149.1,499.3,151.2,486.9,165.3z"/>
<ellipse transform="matrix(0.3495 -0.9369 0.9369 0.3495 171.1991 550.5067)" cx="482.1" cy="152" rx="24.8" ry="18"/>
<path d="M441.8,282.7c-2.8,1.2-8.5-5.3-11.7-10.5c-3.3-5.3-3.1-7.9-6.3-19.6c-3.6-13.4-5.4-20-7.8-25.4c-2.1-4.6-4.3-8.6-4.1-14.5
	c0.1-3.9,1.3-9.5,3.6-9.8c2.2-0.3,4.9,4.3,5.9,7.8c1.2,4.4,0.2,8.2-0.5,10.1c2,5.7,4.4,11.8,7.3,18.3c0.9,2,2.6,5.1,10.2,19.6
	c2.1,4,3.6,6.8,4.4,11.1C443.7,273.7,444.5,281.6,441.8,282.7z"/>
<path class="st1" d="M438.5,258.6c20.7-10.8,30.5-18.6,35-26.1c5.7-9.5,12.8-18.1,17.6-28.1c0.2-0.4,0.9-1.9,2.4-3.4
	c3.3-3.5,9-5.9,12.3-4.6c6.6,2.7,4.1,21,3.9,22.1c-2.6,17.6-14.5,30.4-23.9,38.2c-12.8,7.1-25.6,14.1-38.4,21.2
	c-1.6,0.9-3.9,3.9-5.5,4.8C440.6,276.2,439.6,265.1,438.5,258.6z"/>
<path d="M460.6,136.3c2.8,3.5,7.9,8.8,15.7,12.8c2.2,1.1,24,12.1,32.8,3c6.1-6.3,3.6-20.2-4.1-27.9c-7.2-7.2-19.7-9.9-25.6-5.7
	c-3.1,2.2-6.6,8.1-7,8.7c-1.7,2.8-2.3,4.5-4.3,6.2C465.7,135.5,462.8,136.1,460.6,136.3z"/>
<path d="M370.7,452.2c1.6-37,0.5-58.1-0.9-70.9c-0.1-0.8-1.1-9.1,0.3-20c1.5-12.5,2.8-23.1,11-28.3c7.3-4.7,17.1-3.2,23.6,0.4
	c10.8,5.9,12.4,17.6,12.6,19c-6.6,20.8-9.6,39.1-10.9,54.4c-2.2,26.4,0.8,43.7-8.8,49.7C390.7,460.7,380.4,457.4,370.7,452.2z"/>
<path d="M423.2,271.7c-2.8,1.2-8.5-5.3-11.7-10.5c-3.3-5.3-3.1-7.9-6.3-19.6c-3.6-13.4-5.4-20-7.8-25.4c-2.1-4.6-4.3-8.6-4.1-14.5
	c0.1-3.9,1.3-9.5,3.6-9.8c2.2-0.3,4.9,4.3,5.9,7.8c1.2,4.4,0.2,8.2-0.5,10.1c2,5.7,4.4,11.8,7.3,18.3c0.9,2,2.6,5.1,10.2,19.6
	c2.1,4,3.6,6.8,4.4,11.1C425.1,262.7,425.9,270.6,423.2,271.7z"/>
<ellipse transform="matrix(0.2554 -0.9668 0.9668 0.2554 227.6991 587.1291)" cx="495" cy="145.7" rx="24.3" ry="16.4"/>
<path d="M314.3,402.3c20.7-30.8,31-49.4,36.4-61.2c0.4-0.8,3.9-8.4,10.7-17c7.8-9.8,14.5-18.2,24-18.2c8.6,0,15.9,6.7,19.4,13.3
	c5.9,11,1.1,21.9,0.5,23.2c-16.4,14.1-28.6,28.2-37.6,40.5c-15.7,21.4-22.3,37.8-33.4,37.7C326.5,420.6,319.7,412.1,314.3,402.3z"/>
<path class="st1" d="M400.9,449.9c-0.7,16.1-1.4,32.1-2,48.2c-25,0.9-49.9,1.9-74.9,2.8c-1.2-0.8-4.6-3.1-5.4-7.2
	c-1.4-7.1,6.4-13,7.7-14.1c4.9-3.8,10.3-4.4,12.8-4.4c6.2-0.8,12.3-1.6,18.5-2.3c2-0.4,4.9-1.2,7.6-3.4c5.1-4.1,7.2-11.2,5.9-18.4
	C381.1,450.7,391,450.3,400.9,449.9z"/>
<path d="M563.1,309.4"/>
<path class="st0" d="M564.4,458.2H578c0.7,0,1.3-0.6,1.3-1.3v-108c0-0.7-0.6-1.3-1.3-1.3h-13.6c-0.7,0-1.3,0.6-1.3,1.3v108
	C563.1,457.6,563.7,458.2,564.4,458.2z"/>
<path class="st0" d="M440.9,489.5h13.6c0.7,0,1.3-0.6,1.3-1.3v-108c0-0.7-0.6-1.3-1.3-1.3h-13.6c-0.7,0-1.3,0.6-1.3,1.3v108
	C439.6,489,440.2,489.5,440.9,489.5z"/>
<path class="st0" d="M517.6,420.7h13.6c0.7,0,1.3-0.6,1.3-1.3v-70.4c0-0.7-0.6-1.3-1.3-1.3h-13.6c-0.7,0-1.3,0.6-1.3,1.3v70.4
	C516.3,420.1,516.9,420.7,517.6,420.7z"/>
<path class="st1" d="M336.5,421.9c-11.5,11.4-22.9,22.8-34.4,34.2c-18.1-16.9-36.3-33.7-54.4-50.6c-0.3-1.4-1.1-5.5,1.1-9.1
	c3.9-6.2,13.4-5.1,15-5c6.1,0.7,10.2,4,12,5.7c4.9,3.8,9.7,7.5,14.6,11.3c1.6,1.1,4.3,2.6,7.7,2.8c6.4,0.5,12.8-3.2,16.7-9.5
	C322.1,408.6,329.3,415.3,336.5,421.9z"/>
</svg>
