<?xml version="1.0" encoding="utf-8"?>
<!-- Generator: Adobe Illustrator 22.1.0, SVG Export Plug-In . SVG Version: 6.00 Build 0)  -->
<svg version="1.1" id="Warstwa_1" xmlns="http://www.w3.org/2000/svg" xmlns:xlink="http://www.w3.org/1999/xlink" x="0px" y="0px"
	 viewBox="0 0 841.9 595.3" style="enable-background:new 0 0 841.9 595.3;" xml:space="preserve">
<style type="text/css">
	.st0{fill:#FEF7BE;}
	.st1{fill:#DCE2F3;}
	.st2{fill:#222045;}
	.st3{fill:#9BCEAC;}
	.st4{fill:#C9DAF2;}
	.st5{fill:#96A2D3;}
	.st6{fill:#DBAC99;}
	.st7{fill:#EFEEEE;}
	.st8{fill:#D88500;}
	.st9{fill:#CA836B;}
	.st10{fill:#B7BD99;}
	.st11{fill:#FFFFFF;}
</style>
<rect x="101.3" y="75.7" class="st0" width="658.3" height="364.5"/>
<path class="st1" d="M389.6,349.5c-32.8-41-45-71.1-49.9-91.6c-0.7-3.1-5.1-22-9.7-21.4c-4.9,0.6-5.4,22.1-10.9,23.4
	c-6.8,1.6-12-30.2-19.5-29.2c-7.2,0.9-8.8,31.2-14.6,31.2c-5.1,0-5.7-23.2-18.2-48.7c-5-10.1-11.4-23.1-19.5-23.4
	c-10.1-0.3-17.8,19.3-21.9,29.2c-13.1,32-48.8,119.3-71.7,115c-10.2-1.9-18.1-24.7-34-70.2c-12.3-35.2-17.5-61.5-24.3-60.4
	c-7.4,1.1-8.6,32.9-14.6,33.1c-8.9,0.4-13-69.7-19.9-70.2c-5.6-0.4-6.4,43.5-18,193.1C160.7,356,271.6,352.8,389.6,349.5z"/>
<path class="st1" d="M62,343.2c35.3-41,48.5-71.1,53.8-91.6c0.8-3.1,5.5-22,10.5-21.4c5.3,0.6,5.9,22.1,11.8,23.4
	c7.4,1.6,12.9-30.2,21-29.2c7.8,0.9,9.5,31.2,15.7,31.2c5.5,0,6.2-23.2,19.7-48.7c5.4-10.1,12.3-23.1,21-23.4
	c10.9-0.3,19.2,19.3,23.6,29.2c14.1,32,52.6,119.3,77.4,115c11-1.9,19.6-24.7,36.7-70.2c13.3-35.2,18.8-61.5,26.2-60.4
	c8,1.1,9.3,32.9,15.7,33.1c9.6,0.4,14-69.7,21.5-70.2c6-0.4,14.6,43.5,27,193C316.5,349.7,189.2,346.4,62,343.2z"/>
<path class="st1" d="M248.9,370c53.1-41,72.9-71.1,80.8-91.6c1.2-3.1,8.2-22,15.8-21.4c7.9,0.6,8.8,22.1,17.7,23.4
	c11.1,1.6,19.4-30.2,31.5-29.2c11.7,0.9,14.3,31.2,23.6,31.2c8.2,0,9.2-23.2,29.5-48.7c8.1-10.1,18.4-23.1,31.5-23.4
	c16.4-0.3,28.9,19.3,35.5,29.2c21.2,32,79,119.3,116.2,115c16.5-1.9,29.4-24.7,55.2-70.2c19.9-35.2,28.3-61.5,39.4-60.4
	c12,1.1,14,32.9,23.6,33.1c14.3,0.4,21-69.7,32.3-70.2c9-0.4,20.7,35.8,39.4,185.3C629.8,368.8,439.9,373.2,248.9,370z"/>
<path class="st2" d="M386.9,354.2c-32.9-41-45.2-71.1-50.1-91.6c-0.7-3.1-5.1-22-9.8-21.4c-4.9,0.6-5.5,22.1-11,23.4
	c-6.9,1.6-12-30.2-19.5-29.2c-7.3,0.9-8.9,31.2-14.7,31.2c-5.1,0-5.7-23.2-18.3-48.7c-5-10.1-11.4-23.1-19.5-23.4
	c-10.2-0.3-17.9,19.3-22,29.2c-13.1,32-49,119.3-72.1,115c-10.2-1.9-18.2-24.7-34.2-70.2c-12.3-35.2-17.5-61.5-24.4-60.4
	c-7.4,1.1-8.7,32.9-14.7,33.1c-8.9,0.4-13-69.7-20-70.2c-3.5-0.2-8,17.1-13.7,67.4c-0.8,7.4,4.7,12.9,3.8,21.8
	c-2.7,26.5,0.3,60.6-2.9,102C162.2,358.9,268.4,357.5,386.9,354.2z"/>
<rect x="43.7" y="372" class="st3" width="777.2" height="194.5"/>
<path class="st2" d="M53.5,348c35.3-41,48.5-71.1,53.8-91.6c0.8-3.1,5.5-22,10.5-21.4c5.3,0.6,5.9,22.1,11.8,23.4
	c7.4,1.6,12.9-30.2,21-29.2c7.8,0.9,9.5,31.2,15.7,31.2c5.5,0,6.2-23.2,19.7-48.7c5.4-10.1,12.3-23.1,21-23.4
	c10.9-0.3,19.2,19.3,23.6,29.2c14.1,32,52.6,119.3,77.4,115c11-1.9,19.6-24.7,36.7-70.2c13.3-35.2,18.8-61.5,26.2-60.4
	c8,1.1,9.3,32.9,15.7,33.1c9.6,0.4,14-69.7,21.5-70.2c6-0.4,14.6,43.5,27,193C308,354.5,180.8,351.2,53.5,348z"/>
<path class="st2" d="M242.8,376.2c52.6-41,72.3-71.1,80.1-91.6c1.2-3.1,8.2-22,15.6-21.4c7.8,0.6,8.8,22.1,17.6,23.4
	c11,1.6,19.2-30.2,31.3-29.2c11.6,0.9,14.2,31.2,23.5,31.2c8.1,0,9.2-23.2,29.3-48.7c8-10.1,18.2-23.1,31.3-23.4
	c16.2-0.3,28.6,19.3,35.2,29.2c21,32,78.4,119.3,115.3,115c16.4-1.9,29.2-24.7,54.7-70.2c19.7-35.2,28.1-61.5,39.1-60.4
	c11.9,1.1,13.9,32.9,23.5,33.1c14.2,0.4,20.8-69.7,32-70.2c8.9-0.4,21.7,43.5,40.3,193C621.9,382.7,432.4,379.5,242.8,376.2z"/>
<path class="st4" d="M449.7,460.6c-120.3-6.8-199.1-4.4-245.5-1.5c-26.6,1.7-70.9,5.3-74.8,22.8c-2.3,10.1,9.8,20.9,12,22.8
	c26.1,23.2,60.9,5.6,139.2,0c33.6-2.4,68.1-4.6,110.8,4.6c36.5,7.9,36.4,14.9,68.9,22.8c62.9,15.4,149.7,10.2,163.2-25.9
	c8-21.4-12.6-46.2-13.5-47.2C581.7,425.9,516.5,424,449.7,460.6z"/>
<path class="st5" d="M442.9,489.7c-13.9-0.3-26.5-0.8-26.5-1.4c0-0.7,19.1-1.1,19.2-2.7c0-0.4-1.1-0.7-1.8-0.9
	c-9.5-2.6-30.6-3.6-30.7-3.8c0-0.1,4.4-1.5,39.1-1.7c40.7-0.3,74.2,1.4,74.2,2c-0.1,0.8-55.7-0.5-56.3,2.4c-0.4,1.8,21,3.9,20.5,5.4
	C480.3,490.3,464.2,490.3,442.9,489.7z"/>
<path class="st5" d="M244,469.1c-7.3,0.3-13.9,0.8-13.9,1.4c0,0.7,10,1.1,10.1,2.8c0,0.4-0.6,0.8-0.9,1c-5,2.7-16,3.8-16,4
	c0,0.1,2.3,1.5,20.4,1.8c21.3,0.3,38.8-1.4,38.8-2.1c0-0.9-29.1,0.6-29.5-2.5c-0.2-1.9,11-4.1,10.7-5.6
	C263.6,468.5,255.2,468.5,244,469.1z"/>
<path class="st5" d="M329.7,493.5c-13.9-0.9-26.5-2-26.5-3.6c0-1.9,19.1-2.9,19.2-7.1c0-1.1-1.1-2-1.8-2.4
	c-9.5-6.7-30.6-9.5-30.7-10.1c0-0.3,4.4-3.9,39.1-4.5c40.7-0.7,74.2,3.6,74.2,5.4c-0.1,2.2-55.7-1.4-56.3,6.3
	c-0.4,4.8,21,10.3,20.5,14.3C367.1,495.1,350.9,495,329.7,493.5z"/>
<path class="st6" d="M568.5,365.5c9.5-9.4,13.6-15.3,15-20.4c1.7-6.4,4.3-12.5,5.5-19c0-0.2,0.2-1.2,0.8-2.3c1.3-2.5,4-4.8,5.9-4.5
	c3.9,0.6,5,11.7,5.1,12.4c1,10.7-3.6,19.9-7.5,25.8c-5.8,6-11.7,12-17.5,18c-0.7,0.7-1.5,2.8-2.2,3.6
	C572,375.5,570,369.2,568.5,365.5z"/>
<path class="st7" d="M495.8,514.7c1.8-12.2,6.4-32.9,19.7-54.1c22.7-36.2,55.2-48.7,67.6-53.2c17.8-6.5,38.6-14.2,62.1-6.9
	c11.9,3.7,20.5,10,75.5,78.1c25.3,31.3,26.7,33.9,25.9,37.8c-8.2,43.8-248.3,43-254,7.7C492.1,520.4,494.2,516.9,495.8,514.7z"/>
<polygon class="st0" points="582.4,343.2 550.1,347.4 533.5,301.9 549.2,315.6 "/>
<polygon class="st8" points="564.3,355.8 549.2,349.8 531.8,307.5 549.2,315.6 "/>
<polygon class="st0" points="596.4,352.2 564,356.4 549.2,315.6 576.2,310.4 "/>
<polygon class="st8" points="592.1,353.9 564,356.4 549,315.6 572.8,314.6 "/>
<path d="M552.9,403.7c19.9-5.1,31-9.1,37.6-12.1c0.4-0.2,4.7-2.1,10.7-3.1c6.8-1.1,12.6-2.1,16.4,1.8c3.4,3.5,3.8,9.5,2.8,13.8
	c-1.8,7.3-7.8,10.1-8.5,10.4c-11.9-0.5-22,0.7-30.3,2.4c-14.3,3-23.1,7.5-27.6,3C550.8,416.8,551.3,410.3,552.9,403.7z"/>
<path d="M593.1,383.1c13,0.3,25.9,0.6,38.9,0.9c1.1,4.2,2.9,13.9-0.8,24.4c-1.2,3.4-3.5,9.9-9.4,14.1c-1.7,1.2-5,3.2-16.5,3.9
	c-5.4,0.3-13.1,0.4-22.4-0.9c-10.3,6.3-21.1,5.3-25.9-0.9c-2.6-3.3-4.3-9.3-2.4-14.1c1.3-3.3,3.8-4.8,8.2-7.3
	c9.2-5.2,19.4-6.8,20-6.9c4.9-0.7,7.2-0.4,9-2.6C594.2,391,593.8,386.6,593.1,383.1z"/>
<path class="st9" d="M595.6,316c-1.2,1.4-2.6,3.4-3.4,6.1c-0.4,1.3-0.5,2.3-0.6,2.9c-2,17.5-0.7,31.8-0.7,31.8
	c0.7,8,1.3,19.4,0.9,34.2c7,3.3,13.1,4.3,17.2,4.7c6.3,0.5,14.3,1.2,20.6-4.3c1.9-1.6,3.1-3.4,3.8-4.7c-0.5-1.7-1.2-4.6-2.1-8
	c-5.2-20.3-8.3-34.1-14.5-50.4c-4.4-11.4-6.9-15.3-10.8-16.2C601.9,311.1,598,313.9,595.6,316z"/>
<path d="M592.8,307.6c0.7,4.1,1.3,8.2,2,12.3c-0.4,1-0.8,2.2-0.4,2.8c0.9,1.3,4.7-0.9,6.9-2.5c2.4-1.8,6.5-5.5,5.8-7.7
	c-0.3-1-1.3-0.6-2.8-1.9c-2-1.8-2.6-4.8-3.3-8.7c-0.8-4.1-0.4-5.6-1-5.8C599.3,295.8,597.5,297.6,592.8,307.6z"/>
<ellipse transform="matrix(7.443445e-02 -0.9972 0.9972 7.443445e-02 244.9402 864.9398)" cx="588.4" cy="300.5" rx="14.9" ry="9.9"/>
<path d="M584.9,382.8c-1.3,1.1-5.2-1.9-7.7-4.4c-2.5-2.6-2.7-4.2-6-10.5c-3.8-7.3-5.6-10.9-7.6-13.7c-1.7-2.4-3.5-4.4-4.2-7.9
	c-0.5-2.3-0.6-5.7,0.6-6.3c1.1-0.5,3.2,1.8,4.2,3.7c1.3,2.4,1.2,4.8,1.1,5.9c1.8,3,4,6.3,6.4,9.6c0.8,1.1,2.1,2.6,8.1,10
	c1.7,2,2.8,3.5,3.9,5.8C584.7,377.3,586.2,381.8,584.9,382.8z"/>
<path class="st6" d="M579.9,369.2c9.5-9.4,13.6-15.3,15-20.4c1.7-6.4,4.3-12.5,5.5-19c0-0.2,0.2-1.2,0.8-2.3c1.3-2.5,4-4.8,5.9-4.5
	c3.9,0.6,5,11.7,5.1,12.4c1,10.7-3.6,19.9-7.5,25.8c-5.8,6-11.7,12-17.5,18c-0.7,0.7-1.5,2.8-2.2,3.6
	C583.4,379.2,581.4,372.9,579.9,369.2z"/>
<path d="M574.9,294.5c2,1.6,5.4,4,10.1,5.2c1.3,0.3,14.4,3.5,17.8-3c2.4-4.6-0.8-12.3-6-15.7c-4.8-3.2-11.8-2.9-14.4,0.4
	c-1.3,1.8-2.4,5.7-2.5,6.1c-0.5,1.9-0.6,3-1.4,4.3C577.5,293.3,576,294.1,574.9,294.5z"/>
<path d="M569,481.7c-5.3-21.6-9.3-33.6-12.2-40.7c-0.2-0.5-2.1-5.1-3.1-11.6c-1.2-7.4-2.3-13.7,1.2-18c3.1-3.8,8.6-4.5,12.6-3.4
	c6.7,1.7,9.5,8.2,9.8,9c-0.1,13,1.3,24,3.1,33c3.2,15.6,7.6,25,3.5,30C581,483.5,575,483.2,569,481.7z"/>
<path d="M531,469.4c6.8-21,9.7-33.4,11-41.1c0.1-0.5,0.9-5.5,3.4-11.5c2.8-6.9,5.2-12.7,10.3-14.1c4.5-1.3,9.4,1.6,12.1,4.9
	c4.6,5.6,3.6,12.6,3.5,13.5c-6.8,10.7-11.3,20.7-14.4,29.2c-5.4,14.8-6.7,25.3-12.6,26.9C540,478.3,535.2,474.4,531,469.4z"/>
<path class="st6" d="M585.6,476c3.1,9.1,6.3,18.2,9.4,27.2c-12.6,5.7-25.3,11.3-37.9,17c-0.8-0.2-3-0.8-4.3-2.9
	c-2.2-3.7,0.5-8.6,0.9-9.4c1.7-3.1,4.4-4.6,5.6-5.1c3-1.7,6-3.4,9-5.1c0.9-0.6,2.3-1.7,3.2-3.5c1.7-3.3,1.3-7.7-0.9-11.5
	C575.6,480.5,580.6,478.3,585.6,476z"/>
<path class="st9" d="M568,479.3c1.6,0.5,6.4,1.9,11.6-1.1c3.3-1.9,5.3-4.6,6.4-6.3c0.4,0.9,0.9,2.1,0.8,3.5
	c-0.3,5.3-8.1,7.9-9.2,8.2c-1,0.3-7.9,2.6-9.5-1C567.7,481.6,567.8,480.4,568,479.3z"/>
<path class="st6" d="M545.3,477.8c-4.5,8.3-9.1,16.7-13.6,25c-12-7.2-23.9-14.4-35.9-21.6c-0.4-0.8-1.4-3.1-0.7-5.5
	c1.2-4.2,6.4-5,7.3-5.1c3.3-0.5,6,0.9,7.2,1.6c3.1,1.5,6.2,3,9.3,4.5c1,0.4,2.6,0.9,4.5,0.5c3.5-0.6,6.3-3.8,7.6-8
	C535.8,472.1,540.5,475,545.3,477.8z"/>
<path class="st9" d="M531.7,465.7c0.8,1.5,3.2,5.9,8.5,7.9c3.3,1.3,6.2,1.1,7.9,0.8c-0.2,0.9-0.6,2-1.5,2.8
	c-3.3,3.1-10-1.1-10.9-1.7c-0.9-0.6-6.8-4.2-5.8-7.7C530.2,466.9,531,466.2,531.7,465.7z"/>
<path d="M573.5,379.1c-1.3,1.1-5.2-1.9-7.7-4.4c-2.5-2.6-2.7-4.2-6-10.5c-3.8-7.3-5.6-10.9-7.6-13.7c-1.7-2.4-3.5-4.4-4.2-7.9
	c-0.5-2.3-0.6-5.7,0.6-6.3c1.1-0.5,3.2,1.8,4.2,3.7c1.3,2.4,1.2,4.8,1.1,5.9c1.8,3,4,6.3,6.4,9.6c0.8,1.1,2.1,2.6,8.1,10
	c1.7,2,2.8,3.5,3.9,5.8C573.3,373.6,574.8,378.1,573.5,379.1z"/>
<path class="st10" d="M42.8,238.4c159.3,24.3,257.2,75.8,308.8,109c52.2,33.6,51.9,45.1,50.2,50c-12,34.6-199.2,34-359.7,20.2
	C40.8,360.6,44.1,295.4,42.8,238.4z"/>
<path class="st1" d="M258.5,428c-18.1-1.8-28.5-14.8-27.1-22.8c1.2-7.2,12.5-14.3,27.1-13.3c-10-7.5-11.8-21.7-5.4-30.5
	c5.3-7.2,15.4-9.9,24.4-5.7c-1.4-13.1,8-23,16.3-22.8c8.3,0.2,17.4,10.7,15.4,23.8c11.1-9.6,25.6-6,29.8,1.9
	c3.7,6.9,0.8,18.9-9,25.7c8.5-1.4,16.1,2.3,18.1,7.6c2.5,6.7-3.1,18.2-15.4,20.9c7.5,1.2,13.3,4.9,13.6,8.6
	c0.3,4.3-6.6,10.4-18.1,11.4C304.9,431.2,281.7,429.6,258.5,428z"/>
<path class="st2" d="M253.2,431.2c-18.1-1.8-28.5-14.8-27.1-22.8c1.2-7.2,12.5-14.3,27.1-13.3c-10-7.5-11.8-21.7-5.4-30.5
	c5.3-7.2,15.4-9.9,24.4-5.7c-1.4-13.1,8-23,16.3-22.8c8.3,0.2,17.4,10.7,15.4,23.8c11.1-9.6,25.6-6,29.8,1.9
	c3.7,6.9,0.8,18.9-9,25.7c8.5-1.4,16.1,2.3,18.1,7.6c2.5,6.7-3.1,18.2-15.4,20.9c7.5,1.2,13.3,4.9,13.6,8.6
	c0.3,4.3-6.6,10.4-18.1,11.4C299.6,434.3,276.4,432.7,253.2,431.2z"/>
<path class="st3" d="M472.9,387.3c1.6-6.1,3.1-12.2,4.7-18.3c0.7,2.1,1.4,4.2,2.2,6.4c1.7-7,3.3-14,5-21c0.6,6.6,1.2,13.2,1.8,19.8
	c1.8-2.6,3.6-5.2,5.4-7.9c1.3,6.7,2.6,13.5,3.9,20.2C488.2,386.8,480.6,387.1,472.9,387.3z"/>
<path class="st3" d="M790.7,388c1.8-6,3.7-12.1,5.5-18.1c0.6,2.2,1.2,4.3,1.9,6.5c2-6.9,4-13.8,6-20.7c0.3,6.6,0.6,13.3,0.9,19.9
	c1.9-2.5,3.8-5.1,5.7-7.6c1,6.8,2,13.6,3,20.4C806,388.2,798.3,388.1,790.7,388z"/>
<path class="st3" d="M497.1,545.9c1.6-6.1,3.1-12.2,4.7-18.3c0.7,2.1,1.4,4.2,2.2,6.4c1.7-7,3.3-14,5-21c0.6,6.6,1.2,13.2,1.8,19.8
	c1.8-2.6,3.6-5.2,5.4-7.9c1.3,6.7,2.6,13.5,3.9,20.2C512.4,545.4,504.8,545.7,497.1,545.9z"/>
<path class="st3" d="M484.4,539.6c1.6-6.1,3.1-12.2,4.7-18.3c0.7,2.1,1.4,4.2,2.2,6.4c1.7-7,3.3-14,5-21c0.6,6.6,1.2,13.2,1.8,19.8
	c1.8-2.6,3.6-5.2,5.4-7.9c1.3,6.7,2.6,13.5,3.9,20.2C499.7,539.1,492,539.3,484.4,539.6z"/>
<path class="st3" d="M663,553.2c1.6-6.1,3.1-12.2,4.7-18.3c0.7,2.1,1.4,4.2,2.2,6.4c1.7-7,3.3-14,5-21c0.6,6.6,1.2,13.2,1.8,19.8
	c1.8-2.6,3.6-5.2,5.4-7.9c1.3,6.7,2.6,13.5,3.9,20.2C678.3,552.7,670.7,552.9,663,553.2z"/>
<path class="st3" d="M206.5,519.3c1.6-6.1,3.1-12.2,4.7-18.3c0.7,2.1,1.4,4.2,2.2,6.4c1.7-7,3.3-14,5-21c0.6,6.6,1.2,13.2,1.8,19.8
	c1.8-2.6,3.6-5.2,5.4-7.9c1.3,6.7,2.6,13.5,3.9,20.2C221.8,518.8,214.1,519.1,206.5,519.3z"/>
<path class="st3" d="M469.6,545.9c1.6-6.1,3.1-12.2,4.7-18.3c0.7,2.1,1.4,4.2,2.2,6.4c1.7-7,3.3-14,5-21c0.6,6.6,1.2,13.2,1.8,19.8
	c1.8-2.6,3.6-5.2,5.4-7.9c1.3,6.7,2.6,13.5,3.9,20.2C484.9,545.4,477.3,545.7,469.6,545.9z"/>
<path class="st1" d="M189.2,426.5c-18.1-1.8-28.5-14.8-27.1-22.8c1.2-7.2,12.5-14.3,27.1-13.3c-10-7.5-11.8-21.7-5.4-30.5
	c5.3-7.2,15.4-9.9,24.4-5.7c-1.4-13.1,8-23,16.3-22.8c8.3,0.2,17.4,10.7,15.4,23.8c11.1-9.6,25.6-6,29.8,1.9
	c3.7,6.9,0.8,18.9-9,25.7c8.5-1.4,16.1,2.3,18.1,7.6c2.5,6.7-3.1,18.2-15.4,20.9c7.5,1.2,13.3,4.9,13.6,8.6
	c0.3,4.3-6.6,10.4-18.1,11.4C235.6,429.6,212.4,428,189.2,426.5z"/>
<path class="st2" d="M183.9,429.6c-18.1-1.8-28.5-14.8-27.1-22.8c1.2-7.2,12.5-14.3,27.1-13.3c-10-7.5-11.8-21.7-5.4-30.5
	c5.3-7.2,15.4-9.9,24.4-5.7c-1.4-13.1,8-23,16.3-22.8c8.3,0.2,17.4,10.7,15.4,23.8c11.1-9.6,25.6-6,29.8,1.9
	c3.7,6.9,0.8,18.9-9,25.7c8.5-1.4,16.1,2.3,18.1,7.6c2.5,6.7-3.1,18.2-15.4,20.9c7.5,1.2,13.3,4.9,13.6,8.6
	c0.3,4.3-6.6,10.4-18.1,11.4C230.3,432.8,207.1,431.2,183.9,429.6z"/>
<path class="st1" d="M127.9,426.7c-18.1-1.8-28.5-14.8-27.1-22.8c1.2-7.2,12.5-14.3,27.1-13.3c-10-7.5-11.8-21.7-5.4-30.5
	c5.3-7.2,15.4-9.9,24.4-5.7c-1.4-13.1,8-23,16.3-22.8c8.3,0.2,17.4,10.7,15.4,23.8c11.1-9.6,25.6-6,29.8,1.9
	c3.7,6.9,0.8,18.9-9,25.7c8.5-1.4,16.1,2.3,18.1,7.6c2.5,6.7-3.1,18.2-15.4,20.9c7.5,1.2,13.3,4.9,13.6,8.6
	c0.3,4.3-6.6,10.4-18.1,11.4C174.3,429.9,151.1,428.3,127.9,426.7z"/>
<path class="st2" d="M122.6,429.8C104.4,428,94.1,415,95.5,407c1.2-7.2,12.5-14.3,27.1-13.3c-10-7.5-11.8-21.7-5.4-30.5
	c5.3-7.2,15.4-9.9,24.4-5.7c-1.4-13.1,8-23,16.3-22.8c8.3,0.2,17.4,10.7,15.4,23.8c11.1-9.6,25.6-6,29.8,1.9
	c3.7,6.9,0.8,18.9-9,25.7c8.5-1.4,16.1,2.3,18.1,7.6c2.5,6.7-3.1,18.2-15.4,20.9c7.5,1.2,13.3,4.9,13.6,8.6
	c0.3,4.3-6.6,10.4-18.1,11.4C169,433,145.8,431.4,122.6,429.8z"/>
<path class="st1" d="M53.5,422.8c-18.1-1.8-28.5-14.8-27.1-22.8c1.2-7.2,12.5-14.3,27.1-13.3c-10-7.5-11.8-21.7-5.4-30.5
	c5.3-7.2,15.4-9.9,24.4-5.7c-1.4-13.1,8-23,16.3-22.8c8.3,0.2,17.4,10.7,15.4,23.8c11.1-9.6,25.6-6,29.8,1.9
	c3.7,6.9,0.8,18.9-9,25.7c8.5-1.4,16.1,2.3,18.1,7.6c2.5,6.7-3.1,18.2-15.4,20.9c7.5,1.2,13.3,4.9,13.6,8.6
	c0.3,4.3-6.6,10.4-18.1,11.4C99.9,425.9,76.7,424.4,53.5,422.8z"/>
<path class="st2" d="M48.2,425.9c-18.1-1.8-28.5-14.8-27.1-22.8c1.2-7.2,12.5-14.3,27.1-13.3c-10-7.5-11.8-21.7-5.4-30.5
	c5.3-7.2,15.4-9.9,24.4-5.7c-1.4-13.1,8-23,16.3-22.8c8.3,0.2,17.4,10.7,15.4,23.8c11.1-9.6,25.6-6,29.8,1.9
	c3.7,6.9,0.8,18.9-9,25.7c8.5-1.4,16.1,2.3,18.1,7.6c2.5,6.7-3.1,18.2-15.4,20.9c7.5,1.2,13.3,4.9,13.6,8.6
	c0.3,4.3-6.6,10.4-18.1,11.4C94.6,429.1,71.4,427.5,48.2,425.9z"/>
<path d="M602.2,285.3l-1,0.5c-1.2,0.6-2.7,0.1-3.4-1.2l-0.5-1c-0.6-1.3-0.1-2.9,1.1-3.5l1-0.5c1.2-0.6,2.7-0.1,3.4,1.2l0.5,1
	C603.9,283,603.4,284.6,602.2,285.3z"/>
<path d="M605,282.1c0.7,0.6,1.7,1.3,2.7,2.3c0.2,0.2,2.1,2,3.4,3.8c3.1,4.3,2,7.1,4.3,9.3c1,1,2.9,2,6.6,1.6c-0.4,0.4-1,0.9-1.7,1.3
	c-1.8,1.1-4.8,1.9-7.2,0.8c-3-1.3-4.2-5.3-5.3-9c-0.9-3-1-5-2.7-7.5c-0.9-1.3-1.8-2.1-2.4-2.7C603.4,282.1,604.2,282.1,605,282.1z"
	/>
<path d="M604.8,280.9c0.9,0.2,2,0.5,3.4,1c0.2,0.1,2.7,1,4.6,2.1c4.5,2.6,4.5,5.7,7.4,6.8c1.3,0.5,3.4,0.7,6.7-1.2
	c-0.2,0.5-0.5,1.2-1.1,1.9c-1.2,1.7-3.7,3.7-6.3,3.7c-3.2,0-5.8-3.2-8.3-6.1c-1.9-2.3-2.8-4.2-5.4-5.8c-1.3-0.8-2.4-1.2-3.2-1.5
	C603.4,281.6,604.1,281.3,604.8,280.9z"/>
<path d="M603.3,280.5c0.9-0.1,2.1-0.2,3.5-0.1c0.2,0,2.9,0,5,0.5c5.1,1,6,3.9,9.1,3.9c1.4,0,3.5-0.5,5.9-3.4c0,0.6-0.1,1.3-0.4,2.2
	c-0.7,2-2.3,4.8-4.8,5.6c-3.1,1.1-6.5-1-9.7-3c-2.6-1.6-3.9-3-6.9-3.7c-1.4-0.3-2.7-0.3-3.5-0.3
	C602.1,281.6,602.7,281.1,603.3,280.5z"/>
<path d="M601.5,280.3c0.8-0.4,1.9-1,3.2-1.5c0.2-0.1,2.7-1.1,4.8-1.5c5.1-1.1,6.9,1.3,9.9,0c1.3-0.5,3-1.8,4.3-5.5
	c0.2,0.5,0.3,1.3,0.4,2.2c0.1,2.2-0.4,5.3-2.4,7.1c-2.5,2.2-6.4,1.6-10.1,1c-2.9-0.5-4.7-1.3-7.7-0.7c-1.5,0.3-2.6,0.7-3.3,1.1
	C600.9,281.8,601.2,281.1,601.5,280.3z"/>
<ellipse cx="594.5" cy="295" rx="9" ry="14.6"/>
<ellipse class="st11" cx="754.1" cy="31.2" rx="4.9" ry="2.4"/>
</svg>
