<?xml version="1.0" encoding="utf-8"?>
<!-- Generator: Adobe Illustrator 22.1.0, SVG Export Plug-In . SVG Version: 6.00 Build 0)  -->
<svg version="1.1" id="Warstwa_1" xmlns="http://www.w3.org/2000/svg" xmlns:xlink="http://www.w3.org/1999/xlink" x="0px" y="0px"
	 viewBox="0 0 841.9 595.3" style="enable-background:new 0 0 841.9 595.3;" xml:space="preserve">
<style type="text/css">
	.st0{fill:#FEF7BE;}
	.st1{fill:#DCE2F3;}
	.st2{fill:#222045;}
	.st3{fill:#9BCEAC;}
	.st4{fill:#C9DAF2;}
	.st5{fill:#96A2D3;}
	.st6{fill:#DBAC99;}
	.st7{fill:#EFEEEE;}
	.st8{fill:#D88500;}
	.st9{fill:#CA836B;}
	.st10{fill:#B7BD99;}
	.st11{font-family:'Phosphate-Inline';}
	.st12{font-size:29.674px;}
	.st13{fill:#FFFFFF;}
</style>
<rect x="97.6" y="68.3" class="st0" width="658.3" height="364.5"/>
<path class="st1" d="M385.9,342.1c-32.8-41-45-71.1-49.9-91.6c-0.7-3.1-5.1-22-9.7-21.4c-4.9,0.6-5.4,22.1-10.9,23.4
	c-6.8,1.6-12-30.2-19.5-29.2c-7.2,0.9-8.8,31.2-14.6,31.2c-5.1,0-5.7-23.2-18.2-48.7c-5-10.1-11.4-23.1-19.5-23.4
	c-10.1-0.3-17.8,19.3-21.9,29.2c-13.1,32-48.8,119.3-71.7,115c-10.2-1.9-18.1-24.7-34-70.2c-12.3-35.2-17.5-61.5-24.3-60.4
	C84.3,197,83,228.8,77.1,229c-8.9,0.4-13-69.7-19.9-70.2c-5.6-0.4-6.4,43.5-18,193.1C157.1,348.6,268,345.4,385.9,342.1z"/>
<path class="st1" d="M58.3,335.8c35.3-41,48.5-71.1,53.8-91.6c0.8-3.1,5.5-22,10.5-21.4c5.3,0.6,5.9,22.1,11.8,23.4
	c7.4,1.6,12.9-30.2,21-29.2c7.8,0.9,9.5,31.2,15.7,31.2c5.5,0,6.2-23.2,19.7-48.7c5.4-10.1,12.3-23.1,21-23.4
	c10.9-0.3,19.2,19.3,23.6,29.2c14.1,32,52.6,119.3,77.4,115c11-1.9,19.6-24.7,36.7-70.2c13.3-35.2,18.8-61.5,26.2-60.4
	c8,1.1,9.3,32.9,15.7,33.1c9.6,0.4,14-69.7,21.5-70.2c6-0.4,14.6,43.5,27,193C312.8,342.3,185.6,339,58.3,335.8z"/>
<path class="st1" d="M245.2,362.6c53.1-41,72.9-71.1,80.8-91.6c1.2-3.1,8.2-22,15.8-21.4c7.9,0.6,8.8,22.1,17.7,23.4
	c11.1,1.6,19.4-30.2,31.5-29.2c11.7,0.9,14.3,31.2,23.6,31.2c8.2,0,9.2-23.2,29.5-48.7c8.1-10.1,18.4-23.1,31.5-23.4
	c16.4-0.3,28.9,19.3,35.5,29.2c21.2,32,79,119.3,116.2,115c16.5-1.9,29.4-24.7,55.2-70.2c19.9-35.2,28.3-61.5,39.4-60.4
	c12,1.1,14,32.9,23.6,33.1c14.3,0.4,21-69.7,32.3-70.2c9-0.4,20.7,35.8,39.4,185.3C626.2,361.4,436.3,365.8,245.2,362.6z"/>
<path class="st2" d="M383.2,346.8c-32.9-41-45.2-71.1-50.1-91.6c-0.7-3.1-5.1-22-9.8-21.4c-4.9,0.6-5.5,22.1-11,23.4
	c-6.9,1.6-12-30.2-19.5-29.2c-7.3,0.9-8.9,31.2-14.7,31.2c-5.1,0-5.7-23.2-18.3-48.7c-5-10.1-11.4-23.1-19.5-23.4
	c-10.2-0.3-17.9,19.3-22,29.2c-13.1,32-49,119.3-72.1,115C136,329.3,128,306.6,112,261c-12.3-35.2-17.5-61.5-24.4-60.4
	c-7.4,1.1-8.7,32.9-14.7,33.1c-8.9,0.4-13-69.7-20-70.2c-3.5-0.2-8,17.1-13.7,67.4c-0.8,7.4,4.7,12.9,3.8,21.8
	c-2.7,26.5,0.3,60.6-2.9,102C158.5,351.5,264.7,350.1,383.2,346.8z"/>
<rect x="40" y="364.6" class="st3" width="777.2" height="194.5"/>
<path class="st2" d="M49.8,340.6c35.3-41,48.5-71.1,53.8-91.6c0.8-3.1,5.5-22,10.5-21.4c5.3,0.6,5.9,22.1,11.8,23.4
	c7.4,1.6,12.9-30.2,21-29.2c7.8,0.9,9.5,31.2,15.7,31.2c5.5,0,6.2-23.2,19.7-48.7c5.4-10.1,12.3-23.1,21-23.4
	c10.9-0.3,19.2,19.3,23.6,29.2c14.1,32,52.6,119.3,77.4,115c11-1.9,19.6-24.7,36.7-70.2c13.3-35.2,18.8-61.5,26.2-60.4
	c8,1.1,9.3,32.9,15.7,33.1c9.6,0.4,14-69.7,21.5-70.2c6-0.4,14.6,43.5,27,193C304.3,347.1,177.1,343.8,49.8,340.6z"/>
<path class="st2" d="M239.1,368.8c52.6-41,72.3-71.1,80.1-91.6c1.2-3.1,8.2-22,15.6-21.4c7.8,0.6,8.8,22.1,17.6,23.4
	c11,1.6,19.2-30.2,31.3-29.2c11.6,0.9,14.2,31.2,23.5,31.2c8.1,0,9.2-23.2,29.3-48.7c8-10.1,18.2-23.1,31.3-23.4
	c16.2-0.3,28.6,19.3,35.2,29.2c21,32,78.4,119.3,115.3,115c16.4-1.9,29.2-24.7,54.7-70.2c19.7-35.2,28.1-61.5,39.1-60.4
	c11.9,1.1,13.9,32.9,23.5,33.1c14.2,0.4,20.8-69.7,32-70.2c8.9-0.4,21.7,43.5,40.3,193C618.2,375.3,428.7,372,239.1,368.8z"/>
<path class="st4" d="M446,453.2c-120.3-6.8-199.1-4.4-245.5-1.5c-26.6,1.7-70.9,5.3-74.8,22.8c-2.3,10.1,9.8,20.9,12,22.8
	c26.1,23.2,60.9,5.6,139.2,0c33.6-2.4,68.1-4.6,110.8,4.6c36.5,7.9,36.4,14.9,68.9,22.8c62.9,15.4,149.7,10.2,163.2-25.9
	c8-21.4-12.6-46.2-13.5-47.2C578,418.5,512.8,416.6,446,453.2z"/>
<path class="st5" d="M439.3,482.3c-13.9-0.3-26.5-0.8-26.5-1.4c0-0.7,19.1-1.1,19.2-2.7c0-0.4-1.1-0.7-1.8-0.9
	c-9.5-2.6-30.6-3.6-30.7-3.8c0-0.1,4.4-1.5,39.1-1.7c40.7-0.3,74.2,1.4,74.2,2c-0.1,0.8-55.7-0.5-56.3,2.4c-0.4,1.8,21,3.9,20.5,5.4
	C476.6,482.9,460.5,482.9,439.3,482.3z"/>
<path class="st5" d="M240.4,461.7c-7.3,0.3-13.9,0.8-13.9,1.4c0,0.7,10,1.1,10.1,2.8c0,0.4-0.6,0.8-0.9,1c-5,2.7-16,3.8-16,4
	c0,0.1,2.3,1.5,20.4,1.8c21.3,0.3,38.8-1.4,38.8-2.1c0-0.9-29.1,0.6-29.5-2.5c-0.2-1.9,11-4.1,10.7-5.6
	C259.9,461.1,251.5,461.1,240.4,461.7z"/>
<path class="st5" d="M326,486.1c-13.9-0.9-26.5-2-26.5-3.6c0-1.9,19.1-2.9,19.2-7.1c0-1.1-1.1-2-1.8-2.4
	c-9.5-6.7-30.6-9.5-30.7-10.1c0-0.3,4.4-3.9,39.1-4.5c40.7-0.7,74.2,3.6,74.2,5.4c-0.1,2.2-55.7-1.4-56.3,6.3
	c-0.4,4.8,21,10.3,20.5,14.3C363.4,487.7,347.3,487.6,326,486.1z"/>
<path class="st6" d="M564.8,358.1c9.5-9.4,13.6-15.3,15-20.4c1.7-6.4,4.3-12.5,5.5-19c0-0.2,0.2-1.2,0.8-2.3c1.3-2.5,4-4.8,5.9-4.5
	c3.9,0.6,5,11.7,5.1,12.4c1,10.7-3.6,19.9-7.5,25.8c-5.8,6-11.7,12-17.5,18c-0.7,0.7-1.5,2.8-2.2,3.6
	C568.4,368.1,566.3,361.8,564.8,358.1z"/>
<path class="st7" d="M492.2,507.2c1.8-12.2,6.4-32.9,19.7-54.1c22.7-36.2,55.2-48.7,67.6-53.2c17.8-6.5,38.6-14.2,62.1-6.9
	c11.9,3.7,20.5,10,75.5,78.1c25.3,31.3,26.7,33.9,25.9,37.8c-8.2,43.8-248.3,43-254,7.7C488.4,513,490.5,509.5,492.2,507.2z"/>
<polygon class="st0" points="578.8,335.8 546.4,340 529.9,294.5 545.5,308.2 "/>
<polygon class="st8" points="560.6,348.4 545.5,342.4 528.2,300.1 545.5,308.2 "/>
<polygon class="st0" points="592.7,344.8 560.3,349 545.5,308.2 572.5,303 "/>
<polygon class="st8" points="588.4,346.5 560.3,349 545.4,308.2 569.1,307.2 "/>
<path d="M549.2,396.3c19.9-5.1,31-9.1,37.6-12.1c0.4-0.2,4.7-2.1,10.7-3.1c6.8-1.1,12.6-2.1,16.4,1.8c3.4,3.5,3.8,9.5,2.8,13.8
	c-1.8,7.3-7.8,10.1-8.5,10.4c-11.9-0.5-22,0.7-30.3,2.4c-14.3,3-23.1,7.5-27.6,3C547.1,409.4,547.6,402.9,549.2,396.3z"/>
<path d="M589.4,375.6c13,0.3,25.9,0.6,38.9,0.9c1.1,4.2,2.9,13.9-0.8,24.4c-1.2,3.4-3.5,9.9-9.4,14.1c-1.7,1.2-5,3.2-16.5,3.9
	c-5.4,0.3-13.1,0.4-22.4-0.9c-10.3,6.3-21.1,5.3-25.9-0.9c-2.6-3.3-4.3-9.3-2.4-14.1c1.3-3.3,3.8-4.8,8.2-7.3
	c9.2-5.2,19.4-6.8,20-6.9c4.9-0.7,7.2-0.4,9-2.6C590.5,383.6,590.2,379.2,589.4,375.6z"/>
<path class="st9" d="M591.9,308.6c-1.2,1.4-2.6,3.4-3.4,6.1c-0.4,1.3-0.5,2.3-0.6,2.9c-2,17.5-0.7,31.8-0.7,31.8
	c0.7,8,1.3,19.4,0.9,34.2c7,3.3,13.1,4.3,17.2,4.7c6.3,0.5,14.3,1.2,20.6-4.3c1.9-1.6,3.1-3.4,3.8-4.7c-0.5-1.7-1.2-4.6-2.1-8
	c-5.2-20.3-8.3-34.1-14.5-50.4c-4.4-11.4-6.9-15.3-10.8-16.2C598.2,303.7,594.3,306.5,591.9,308.6z"/>
<path d="M589.2,300.2c0.7,4.1,1.3,8.2,2,12.3c-0.4,1-0.8,2.2-0.4,2.8c0.9,1.3,4.7-0.9,6.9-2.5c2.4-1.8,6.5-5.5,5.8-7.7
	c-0.3-1-1.3-0.6-2.8-1.9c-2-1.8-2.6-4.8-3.3-8.7c-0.8-4.1-0.4-5.6-1-5.8C595.6,288.3,593.8,290.2,589.2,300.2z"/>
<ellipse transform="matrix(7.443445e-02 -0.9972 0.9972 7.443445e-02 248.9277 854.4226)" cx="584.8" cy="293.1" rx="14.9" ry="9.9"/>
<path d="M581.3,375.4c-1.3,1.1-5.2-1.9-7.7-4.4c-2.5-2.6-2.7-4.2-6-10.5c-3.8-7.3-5.6-10.9-7.6-13.7c-1.7-2.4-3.5-4.4-4.2-7.9
	c-0.5-2.3-0.6-5.7,0.6-6.3c1.1-0.5,3.2,1.8,4.2,3.7c1.3,2.4,1.2,4.8,1.1,5.9c1.8,3,4,6.3,6.4,9.6c0.8,1.1,2.1,2.6,8.1,10
	c1.7,2,2.8,3.5,3.9,5.8C581.1,369.9,582.6,374.4,581.3,375.4z"/>
<path class="st6" d="M576.2,361.8c9.5-9.4,13.6-15.3,15-20.4c1.7-6.4,4.3-12.5,5.5-19c0-0.2,0.2-1.2,0.8-2.3c1.3-2.5,4-4.8,5.9-4.5
	c3.9,0.6,5,11.7,5.1,12.4c1,10.7-3.6,19.9-7.5,25.8c-5.8,6-11.7,12-17.5,18c-0.7,0.7-1.5,2.8-2.2,3.6
	C579.8,371.8,577.7,365.4,576.2,361.8z"/>
<path d="M571.2,287.1c2,1.6,5.4,4,10.1,5.2c1.3,0.3,14.4,3.5,17.8-3c2.4-4.6-0.8-12.3-6-15.7c-4.8-3.2-11.8-2.9-14.4,0.4
	c-1.3,1.8-2.4,5.7-2.5,6.1c-0.5,1.9-0.6,3-1.4,4.3C573.8,285.9,572.3,286.7,571.2,287.1z"/>
<path d="M565.3,474.3c-5.3-21.6-9.3-33.6-12.2-40.7c-0.2-0.5-2.1-5.1-3.1-11.6c-1.2-7.4-2.3-13.7,1.2-18c3.1-3.8,8.6-4.5,12.6-3.4
	c6.7,1.7,9.5,8.2,9.8,9c-0.1,13,1.3,24,3.1,33c3.2,15.6,7.6,25,3.5,30C577.3,476.1,571.3,475.8,565.3,474.3z"/>
<path d="M527.4,462c6.8-21,9.7-33.4,11-41.1c0.1-0.5,0.9-5.5,3.4-11.5c2.8-6.9,5.2-12.7,10.3-14.1c4.5-1.3,9.4,1.6,12.1,4.9
	c4.6,5.6,3.6,12.6,3.5,13.5c-6.8,10.7-11.3,20.7-14.4,29.2c-5.4,14.8-6.7,25.3-12.6,26.9C536.3,470.9,531.6,467,527.4,462z"/>
<path class="st6" d="M581.9,468.6c3.1,9.1,6.3,18.2,9.4,27.2c-12.6,5.7-25.3,11.3-37.9,17c-0.8-0.2-3-0.8-4.3-2.9
	c-2.2-3.7,0.5-8.6,0.9-9.4c1.7-3.1,4.4-4.6,5.6-5.1c3-1.7,6-3.4,9-5.1c0.9-0.6,2.3-1.7,3.2-3.5c1.7-3.3,1.3-7.7-0.9-11.5
	C571.9,473.1,576.9,470.8,581.9,468.6z"/>
<path class="st9" d="M564.3,471.9c1.6,0.5,6.4,1.9,11.6-1.1c3.3-1.9,5.3-4.6,6.4-6.3c0.4,0.9,0.9,2.1,0.8,3.5
	c-0.3,5.3-8.1,7.9-9.2,8.2c-1,0.3-7.9,2.6-9.5-1C564,474.2,564.1,473,564.3,471.9z"/>
<path class="st6" d="M541.6,470.4c-4.5,8.3-9.1,16.7-13.6,25c-12-7.2-23.9-14.4-35.9-21.6c-0.4-0.8-1.4-3.1-0.7-5.5
	c1.2-4.2,6.4-5,7.3-5.1c3.3-0.5,6,0.9,7.2,1.6c3.1,1.5,6.2,3,9.3,4.5c1,0.4,2.6,0.9,4.5,0.5c3.5-0.6,6.3-3.8,7.6-8
	C532.1,464.7,536.9,467.6,541.6,470.4z"/>
<path class="st9" d="M528,458.3c0.8,1.5,3.2,5.9,8.5,7.9c3.3,1.3,6.2,1.1,7.9,0.8c-0.2,0.9-0.6,2-1.5,2.8c-3.3,3.1-10-1.1-10.9-1.7
	c-0.9-0.6-6.8-4.2-5.8-7.7C526.5,459.5,527.3,458.8,528,458.3z"/>
<path d="M569.9,371.7c-1.3,1.1-5.2-1.9-7.7-4.4c-2.5-2.6-2.7-4.2-6-10.5c-3.8-7.3-5.6-10.9-7.6-13.7c-1.7-2.4-3.5-4.4-4.2-7.9
	c-0.5-2.3-0.6-5.7,0.6-6.3c1.1-0.5,3.2,1.8,4.2,3.7c1.3,2.4,1.2,4.8,1.1,5.9c1.8,3,4,6.3,6.4,9.6c0.8,1.1,2.1,2.6,8.1,10
	c1.7,2,2.8,3.5,3.9,5.8C569.6,366.2,571.1,370.7,569.9,371.7z"/>
<path class="st10" d="M39.1,231c159.3,24.3,257.2,75.8,308.8,109c52.2,33.6,51.9,45.1,50.2,50c-12,34.6-199.2,34-359.7,20.2
	C37.1,353.1,40.4,288,39.1,231z"/>
<path class="st1" d="M254.9,420.6c-18.1-1.8-28.5-14.8-27.1-22.8c1.2-7.2,12.5-14.3,27.1-13.3c-10-7.5-11.8-21.7-5.4-30.5
	c5.3-7.2,15.4-9.9,24.4-5.7c-1.4-13.1,8-23,16.3-22.8c8.3,0.2,17.4,10.7,15.4,23.8c11.1-9.6,25.6-6,29.8,1.9
	c3.7,6.9,0.8,18.9-9,25.7c8.5-1.4,16.1,2.3,18.1,7.6c2.5,6.7-3.1,18.2-15.4,20.9c7.5,1.2,13.3,4.9,13.6,8.6
	c0.3,4.3-6.6,10.4-18.1,11.4C301.3,423.8,278.1,422.2,254.9,420.6z"/>
<path class="st2" d="M249.6,423.7c-18.1-1.8-28.5-14.8-27.1-22.8c1.2-7.2,12.5-14.3,27.1-13.3c-10-7.5-11.8-21.7-5.4-30.5
	c5.3-7.2,15.4-9.9,24.4-5.7c-1.4-13.1,8-23,16.3-22.8c8.3,0.2,17.4,10.7,15.4,23.8c11.1-9.6,25.6-6,29.8,1.9
	c3.7,6.9,0.8,18.9-9,25.7c8.5-1.4,16.1,2.3,18.1,7.6c2.5,6.7-3.1,18.2-15.4,20.9c7.5,1.2,13.3,4.9,13.6,8.6
	c0.3,4.3-6.6,10.4-18.1,11.4C295.9,426.9,272.7,425.3,249.6,423.7z"/>
<path class="st3" d="M469.2,379.9c1.6-6.1,3.1-12.2,4.7-18.3c0.7,2.1,1.4,4.2,2.2,6.4c1.7-7,3.3-14,5-21c0.6,6.6,1.2,13.2,1.8,19.8
	c1.8-2.6,3.6-5.2,5.4-7.9c1.3,6.7,2.6,13.5,3.9,20.2C484.5,379.4,476.9,379.7,469.2,379.9z"/>
<path class="st3" d="M787,380.6c1.8-6,3.7-12.1,5.5-18.1c0.6,2.2,1.2,4.3,1.9,6.5c2-6.9,4-13.8,6-20.7c0.3,6.6,0.6,13.3,0.9,19.9
	c1.9-2.5,3.8-5.1,5.7-7.6c1,6.8,2,13.6,3,20.4C802.3,380.8,794.6,380.7,787,380.6z"/>
<path class="st3" d="M493.5,538.5c1.6-6.1,3.1-12.2,4.7-18.3c0.7,2.1,1.4,4.2,2.2,6.4c1.7-7,3.3-14,5-21c0.6,6.6,1.2,13.2,1.8,19.8
	c1.8-2.6,3.6-5.2,5.4-7.9c1.3,6.7,2.6,13.5,3.9,20.2C508.8,538,501.1,538.3,493.5,538.5z"/>
<path class="st3" d="M480.7,532.2c1.6-6.1,3.1-12.2,4.7-18.3c0.7,2.1,1.4,4.2,2.2,6.4c1.7-7,3.3-14,5-21c0.6,6.6,1.2,13.2,1.8,19.8
	c1.8-2.6,3.6-5.2,5.4-7.9c1.3,6.7,2.6,13.5,3.9,20.2C496,531.7,488.4,531.9,480.7,532.2z"/>
<path class="st3" d="M659.4,545.8c1.6-6.1,3.1-12.2,4.7-18.3c0.7,2.1,1.4,4.2,2.2,6.4c1.7-7,3.3-14,5-21c0.6,6.6,1.2,13.2,1.8,19.8
	c1.8-2.6,3.6-5.2,5.4-7.9c1.3,6.7,2.6,13.5,3.9,20.2C674.7,545.3,667,545.5,659.4,545.8z"/>
<path class="st3" d="M202.8,511.9c1.6-6.1,3.1-12.2,4.7-18.3c0.7,2.1,1.4,4.2,2.2,6.4c1.7-7,3.3-14,5-21c0.6,6.6,1.2,13.2,1.8,19.8
	c1.8-2.6,3.6-5.2,5.4-7.9c1.3,6.7,2.6,13.5,3.9,20.2C218.1,511.4,210.4,511.7,202.8,511.9z"/>
<path class="st3" d="M465.9,538.5c1.6-6.1,3.1-12.2,4.7-18.3c0.7,2.1,1.4,4.2,2.2,6.4c1.7-7,3.3-14,5-21c0.6,6.6,1.2,13.2,1.8,19.8
	c1.8-2.6,3.6-5.2,5.4-7.9c1.3,6.7,2.6,13.5,3.9,20.2C481.3,538,473.6,538.3,465.9,538.5z"/>
<text transform="matrix(0.9817 0 0 1 174.2519 126.2672)" class="st2 st11 st12">Phisical books  for virtual students</text>
<path class="st1" d="M185.5,419c-18.1-1.8-28.5-14.8-27.1-22.8c1.2-7.2,12.5-14.3,27.1-13.3c-10-7.5-11.8-21.7-5.4-30.5
	c5.3-7.2,15.4-9.9,24.4-5.7c-1.4-13.1,8-23,16.3-22.8c8.3,0.2,17.4,10.7,15.4,23.8c11.1-9.6,25.6-6,29.8,1.9
	c3.7,6.9,0.8,18.9-9,25.7c8.5-1.4,16.1,2.3,18.1,7.6c2.5,6.7-3.1,18.2-15.4,20.9c7.5,1.2,13.3,4.9,13.6,8.6
	c0.3,4.3-6.6,10.4-18.1,11.4C231.9,422.2,208.7,420.6,185.5,419z"/>
<path class="st2" d="M180.2,422.2c-18.1-1.8-28.5-14.8-27.1-22.8c1.2-7.2,12.5-14.3,27.1-13.3c-10-7.5-11.8-21.7-5.4-30.5
	c5.3-7.2,15.4-9.9,24.4-5.7c-1.4-13.1,8-23,16.3-22.8c8.3,0.2,17.4,10.7,15.4,23.8c11.1-9.6,25.6-6,29.8,1.9
	c3.7,6.9,0.8,18.9-9,25.7c8.5-1.4,16.1,2.3,18.1,7.6c2.5,6.7-3.1,18.2-15.4,20.9c7.5,1.2,13.3,4.9,13.6,8.6
	c0.3,4.3-6.6,10.4-18.1,11.4C226.6,425.4,203.4,423.8,180.2,422.2z"/>
<path class="st1" d="M124.2,419.3c-18.1-1.8-28.5-14.8-27.1-22.8c1.2-7.2,12.5-14.3,27.1-13.3c-10-7.5-11.8-21.7-5.4-30.5
	c5.3-7.2,15.4-9.9,24.4-5.7c-1.4-13.1,8-23,16.3-22.8c8.3,0.2,17.4,10.7,15.4,23.8c11.1-9.6,25.6-6,29.8,1.9
	c3.7,6.9,0.8,18.9-9,25.7c8.5-1.4,16.1,2.3,18.1,7.6c2.5,6.7-3.1,18.2-15.4,20.9c7.5,1.2,13.3,4.9,13.6,8.6
	c0.3,4.3-6.6,10.4-18.1,11.4C170.6,422.4,147.4,420.9,124.2,419.3z"/>
<path class="st2" d="M118.9,422.4c-18.1-1.8-28.5-14.8-27.1-22.8c1.2-7.2,12.5-14.3,27.1-13.3c-10-7.5-11.8-21.7-5.4-30.5
	c5.3-7.2,15.4-9.9,24.4-5.7c-1.4-13.1,8-23,16.3-22.8c8.3,0.2,17.4,10.7,15.4,23.8c11.1-9.6,25.6-6,29.8,1.9
	c3.7,6.9,0.8,18.9-9,25.7c8.5-1.4,16.1,2.3,18.1,7.6c2.5,6.7-3.1,18.2-15.4,20.9c7.5,1.2,13.3,4.9,13.6,8.6
	c0.3,4.3-6.6,10.4-18.1,11.4C165.3,425.6,142.1,424,118.9,422.4z"/>
<path class="st1" d="M49.9,415.4c-18.1-1.8-28.5-14.8-27.1-22.8c1.2-7.2,12.5-14.3,27.1-13.3c-10-7.5-11.8-21.7-5.4-30.5
	c5.3-7.2,15.4-9.9,24.4-5.7c-1.4-13.1,8-23,16.3-22.8c8.3,0.2,17.4,10.7,15.4,23.8c11.1-9.6,25.6-6,29.8,1.9
	c3.7,6.9,0.8,18.9-9,25.7c8.5-1.4,16.1,2.3,18.1,7.6c2.5,6.7-3.1,18.2-15.4,20.9c7.5,1.2,13.3,4.9,13.6,8.6
	c0.3,4.3-6.6,10.4-18.1,11.4C96.3,418.5,73.1,416.9,49.9,415.4z"/>
<path class="st2" d="M44.6,418.5c-18.1-1.8-28.5-14.8-27.1-22.8c1.2-7.2,12.5-14.3,27.1-13.3c-10-7.5-11.8-21.7-5.4-30.5
	c5.3-7.2,15.4-9.9,24.4-5.7c-1.4-13.1,8-23,16.3-22.8c8.3,0.2,17.4,10.7,15.4,23.8c11.1-9.6,25.6-6,29.8,1.9
	c3.7,6.9,0.8,18.9-9,25.7c8.5-1.4,16.1,2.3,18.1,7.6c2.5,6.7-3.1,18.2-15.4,20.9c7.5,1.2,13.3,4.9,13.6,8.6
	c0.3,4.3-6.6,10.4-18.1,11.4C90.9,421.7,67.7,420.1,44.6,418.5z"/>
<path d="M598.5,277.9l-1,0.5c-1.2,0.6-2.7,0.1-3.4-1.2l-0.5-1c-0.6-1.3-0.1-2.9,1.1-3.5l1-0.5c1.2-0.6,2.7-0.1,3.4,1.2l0.5,1
	C600.2,275.6,599.7,277.2,598.5,277.9z"/>
<path d="M601.3,274.7c0.7,0.6,1.7,1.3,2.7,2.3c0.2,0.2,2.1,2,3.4,3.8c3.1,4.3,2,7.1,4.3,9.3c1,1,2.9,2,6.6,1.6
	c-0.4,0.4-1,0.9-1.7,1.3c-1.8,1.1-4.8,1.9-7.2,0.8c-3-1.3-4.2-5.3-5.3-9c-0.9-3-1-5-2.7-7.5c-0.9-1.3-1.8-2.1-2.4-2.7
	C599.8,274.7,600.6,274.7,601.3,274.7z"/>
<path d="M601.1,273.5c0.9,0.2,2,0.5,3.4,1c0.2,0.1,2.7,1,4.6,2.1c4.5,2.6,4.5,5.7,7.4,6.8c1.3,0.5,3.4,0.7,6.7-1.2
	c-0.2,0.5-0.5,1.2-1.1,1.9c-1.2,1.7-3.7,3.7-6.3,3.7c-3.2,0-5.8-3.2-8.3-6.1c-1.9-2.3-2.8-4.2-5.4-5.8c-1.3-0.8-2.4-1.2-3.2-1.5
	C599.7,274.2,600.4,273.9,601.1,273.5z"/>
<path d="M599.6,273.1c0.9-0.1,2.1-0.2,3.5-0.1c0.2,0,2.9,0,5,0.5c5.1,1,6,3.9,9.1,3.9c1.4,0,3.5-0.5,5.9-3.4c0,0.6-0.1,1.3-0.4,2.2
	c-0.7,2-2.3,4.8-4.8,5.6c-3.1,1.1-6.5-1-9.7-3c-2.6-1.6-3.9-3-6.9-3.7c-1.4-0.3-2.7-0.3-3.5-0.3C598.5,274.2,599,273.6,599.6,273.1z
	"/>
<path d="M597.9,272.9c0.8-0.4,1.9-1,3.2-1.5c0.2-0.1,2.7-1.1,4.8-1.5c5.1-1.1,6.9,1.3,9.9,0c1.3-0.5,3-1.8,4.3-5.5
	c0.2,0.5,0.3,1.3,0.4,2.2c0.1,2.2-0.4,5.3-2.4,7.1c-2.5,2.2-6.4,1.6-10.1,1c-2.9-0.5-4.7-1.3-7.7-0.7c-1.5,0.3-2.6,0.7-3.3,1.1
	C597.2,274.4,597.5,273.7,597.9,272.9z"/>
<ellipse cx="590.8" cy="287.6" rx="9" ry="14.6"/>
<ellipse class="st13" cx="750.5" cy="23.8" rx="4.9" ry="2.4"/>
</svg>
