<svg width="908" height="549" viewBox="0 0 908 549" fill="none" xmlns="http://www.w3.org/2000/svg">
<g filter="url(#filter0_d)">
<path d="M20 21.7584C20 18.7179 22.6911 16.3812 25.7015 16.8078L454 77.4999L882.298 16.8078C885.309 16.3812 888 18.7179 888 21.7584V477.194C888 479.766 886.049 481.918 883.49 482.17L454 524.5L24.5096 482.17C21.9505 481.918 20 479.766 20 477.194V21.7584Z" fill="#EF9000"/>
</g>
<g filter="url(#filter1_d)">
<g filter="url(#filter2_d)">
<path d="M35 50.7461C35 50.7461 153.966 58.601 220.252 63.5102C286.539 68.4195 453.998 88.3298 453.998 88.3298V508.29C453.998 508.29 383.875 495.853 220.252 481.78C56.6302 467.707 35 470.706 35 470.706L35 50.7461Z" fill="#FFF8BD"/>
<path d="M35 50.7461C35 50.7461 153.966 58.601 220.252 63.5102C286.539 68.4195 453.998 88.3298 453.998 88.3298V508.29C453.998 508.29 383.875 495.853 220.252 481.78C56.6302 467.707 35 470.706 35 470.706L35 50.7461Z" fill="#FFF8BD"/>
</g>
<g filter="url(#filter3_d)">
<path d="M64.6544 38.2552C64.6544 38.2552 184.667 51.4832 249.907 61.1651C315.146 70.8471 453.998 88.3298 453.998 88.3298V508.29C453.998 508.29 374.106 489.635 256.535 476.543C138.965 463.452 64.6544 458.215 64.6544 458.215L64.6544 38.2552Z" fill="#FFF8BD"/>
<path d="M64.6544 38.2552C64.6544 38.2552 184.667 51.4832 249.907 61.1651C315.146 70.8471 453.998 88.3298 453.998 88.3298V508.29C453.998 508.29 374.106 489.635 256.535 476.543C138.965 463.452 64.6544 458.215 64.6544 458.215L64.6544 38.2552Z" fill="#FFF8BD"/>
</g>
<g filter="url(#filter4_d)">
<path d="M94.3087 28.1094C94.3087 28.1094 214.322 41.3374 279.561 51.0193C344.801 60.7012 453.998 88.3298 453.998 88.3298V508.29C453.998 508.29 344.452 481.071 279.561 470.925C214.67 460.78 94.3087 448.07 94.3087 448.07L94.3087 28.1094Z" fill="#FFF8BD"/>
<path d="M94.3087 28.1094C94.3087 28.1094 214.322 41.3374 279.561 51.0193C344.801 60.7012 453.998 88.3298 453.998 88.3298V508.29C453.998 508.29 344.452 481.071 279.561 470.925C214.67 460.78 94.3087 448.07 94.3087 448.07L94.3087 28.1094Z" fill="#FFF8BD"/>
</g>
<g filter="url(#filter5_d)">
<path d="M872.648 50.7461C872.648 50.7461 753.682 58.601 687.395 63.5102C621.109 68.4195 453.65 88.3298 453.65 88.3298V508.29C453.65 508.29 523.773 495.853 687.395 481.78C851.018 467.707 872.648 470.706 872.648 470.706L872.648 50.7461Z" fill="#FFF8BD"/>
<path d="M872.648 50.7461C872.648 50.7461 753.682 58.601 687.395 63.5102C621.109 68.4195 453.65 88.3298 453.65 88.3298V508.29C453.65 508.29 523.773 495.853 687.395 481.78C851.018 467.707 872.648 470.706 872.648 470.706L872.648 50.7461Z" fill="#FFF8BD"/>
</g>
<g filter="url(#filter6_d)">
<path d="M842.994 38.2552C842.994 38.2552 722.981 51.4832 657.741 61.1651C592.502 70.8471 453.65 88.3298 453.65 88.3298V508.29C453.65 508.29 533.542 489.635 651.113 476.543C768.683 463.452 842.994 458.215 842.994 458.215L842.994 38.2552Z" fill="#FFF8BD"/>
<path d="M842.994 38.2552C842.994 38.2552 722.981 51.4832 657.741 61.1651C592.502 70.8471 453.65 88.3298 453.65 88.3298V508.29C453.65 508.29 533.542 489.635 651.113 476.543C768.683 463.452 842.994 458.215 842.994 458.215L842.994 38.2552Z" fill="#FFF8BD"/>
</g>
<g filter="url(#filter7_d)">
<path d="M813.339 28.1094C813.339 28.1094 693.326 41.3374 628.087 51.0193C562.847 60.7012 453.65 88.3298 453.65 88.3298V508.29C453.65 508.29 563.196 481.071 628.087 470.925C692.978 460.78 813.339 448.07 813.339 448.07L813.339 28.1094Z" fill="#FFF8BD"/>
<path d="M813.339 28.1094C813.339 28.1094 693.326 41.3374 628.087 51.0193C562.847 60.7012 453.65 88.3298 453.65 88.3298V508.29C453.65 508.29 563.196 481.071 628.087 470.925C692.978 460.78 813.339 448.07 813.339 448.07L813.339 28.1094Z" fill="#FFF8BD"/>
</g>
<g filter="url(#filter8_d)">
<path d="M453.51 88.2666V508.5" stroke="black" stroke-opacity="0.14"/>
</g>
</g>
<defs>
<filter id="filter0_d" x="0" y="0.757429" width="908" height="547.742" filterUnits="userSpaceOnUse" color-interpolation-filters="sRGB">
<feFlood flood-opacity="0" result="BackgroundImageFix"/>
<feColorMatrix in="SourceAlpha" type="matrix" values="0 0 0 0 0 0 0 0 0 0 0 0 0 0 0 0 0 0 127 0"/>
<feOffset dy="4"/>
<feGaussianBlur stdDeviation="10"/>
<feColorMatrix type="matrix" values="0 0 0 0 0 0 0 0 0 0 0 0 0 0 0 0 0 0 0.25 0"/>
<feBlend mode="normal" in2="BackgroundImageFix" result="effect1_dropShadow"/>
<feBlend mode="normal" in="SourceGraphic" in2="effect1_dropShadow" result="shape"/>
</filter>
<filter id="filter1_d" x="25" y="22.1094" width="857.648" height="500.39" filterUnits="userSpaceOnUse" color-interpolation-filters="sRGB">
<feFlood flood-opacity="0" result="BackgroundImageFix"/>
<feColorMatrix in="SourceAlpha" type="matrix" values="0 0 0 0 0 0 0 0 0 0 0 0 0 0 0 0 0 0 127 0"/>
<feOffset dy="4"/>
<feGaussianBlur stdDeviation="5"/>
<feColorMatrix type="matrix" values="0 0 0 0 0 0 0 0 0 0 0 0 0 0 0 0 0 0 0.25 0"/>
<feBlend mode="normal" in2="BackgroundImageFix" result="effect1_dropShadow"/>
<feBlend mode="normal" in="SourceGraphic" in2="effect1_dropShadow" result="shape"/>
</filter>
<filter id="filter2_d" x="29" y="50.7461" width="426.998" height="465.544" filterUnits="userSpaceOnUse" color-interpolation-filters="sRGB">
<feFlood flood-opacity="0" result="BackgroundImageFix"/>
<feColorMatrix in="SourceAlpha" type="matrix" values="0 0 0 0 0 0 0 0 0 0 0 0 0 0 0 0 0 0 127 0"/>
<feOffset dx="-2" dy="4"/>
<feGaussianBlur stdDeviation="2"/>
<feColorMatrix type="matrix" values="0 0 0 0 0 0 0 0 0 0 0 0 0 0 0 0 0 0 0.25 0"/>
<feBlend mode="normal" in2="BackgroundImageFix" result="effect1_dropShadow"/>
<feBlend mode="normal" in="SourceGraphic" in2="effect1_dropShadow" result="shape"/>
</filter>
<filter id="filter3_d" x="58.6544" y="38.2552" width="397.344" height="478.035" filterUnits="userSpaceOnUse" color-interpolation-filters="sRGB">
<feFlood flood-opacity="0" result="BackgroundImageFix"/>
<feColorMatrix in="SourceAlpha" type="matrix" values="0 0 0 0 0 0 0 0 0 0 0 0 0 0 0 0 0 0 127 0"/>
<feOffset dx="-2" dy="4"/>
<feGaussianBlur stdDeviation="2"/>
<feColorMatrix type="matrix" values="0 0 0 0 0 0 0 0 0 0 0 0 0 0 0 0 0 0 0.25 0"/>
<feBlend mode="normal" in2="BackgroundImageFix" result="effect1_dropShadow"/>
<feBlend mode="normal" in="SourceGraphic" in2="effect1_dropShadow" result="shape"/>
</filter>
<filter id="filter4_d" x="88.3087" y="28.1094" width="367.69" height="488.181" filterUnits="userSpaceOnUse" color-interpolation-filters="sRGB">
<feFlood flood-opacity="0" result="BackgroundImageFix"/>
<feColorMatrix in="SourceAlpha" type="matrix" values="0 0 0 0 0 0 0 0 0 0 0 0 0 0 0 0 0 0 127 0"/>
<feOffset dx="-2" dy="4"/>
<feGaussianBlur stdDeviation="2"/>
<feColorMatrix type="matrix" values="0 0 0 0 0 0 0 0 0 0 0 0 0 0 0 0 0 0 0.25 0"/>
<feBlend mode="normal" in2="BackgroundImageFix" result="effect1_dropShadow"/>
<feBlend mode="normal" in="SourceGraphic" in2="effect1_dropShadow" result="shape"/>
</filter>
<filter id="filter5_d" x="451.65" y="50.7461" width="426.998" height="465.544" filterUnits="userSpaceOnUse" color-interpolation-filters="sRGB">
<feFlood flood-opacity="0" result="BackgroundImageFix"/>
<feColorMatrix in="SourceAlpha" type="matrix" values="0 0 0 0 0 0 0 0 0 0 0 0 0 0 0 0 0 0 127 0"/>
<feOffset dx="2" dy="4"/>
<feGaussianBlur stdDeviation="2"/>
<feColorMatrix type="matrix" values="0 0 0 0 0 0 0 0 0 0 0 0 0 0 0 0 0 0 0.25 0"/>
<feBlend mode="normal" in2="BackgroundImageFix" result="effect1_dropShadow"/>
<feBlend mode="normal" in="SourceGraphic" in2="effect1_dropShadow" result="shape"/>
</filter>
<filter id="filter6_d" x="451.65" y="38.2552" width="397.344" height="478.035" filterUnits="userSpaceOnUse" color-interpolation-filters="sRGB">
<feFlood flood-opacity="0" result="BackgroundImageFix"/>
<feColorMatrix in="SourceAlpha" type="matrix" values="0 0 0 0 0 0 0 0 0 0 0 0 0 0 0 0 0 0 127 0"/>
<feOffset dx="2" dy="4"/>
<feGaussianBlur stdDeviation="2"/>
<feColorMatrix type="matrix" values="0 0 0 0 0 0 0 0 0 0 0 0 0 0 0 0 0 0 0.25 0"/>
<feBlend mode="normal" in2="BackgroundImageFix" result="effect1_dropShadow"/>
<feBlend mode="normal" in="SourceGraphic" in2="effect1_dropShadow" result="shape"/>
</filter>
<filter id="filter7_d" x="451.65" y="28.1094" width="367.69" height="488.181" filterUnits="userSpaceOnUse" color-interpolation-filters="sRGB">
<feFlood flood-opacity="0" result="BackgroundImageFix"/>
<feColorMatrix in="SourceAlpha" type="matrix" values="0 0 0 0 0 0 0 0 0 0 0 0 0 0 0 0 0 0 127 0"/>
<feOffset dx="2" dy="4"/>
<feGaussianBlur stdDeviation="2"/>
<feColorMatrix type="matrix" values="0 0 0 0 0 0 0 0 0 0 0 0 0 0 0 0 0 0 0.25 0"/>
<feBlend mode="normal" in2="BackgroundImageFix" result="effect1_dropShadow"/>
<feBlend mode="normal" in="SourceGraphic" in2="effect1_dropShadow" result="shape"/>
</filter>
<filter id="filter8_d" x="443.01" y="82.2666" width="21" height="440.233" filterUnits="userSpaceOnUse" color-interpolation-filters="sRGB">
<feFlood flood-opacity="0" result="BackgroundImageFix"/>
<feColorMatrix in="SourceAlpha" type="matrix" values="0 0 0 0 0 0 0 0 0 0 0 0 0 0 0 0 0 0 127 0"/>
<feOffset dy="4"/>
<feGaussianBlur stdDeviation="5"/>
<feColorMatrix type="matrix" values="0 0 0 0 0 0 0 0 0 0 0 0 0 0 0 0 0 0 0.25 0"/>
<feBlend mode="normal" in2="BackgroundImageFix" result="effect1_dropShadow"/>
<feBlend mode="normal" in="SourceGraphic" in2="effect1_dropShadow" result="shape"/>
</filter>
</defs>
</svg>
