<?xml version="1.0" encoding="utf-8"?>
<!-- Generator: Adobe Illustrator 22.1.0, SVG Export Plug-In . SVG Version: 6.00 Build 0)  -->
<svg version="1.1" id="Warstwa_1" xmlns="http://www.w3.org/2000/svg" xmlns:xlink="http://www.w3.org/1999/xlink" x="0px" y="0px"
	 viewBox="0 0 841.9 595.3" style="enable-background:new 0 0 841.9 595.3;" xml:space="preserve">
<style type="text/css">
	.st0{fill:#FFFFFF;}
	.st1{fill:#EFEEEE;}
	.st2{fill:#EF9001;}
	.st3{fill:#FEF7BE;stroke:#DFDBC6;stroke-width:0.6737;stroke-miterlimit:10;}
	.st4{fill:#FEF7BE;stroke:#DFDBC6;stroke-width:0.3771;stroke-miterlimit:10;}
	.st5{fill:#535252;}
	.st6{fill:#EAA03A;}
	.st7{fill:#FEF7BE;stroke:#DFDBC6;stroke-width:0.3854;stroke-miterlimit:10;}
	.st8{fill:none;stroke:#535252;stroke-width:0.7722;stroke-miterlimit:10;}
</style>
<rect x="66.2" y="61.3" class="st0" width="679.4" height="472.6"/>
<polygon class="st1" points="745.7,365.1 66.2,533.9 66.2,218.3 745.7,61.3 "/>
<polygon class="st2" points="419.9,404.5 228.7,370 228.7,150.2 419.9,182.4 "/>
<polygon class="st2" points="419.9,404.5 610.7,370 610.7,150.2 419.9,182.4 "/>
<polygon class="st3" points="419.9,404.5 242.5,362.5 245.7,144.2 419.9,182.4 "/>
<polygon class="st3" points="419.9,404.5 592.6,362.5 589.5,144.2 419.9,182.4 "/>
<polygon class="st3" points="422.2,404.5 253.6,358.7 254.3,137.9 422.2,182.4 "/>
<polygon class="st3" points="422.2,404.5 582.3,358.2 579.5,137.9 422.2,182.4 "/>
<polygon class="st3" points="422.2,404.5 263.9,355.9 267.6,132.8 422.2,182.4 "/>
<polygon class="st3" points="422.2,404.5 573.8,352.5 572.3,132.8 422.2,182.4 "/>
<ellipse class="st4" cx="240.1" cy="453.8" rx="30.2" ry="24.5"/>
<ellipse class="st4" cx="469.7" cy="453.8" rx="30.2" ry="24.5"/>
<g>
	<g>
		<g>
			<path class="st5" d="M478.8,199.2l0-0.5l4.5,0l0,0.5l-2.1,0.2h-0.3L478.8,199.2z M481.1,206.8l0,0.7l-2.2,0l0-0.5l2.1-0.2H481.1z
				 M480.3,198.7l1.5,0c0,1.3,0,2.7,0,4.1l0,0.9c0,1.1,0,2.5,0.1,3.8l-1.5,0c0-1.3,0-2.7,0-4.1l0-0.7
				C480.4,201.4,480.3,200,480.3,198.7z M487,205l-0.1,2.5l-5.7,0l0-0.7l5.2,0l-0.9,0.7l0.6-2.5L487,205z"/>
			<path class="st5" d="M495.1,203.6c0,0.3,0,0.6-0.1,0.7l-5.9,0l0-0.5l3.8,0c0.8,0,0.9-0.3,0.9-0.7c0-0.7-0.8-1.4-1.8-1.4
				c-1,0-2.2,0.7-2.2,2.6c0,1.7,1,2.6,2.6,2.5c1,0,1.7-0.4,2.2-0.9l0.4,0.2c-0.6,0.9-1.6,1.5-3.1,1.5c-2.2,0-3.6-1.2-3.6-3.2
				c0-2,1.7-3.3,3.6-3.3C493.8,201.1,495.1,202,495.1,203.6z"/>
			<path class="st5" d="M497.7,207.5c0-0.6,0-1.9,0-2.7l0-0.6c0-0.7,0-1.1-0.1-1.6l-1.3-0.1l0-0.5l2.2-0.8l0.2,0.1l0.2,1.5l0,2
				c0,0.8,0,2.2,0.1,2.7L497.7,207.5z M500.3,207l0,0.5l-3.7,0l0-0.5l1.8-0.3h0.3L500.3,207z M503.9,203.5l0,1.2
				c0,0.8,0,2.2,0.1,2.7l-1.4,0c0-0.6,0-1.9,0-2.7l0-1.1c0-1.2-0.4-1.6-1.4-1.6c-0.8,0-1.5,0.3-2.4,0.9l-0.3,0l0-0.6l0.8,0l-0.7,0.2
				c0.8-0.8,2-1.5,3.2-1.5C503.3,201.1,503.9,201.8,503.9,203.5z M503.5,206.8l1.6,0.3l0,0.5l-3.7,0l0-0.5l1.8-0.3L503.5,206.8z"/>
			<path class="st5" d="M510,206.9c0.8,0,1.4-0.3,2.1-1.1l0.1,0.4c-0.6,0.9-1.4,1.4-2.6,1.4c-2,0-3.3-1.3-3.3-3.2
				c0-2,1.4-3.3,3.4-3.3c0.9,0,1.7,0.3,2.5,1.3l-0.2,0.3c-0.9-0.7-1.6-0.9-2.2-0.9c-1.2,0-2.2,0.8-2.2,2.6
				C507.7,206.1,508.7,206.9,510,206.9z M514.5,207l0,0.5l-2.5,0.1l-0.2-1.3l0-3.8l0-0.2l0-3.3l-1.4-0.1l0-0.5l2.5-0.6l0.2,0.1
				l-0.1,1.9l0,7.7l-0.3-0.7L514.5,207z"/>
		</g>
	</g>
</g>
<path class="st6" d="M655.2,487.8H190.8c-8.1,0-14.8-6.6-14.8-14.8v-37.3c0-8.1,6.6-14.8,14.8-14.8h464.4c8.1,0,14.8,6.6,14.8,14.8
	v37.3C670,481.2,663.4,487.8,655.2,487.8z"/>
<rect x="257.3" y="430.6" class="st7" width="156" height="47.7"/>
<rect x="498.7" y="430.6" class="st7" width="160.1" height="47.7"/>
<g>
	<g>
		<g>
			<path class="st5" d="M313,207l0,0.7l-2.2,0l0-0.5l2.1-0.2L313,207z M310.9,199.4l0-0.5l2.2,0l0,0.7l-0.2,0L310.9,199.4z
				 M312.4,203c0-1.3,0.1-2.7,0-4.1l1.5,0c-0.1,1.3-0.1,2.7-0.1,4.1l0,0.5c0,1.5-0.1,2.9,0,4.3l-1.5,0c0.1-1.3,0.1-2.7,0.1-4.1
				L312.4,203z M313.1,202.9l1.6,0c2,0,2.8-0.5,2.9-1.7c0-1.2-0.8-1.6-2.5-1.7l-1.9,0l0-0.6l2.4,0c2.2,0,3.5,0.9,3.4,2.2
				c0,1-0.9,1.9-3,2.1l0-0.1c2.5,0.2,3.5,1.1,3.5,2.3c0,1.2-1.3,2.4-4.3,2.3l-2.2,0l0-0.6l1.8,0c2.1,0,3.1-0.6,3.1-1.8
				c0-1.2-0.9-1.8-3.2-1.9l-1.6,0L313.1,202.9z"/>
			<path class="st5" d="M320.9,204.7c0-2.2,1.9-3.3,3.7-3.2c1.8,0,3.6,1.2,3.6,3.3c0,2.2-1.9,3.2-3.7,3.2
				C322.7,208,320.9,206.9,320.9,204.7z M326.8,204.8c0-1.8-0.8-2.7-2.2-2.7c-1.4,0-2.2,0.9-2.3,2.7c0,1.8,0.7,2.7,2.2,2.7
				C325.9,207.5,326.8,206.6,326.8,204.8z"/>
			<path class="st5" d="M330.9,205.2l0-0.6c0-0.7,0-1.1,0-1.6l-1.3-0.1l0-0.5l2.2-0.8l0.2,0.1l0.2,1.6l0,1.9c0,0.8,0,2.2,0,2.8
				l-1.4,0C330.8,207.4,330.9,206,330.9,205.2z M329.6,207.5l1.8-0.2l0.3,0l1.8,0.3l0,0.5l-3.9-0.1L329.6,207.5z M331.6,203.4l0.9,0
				l-0.4,0.1c0.5-1.2,1.5-1.9,2.5-1.9c0.5,0,0.9,0.2,1.1,0.5c0,0.6-0.3,1-1,0.9c-0.4,0-0.7-0.1-1-0.3l-0.4-0.3l0.8-0.1
				c-1,0.4-1.6,1.1-2,2.1l-0.6,0L331.6,203.4z"/>
			<path class="st5" d="M337.6,205.3l0-0.6c0-0.7,0-1.1,0-1.6l-1.3-0.1l0-0.5l2.2-0.8l0.2,0.1l0.2,1.6l0,1.9c0,0.8,0,2.2,0,2.8
				l-1.4,0C337.6,207.4,337.6,206.1,337.6,205.3z M336.4,207.6l1.8-0.2l0.3,0l1.8,0.3l0,0.5l-3.9-0.1L336.4,207.6z M338.3,203.5
				l0.9,0l-0.4,0.1c0.5-1.2,1.5-1.9,2.5-1.9c0.5,0,0.9,0.2,1.1,0.5c0,0.6-0.3,1-1,0.9c-0.4,0-0.7-0.1-1-0.3l-0.4-0.3l0.8-0.1
				c-1,0.4-1.6,1.1-2,2.1l-0.6,0L338.3,203.5z"/>
			<path class="st5" d="M343.2,205c0-2.2,1.9-3.3,3.7-3.2c1.8,0,3.6,1.2,3.6,3.3c0,2.2-1.9,3.2-3.7,3.2
				C345,208.3,343.2,207.2,343.2,205z M349.1,205.1c0-1.8-0.8-2.7-2.2-2.7c-1.4,0-2.2,0.9-2.3,2.7c0,1.8,0.7,2.7,2.2,2.7
				C348.2,207.8,349.1,206.9,349.1,205.1z"/>
			<path class="st5" d="M352.9,202.8l-1.6-0.2l0-0.5l3.6,0l0,0.5l-1.7,0.2L352.9,202.8z M358,202.1l2.3,5.2l-0.4,0l2-5.1l0.9,0
				l-2.7,6.2l-0.6,0c-1.5-3.3-1.9-4.3-2.3-5.4l0.6,0l-2.5,5.3l-0.6,0L352,202l1.4,0l2,5.1l-0.4,0l2.4-5.1L358,202.1z M356,202.6
				l0-0.5l3.5,0l0,0.5l-1.5,0.2l-0.3,0L356,202.6z M362,202.9l-1.5-0.2l0-0.5l2.9,0l0,0.5l-1.1,0.2L362,202.9z"/>
		</g>
	</g>
</g>
<g>
	<g>
	</g>
</g>
<line class="st8" x1="306" y1="213.6" x2="367.7" y2="213.6"/>
<line class="st8" x1="474.7" y1="213.9" x2="520.7" y2="214"/>
</svg>
