<?xml version="1.0" encoding="utf-8"?>
<!-- Generator: Adobe Illustrator 22.1.0, SVG Export Plug-In . SVG Version: 6.00 Build 0)  -->
<svg version="1.1" id="Warstwa_1" xmlns="http://www.w3.org/2000/svg" xmlns:xlink="http://www.w3.org/1999/xlink" x="0px" y="0px"
	 viewBox="0 0 841.9 595.3" style="enable-background:new 0 0 841.9 595.3;" xml:space="preserve">
<style type="text/css">
	.st0{fill:#FFFFFF;}
	.st1{fill:#999999;}
	.st2{font-family:'MyriadPro-Regular';}
	.st3{font-size:15.9233px;}
	.st4{fill:#FEF7BE;}
</style>
<g>
	<g>
		<g>
			<path class="st0" d="M665,68l-0.1-1.5h0.9l0.5,1.6l-0.8-0.3v-0.5c0.6,0.4,1.2,0.6,2.1,0.6c1.3,0,1.9-0.4,1.9-1
				c0-0.6-0.5-0.9-1.6-1.2l-0.8-0.2c-1.2-0.4-2-0.9-2-1.8c0-1,1-1.9,2.9-1.9c0.9,0,1.6,0.2,2.3,0.6l-0.1,1.4h-0.8l-0.3-1.4l0.6,0.2
				v0.3c-0.5-0.3-1.1-0.5-1.7-0.5c-1,0-1.6,0.4-1.6,0.9c0,0.6,0.4,0.8,1.6,1.2l0.5,0.1c1.7,0.5,2.3,1.1,2.3,2c0,1-1.1,1.9-3.2,1.9
				C666.6,68.5,665.9,68.4,665,68z"/>
			<path class="st0" d="M673.3,68.4c0-0.6,0.1-2,0.1-2.8v-0.6c0-0.7,0-1.2-0.1-1.7l-1.4-0.1v-0.5l2.5-0.8l0.3,0.1l-0.1,1.8v1.8
				c0,0.8,0,2.2,0.1,2.8H673.3z M675.9,67.9v0.5H672v-0.5l1.9-0.3h0.3L675.9,67.9z M672.9,59.5c0-0.5,0.5-0.8,1.1-0.8
				c0.6,0,1.1,0.3,1.1,0.8c0,0.5-0.5,0.8-1.1,0.8C673.4,60.3,672.9,60,672.9,59.5z"/>
			<path class="st0" d="M683.5,69.6c0-0.6-0.5-1.1-1.7-1.1h-2c-0.3,0-0.6,0-0.8,0v0c-0.9-0.1-1.3-0.5-1.3-1.1c0-0.5,0.4-1,1.5-1.8
				l0.4,0.2c-0.5,0.4-0.7,0.7-0.7,1.1c0,0.4,0.2,0.6,1,0.6h2.2c1.8,0,2.7,0.6,2.7,1.7c0,1.2-1.4,2.3-4.1,2.3c-2.4,0-3.5-0.7-3.5-1.6
				c0-0.7,0.5-1.2,2.2-1.7l0.1,0.1c-0.7,0.5-0.9,0.9-0.9,1.5c0,0.9,0.9,1.2,2.2,1.2C682.5,71,683.5,70.4,683.5,69.6z M680.5,61.8
				c1.7,0,3,0.7,3,2.2c0,1.4-1.3,2.2-3,2.2c-1.7,0-3-0.7-3-2.2C677.5,62.6,678.8,61.8,680.5,61.8z M678.8,64c0,1,0.6,1.7,1.6,1.7
				c1.1,0,1.8-0.7,1.8-1.7c0-1-0.6-1.6-1.7-1.6C679.4,62.4,678.8,63.1,678.8,64z M684.5,61.8l0.3,0.1v0.8h-2.5v-0.4L684.5,61.8z"/>
			<path class="st0" d="M687.1,68.4c0-0.6,0.1-2,0.1-2.8v-0.6c0-0.7,0-1.2-0.1-1.7l-1.3-0.1v-0.5l2.3-0.8l0.3,0.1l0.2,1.6v2
				c0,0.8,0,2.2,0.1,2.8H687.1z M689.7,67.9v0.5h-3.9v-0.5l1.9-0.3h0.3L689.7,67.9z M693.6,64.3v1.2c0,0.9,0,2.2,0,2.8h-1.4
				c0-0.6,0.1-2,0.1-2.8v-1.1c0-1.2-0.4-1.7-1.4-1.7c-0.8,0-1.5,0.3-2.5,0.9H688v-0.6h0.9l-0.7,0.2c0.8-0.8,2.1-1.5,3.3-1.5
				C692.9,61.8,693.6,62.5,693.6,64.3z M693.1,67.6l1.7,0.3v0.5H691v-0.5l1.9-0.3H693.1z"/>
			<path class="st0" d="M702.2,66c0,1.2,0.4,1.6,1.4,1.6c0.9,0,1.7-0.3,2.6-1h0.4v0.7h-0.9l0.6-0.2c-1,1-2.1,1.5-3.2,1.5
				c-1.3,0-2.2-0.6-2.2-2.4l0.1-3.5l0.4,0.3l-1.6-0.3v-0.5l2.4-0.2l0.2,0.1l-0.1,1.9V66z M706.2,68.5l-0.2-1.6l0.1-4.3l0.4,0.3
				l-1.6-0.3v-0.5l2.4-0.2l0.2,0.1l-0.1,1.9v4l-0.4-0.3l1.6,0.3v0.5L706.2,68.5z"/>
			<path class="st0" d="M714,71.1v0.5h-4.3v-0.5l1.9-0.3h0.3L714,71.1z M711.1,64.9c0-0.7,0-1.2-0.1-1.7l-1.3-0.1v-0.5l2.3-0.8
				l0.3,0.1l0.1,1.1l0.1,0v4.2l-0.1,0.1v1.3c0,0.9,0,1.9,0.1,2.8H711c0-0.9,0.1-1.9,0.1-2.8V64.9z M714.5,62.6
				c-0.6,0-1.5,0.2-2.7,1.2l-0.2-0.2c1-1.2,2.1-1.7,3.2-1.7c1.8,0,3.2,1.3,3.2,3.3c0,2.1-1.5,3.4-3.5,3.4c-1,0-2.1-0.4-3-1.8
				l0.2-0.2c0.9,0.9,1.7,1.2,2.5,1.2c1.3,0,2.3-0.8,2.3-2.5S715.8,62.6,714.5,62.6z"/>
		</g>
	</g>
</g>
<g>
	<g>
		<g>
			<path class="st0" d="M607.1,59.2l0.2,0.1l-0.1,1.9v5.1c0,0.9,0,1.9,0.1,2.8h-1.4c0-0.9,0-1.9,0-2.8v-5.9l-1.4-0.1v-0.5
				L607.1,59.2z M608.7,68.7v0.5h-4.1v-0.5l1.9-0.3h0.3L608.7,68.7z"/>
			<path class="st0" d="M609.9,66c0-2.2,1.9-3.4,3.8-3.4c1.9,0,3.8,1.2,3.8,3.4c0,2.2-1.9,3.3-3.8,3.3
				C611.8,69.3,609.9,68.2,609.9,66z M616.1,66c0-1.8-0.9-2.8-2.3-2.8c-1.5,0-2.3,1-2.3,2.8c0,1.8,0.8,2.7,2.3,2.7
				C615.2,68.7,616.1,67.8,616.1,66z"/>
			<path class="st0" d="M625.3,70.4c0-0.6-0.5-1.1-1.7-1.1h-2c-0.3,0-0.6,0-0.8,0v0c-0.9-0.1-1.3-0.5-1.3-1.1c0-0.5,0.4-1,1.5-1.8
				l0.4,0.2c-0.5,0.4-0.7,0.7-0.7,1.1c0,0.4,0.2,0.6,1,0.6h2.2c1.8,0,2.7,0.6,2.7,1.7c0,1.2-1.4,2.3-4.1,2.3c-2.4,0-3.5-0.7-3.5-1.6
				c0-0.7,0.5-1.2,2.2-1.7l0.1,0.1c-0.7,0.5-0.9,0.9-0.9,1.5c0,0.9,0.9,1.2,2.2,1.2C624.4,71.7,625.3,71.1,625.3,70.4z M622.4,62.6
				c1.7,0,3,0.7,3,2.2c0,1.4-1.3,2.2-3,2.2c-1.7,0-3-0.7-3-2.2C619.4,63.4,620.7,62.6,622.4,62.6z M620.7,64.8c0,1,0.6,1.7,1.6,1.7
				c1.1,0,1.8-0.7,1.8-1.7c0-1-0.6-1.6-1.7-1.6C621.3,63.1,620.7,63.8,620.7,64.8z M626.4,62.6l0.3,0.1v0.8h-2.5v-0.4L626.4,62.6z"
				/>
			<path class="st0" d="M632.8,69.1c0-0.6,0.1-2,0.1-2.8v-0.6c0-0.7,0-1.2-0.1-1.7l-1.4-0.1v-0.5l2.5-0.8l0.3,0.1l-0.1,1.8v1.8
				c0,0.8,0,2.2,0.1,2.8H632.8z M635.4,68.7v0.5h-3.9v-0.5l1.9-0.3h0.3L635.4,68.7z M632.4,60.2c0-0.5,0.5-0.8,1.1-0.8
				c0.6,0,1.1,0.3,1.1,0.8c0,0.5-0.5,0.8-1.1,0.8C632.9,61.1,632.4,60.7,632.4,60.2z"/>
			<path class="st0" d="M637.9,69.1c0-0.6,0.1-2,0.1-2.8v-0.6c0-0.7,0-1.2-0.1-1.7l-1.3-0.1v-0.5l2.3-0.8l0.3,0.1l0.2,1.6v2
				c0,0.8,0,2.2,0.1,2.8H637.9z M640.5,68.7v0.5h-3.9v-0.5l1.9-0.3h0.3L640.5,68.7z M644.4,65.1v1.2c0,0.9,0,2.2,0,2.8H643
				c0-0.6,0.1-2,0.1-2.8v-1.1c0-1.2-0.4-1.7-1.4-1.7c-0.8,0-1.5,0.3-2.5,0.9h-0.4v-0.6h0.9l-0.7,0.2c0.8-0.8,2.1-1.5,3.3-1.5
				C643.7,62.6,644.4,63.3,644.4,65.1z M644,68.4l1.7,0.3v0.5h-3.9v-0.5l1.9-0.3H644z"/>
		</g>
	</g>
</g>
<text transform="matrix(0.8813 0 0 1 432.5616 420.4373)" class="st1 st2 st3">Done</text>
<path class="st4" d="M534.3,473.5H218.3c-16.7,0-30.2-13.5-30.2-30.2V105c0-16.7,13.5-30.2,30.2-30.2h315.9
	c16.7,0,30.2,13.5,30.2,30.2v338.4C564.5,460,551,473.5,534.3,473.5z"/>
<path class="st0" d="M525.2,173.1H223.1c-3.2,0-5.9-2.6-5.9-5.9v-31.5c0-3.2,2.6-5.9,5.9-5.9h302.2c3.2,0,5.9,2.6,5.9,5.9v31.5
	C531.1,170.4,528.4,173.1,525.2,173.1z"/>
<path class="st0" d="M529.7,285.5H227.2c-3.1,0-5.7-2.6-5.7-5.7v-30.4c0-3.1,2.6-5.7,5.7-5.7h302.5c3.1,0,5.7,2.6,5.7,5.7v30.4
	C535.4,283,532.8,285.5,529.7,285.5z"/>
<path class="st0" d="M528.6,232H226.4c-3.2,0-5.9-2.6-5.9-5.9v-31.5c0-3.2,2.6-5.9,5.9-5.9h302.2c3.2,0,5.9,2.6,5.9,5.9v31.5
	C534.5,229.3,531.8,232,528.6,232z"/>
<path class="st0" d="M530.5,339.7H228c-3.1,0-5.7-2.6-5.7-5.7v-30.4c0-3.1,2.6-5.7,5.7-5.7h302.5c3.1,0,5.7,2.6,5.7,5.7V334
	C536.2,337.2,533.7,339.7,530.5,339.7z"/>
</svg>
