<?xml version="1.0" encoding="utf-8"?>
<!-- Generator: Adobe Illustrator 22.1.0, SVG Export Plug-In . SVG Version: 6.00 Build 0)  -->
<svg version="1.1" id="Warstwa_1" xmlns="http://www.w3.org/2000/svg" xmlns:xlink="http://www.w3.org/1999/xlink" x="0px" y="0px"
	 viewBox="0 0 841.9 595.3" style="enable-background:new 0 0 841.9 595.3;" xml:space="preserve">
<style type="text/css">
	.st0{fill:#535252;}
	.st1{fill:none;stroke:#535252;stroke-width:0.7514;stroke-miterlimit:10;}
</style>
<g>
	<g>
		<g>
			<path class="st0" d="M318.3,297.3l0,0.7l-2.1,0l0-0.5l1.9-0.2L318.3,297.3z M316.3,289.6l0-0.5l2.1,0l0,0.7l-0.1,0L316.3,289.6z
				 M317.6,293.2c0-1.4,0-2.8,0-4.1l1.4,0c-0.1,1.3-0.1,2.7-0.1,4.1l0,0.5c0,1.5,0,2.9,0,4.3l-1.4,0c0.1-1.3,0.1-2.7,0.1-4.1
				L317.6,293.2z M324,295.7l-0.1,2.4l-5.6-0.1l0-0.7l5.1,0.1l-0.7,0.7l0.5-2.4L324,295.7z M321.7,293.8l-3.4,0l0-0.6l3.4,0
				L321.7,293.8z M322.5,289.1l0.7,0.7l-4.8-0.1l0-0.7l5.3,0.1l0.1,2.4l-0.8,0L322.5,289.1z M321.2,293.3l0.2-1.4l0.7,0l0,3.2
				l-0.7,0l-0.2-1.5L321.2,293.3z"/>
			<path class="st0" d="M326.3,297.4l1.4,0.2l0,0.5l-3,0l0-0.5l1.3-0.2L326.3,297.4z M326.4,292.5l-1.6-0.2l0-0.5l3.3,0l0,0.5
				l-1.4,0.2L326.4,292.5z M325,298.1l3.2-3.4l0.5,0.3l-2.8,3.1L325,298.1z M326.7,291.8l2.1,2.7l2.8,3.6l-1.4,0l-2.2-2.9l-2.6-3.5
				L326.7,291.8z M331.8,291.8l-3.2,3.3l-0.5-0.4l2.7-3L331.8,291.8z M330.5,297.4l1.6,0.3l0,0.5l-3.6,0l0-0.5l1.6-0.2L330.5,297.4z
				 M330.5,292.6l-1.2-0.2l0-0.5l2.8,0l0,0.5l-1.3,0.2L330.5,292.6z"/>
			<path class="st0" d="M336.6,301l0,0.5l-3.8,0l0-0.5l1.7-0.2l0.3,0L336.6,301z M334.2,294.8c0-0.7,0-1.1,0-1.7l-1.2-0.1l0-0.5
				l2-0.8l0.2,0.1l0.1,1.1l0.1,0l-0.1,4.2l0,0.1l0,1.3c0,0.9,0,1.9,0,2.8l-1.2,0c0-0.9,0.1-1.9,0.1-2.8L334.2,294.8z M337.2,292.5
				c-0.6,0-1.3,0.2-2.4,1.2l-0.1-0.2c0.9-1.2,1.9-1.7,2.9-1.6c1.6,0,2.8,1.3,2.8,3.3c0,2.1-1.4,3.3-3.1,3.3c-0.9,0-1.8-0.4-2.6-1.8
				l0.1-0.2c0.8,0.9,1.5,1.3,2.2,1.3c1.1,0,2.1-0.8,2.1-2.5C339.1,293.5,338.3,292.5,337.2,292.5z"/>
			<path class="st0" d="M345.1,297.8l0,0.5l-3.7,0l0-0.5l1.7-0.2l0.3,0L345.1,297.8z M343.8,288.4l0.2,0.1l-0.1,1.9l-0.1,5.1
				c0,0.9,0,1.9,0,2.8l-1.3,0c0-0.9,0.1-1.9,0.1-2.8l0.1-5.9l-1.2-0.1l0-0.5L343.8,288.4z"/>
			<path class="st0" d="M346.2,295.2c0-2.2,1.7-3.3,3.5-3.3c1.7,0,3.4,1.2,3.4,3.4c0,2.2-1.8,3.3-3.5,3.3
				C347.8,298.5,346.1,297.4,346.2,295.2z M351.6,295.3c0-1.8-0.7-2.8-2-2.8c-1.3,0-2.1,1-2.1,2.7c0,1.8,0.7,2.7,2,2.7
				C350.8,297.9,351.6,297,351.6,295.3z"/>
			<path class="st0" d="M355.4,295.6l0-0.6c0-0.7,0-1.1,0-1.7l-1.2-0.1l0-0.5l2-0.8l0.2,0.1l0.2,1.7l0,1.9c0,0.8,0,2.2,0,2.8l-1.3,0
				C355.4,297.8,355.4,296.5,355.4,295.6z M354.3,297.9l1.6-0.2l0.3,0l1.6,0.3l0,0.5l-3.6,0L354.3,297.9z M356,293.8l0.9,0l-0.4,0.1
				c0.5-1.2,1.4-2,2.3-2c0.4,0,0.9,0.2,1.1,0.5c0,0.6-0.3,1-0.9,1c-0.3,0-0.6-0.1-0.9-0.3l-0.4-0.3l0.7-0.1
				c-0.9,0.4-1.5,1.1-1.8,2.1l-0.6,0L356,293.8z"/>
			<path class="st0" d="M366.8,294.6c0,0.3-0.1,0.6-0.1,0.7l-5.5-0.1l0-0.6l3.6,0c0.7,0,0.9-0.3,0.9-0.7c0-0.8-0.7-1.5-1.6-1.5
				c-1,0-2.1,0.7-2.1,2.6c0,1.7,0.9,2.6,2.4,2.6c1,0,1.6-0.4,2.1-0.9l0.3,0.2c-0.6,0.9-1.5,1.5-2.9,1.5c-2,0-3.3-1.3-3.3-3.3
				c0-2,1.6-3.4,3.5-3.4C365.6,292,366.8,293,366.8,294.6z"/>
			<path class="st0" d="M374.4,298.1c0.3,0,0.6-0.1,1-0.4l0.3,0.4c-0.4,0.4-1,0.7-1.7,0.7c-1,0-1.7-0.5-1.7-1.5c0-0.3,0-0.6,0-1.1
				l0-3.2l-1.3,0l0-0.6l1.9-0.2l-0.6,0.4l0.5-2.2l0.9,0l-0.2,2.3l-0.1,4.3C373.6,297.8,373.9,298.1,374.4,298.1z M375.7,292.3l0,0.7
				l-2.7,0l0-0.7L375.7,292.3z"/>
			<path class="st0" d="M379.7,298.2l0,0.5l-3.4,0l0-0.5l1.6-0.2l0.3,0L379.7,298.2z M377.5,290l-1.2-0.1l0-0.5l2.2-0.6l0.2,0.1
				l-0.1,1.9l0,2.8l0,0.2l0,2.1c0,0.8,0,2.2,0,2.8l-1.3,0c0-0.6,0.1-2,0.1-2.8L377.5,290z M383.3,294.7l0,1.2c0,0.9,0,2.2,0,2.8
				l-1.3,0c0-0.6,0.1-1.9,0.1-2.8l0-1.1c0-1.2-0.3-1.6-1.2-1.7c-0.7,0-1.4,0.2-2.2,0.9l-0.3,0l0-0.6l0.8,0l-0.7,0.2
				c0.7-0.8,1.9-1.5,3-1.5C382.7,292.2,383.3,292.9,383.3,294.7z M382.8,298l1.5,0.3l0,0.5l-3.4,0l0-0.5l1.6-0.2L382.8,298z"/>
			<path class="st0" d="M391.7,294.9c0,0.3-0.1,0.6-0.1,0.7l-5.5-0.1l0-0.6l3.6,0c0.7,0,0.9-0.3,0.9-0.7c0-0.8-0.7-1.5-1.6-1.5
				c-1,0-2.1,0.7-2.1,2.6c0,1.7,0.9,2.6,2.4,2.6c1,0,1.6-0.4,2.1-0.9l0.3,0.2c-0.6,0.9-1.5,1.5-2.9,1.5c-2,0-3.3-1.3-3.3-3.3
				c0-2,1.6-3.4,3.5-3.4C390.5,292.3,391.7,293.3,391.7,294.9z"/>
			<path class="st0" d="M397.8,295.6c0,1.7,1,2.6,2.4,2.6c0.9,0,1.6-0.4,2.1-1l0.4,0.2c-0.4,1.1-1.4,1.7-2.8,1.7
				c-2,0-3.3-1.3-3.3-3.4c0-2.1,1.7-3.3,3.5-3.3c1.3,0,2.4,0.8,2.6,1.7c-0.1,0.3-0.3,0.5-0.7,0.5c-0.5,0-0.7-0.3-0.8-0.6l-0.4-1.2
				l0.7,0.5c-0.5-0.2-1-0.3-1.4-0.3C398.8,293,397.8,293.9,397.8,295.6z"/>
			<path class="st0" d="M406.3,295.5c0.6-0.2,1.6-0.4,2.3-0.5l0,0.5c-0.7,0.1-1.6,0.4-2,0.5c-1.4,0.5-1.5,1-1.5,1.3
				c0,0.7,0.5,1,1.2,1c0.5,0,0.8-0.2,1.8-0.8l0.3-0.2l0.2,0.3l-0.4,0.4c-0.9,0.8-1.4,1.2-2.3,1.1c-1.1,0-2-0.6-2-1.7
				C403.8,296.7,404.3,296.1,406.3,295.5z M408,297.8l0-3c0-1.3-0.4-1.6-1.4-1.6c-0.3,0-0.8,0-1.3,0.2l0.6-0.4l-0.4,1.1
				c-0.1,0.4-0.4,0.6-0.8,0.6s-0.6-0.2-0.7-0.5c0.3-1,1.4-1.6,2.9-1.6c1.5,0,2.3,0.7,2.3,2.3l0,2.8c0,0.6,0.2,0.8,0.5,0.8
				c0.3,0,0.4-0.1,0.6-0.3l0.3,0.3c-0.4,0.5-0.8,0.7-1.3,0.7C408.5,299.1,408,298.6,408,297.8z"/>
			<path class="st0" d="M414.1,298.6c0.3,0,0.6-0.1,1-0.4l0.3,0.4c-0.4,0.4-1,0.7-1.7,0.7c-1,0-1.7-0.5-1.7-1.5c0-0.3,0-0.6,0-1.1
				l0-3.2l-1.3,0l0-0.6l1.9-0.2l-0.6,0.4l0.5-2.2l0.9,0l-0.2,2.3l-0.1,4.3C413.3,298.3,413.6,298.6,414.1,298.6z M415.4,292.8l0,0.7
				l-2.7,0l0-0.7L415.4,292.8z"/>
			<path class="st0" d="M418.7,295.6c0.6-0.2,1.6-0.4,2.3-0.5l0,0.5c-0.7,0.1-1.6,0.4-2,0.5c-1.4,0.5-1.5,1-1.5,1.3
				c0,0.7,0.5,1,1.2,1c0.5,0,0.8-0.2,1.8-0.8l0.3-0.2l0.2,0.3l-0.4,0.4c-0.9,0.8-1.4,1.2-2.3,1.1c-1.1,0-2-0.6-2-1.7
				C416.2,296.9,416.7,296.3,418.7,295.6z M420.4,297.9l0-3c0-1.3-0.4-1.6-1.4-1.6c-0.3,0-0.8,0-1.3,0.2l0.6-0.4l-0.4,1.1
				c-0.1,0.4-0.4,0.6-0.8,0.6c-0.4,0-0.6-0.2-0.7-0.5c0.3-1,1.4-1.6,2.9-1.6c1.5,0,2.3,0.7,2.3,2.3l0,2.8c0,0.6,0.2,0.8,0.5,0.8
				c0.3,0,0.4-0.1,0.6-0.3l0.3,0.3c-0.4,0.5-0.8,0.7-1.3,0.7C420.9,299.3,420.4,298.7,420.4,297.9z"/>
			<path class="st0" d="M427.2,298.8l0,0.5l-3.7,0l0-0.5l1.7-0.2l0.3,0L427.2,298.8z M425.9,289.3l0.2,0.1l-0.1,1.9l-0.1,5.1
				c0,0.9,0,1.9,0,2.8l-1.3,0c0-0.9,0.1-1.9,0.1-2.8l0.1-5.9l-1.2-0.1l0-0.5L425.9,289.3z"/>
			<path class="st0" d="M428.3,296.1c0-2.2,1.7-3.3,3.5-3.3c1.7,0,3.4,1.2,3.4,3.4c0,2.2-1.8,3.3-3.5,3.3
				C429.9,299.4,428.2,298.3,428.3,296.1z M433.7,296.2c0-1.8-0.7-2.8-2-2.8c-1.3,0-2.1,1-2.1,2.7c0,1.8,0.7,2.7,2,2.7
				C432.9,298.9,433.7,297.9,433.7,296.2z"/>
			<path class="st0" d="M441.9,300.6c0-0.6-0.4-1.1-1.5-1.1l-1.8,0c-0.3,0-0.5,0-0.7,0l0,0c-0.8-0.2-1.1-0.5-1.1-1.1
				c0-0.5,0.4-1,1.4-1.7l0.3,0.2c-0.5,0.4-0.7,0.7-0.7,1.1c0,0.4,0.2,0.6,0.9,0.6l2,0c1.6,0,2.4,0.7,2.3,1.7c0,1.1-1.3,2.3-3.7,2.3
				c-2.2,0-3.1-0.7-3.1-1.7c0-0.7,0.5-1.1,2-1.7l0.1,0.1c-0.6,0.5-0.8,0.9-0.9,1.4c0,0.9,0.7,1.2,1.9,1.2
				C441,302,441.9,301.4,441.9,300.6z M439.4,292.9c1.5,0,2.6,0.8,2.6,2.2c0,1.4-1.2,2.2-2.7,2.2c-1.5,0-2.7-0.7-2.6-2.2
				C436.7,293.6,437.9,292.8,439.4,292.9z M437.8,295c0,1,0.5,1.6,1.4,1.7c1,0,1.6-0.7,1.6-1.7c0-0.9-0.5-1.6-1.5-1.6
				C438.5,293.4,437.9,294.1,437.8,295z M443,292.9l0.2,0.1l0,0.8l-2.2,0l0-0.4L443,292.9z"/>
			<path class="st0" d="M446.1,297.1c0,1.2,0.4,1.6,1.2,1.6c0.8,0,1.5-0.3,2.3-1l0.3,0l0,0.7l-0.8,0l0.5-0.2c-0.9,1-1.9,1.4-2.9,1.4
				c-1.2,0-1.9-0.7-1.9-2.4l0.1-3.5l0.3,0.3l-1.4-0.3l0-0.5l2.2-0.1l0.1,0.1l-0.1,1.9L446.1,297.1z M449.6,299.6l-0.2-1.6l0.1-4.3
				l0.3,0.3l-1.4-0.3l0-0.5l2.1-0.1l0.1,0.1l-0.1,1.9l-0.1,4l-0.4-0.3l1.4,0.3l0,0.5L449.6,299.6z"/>
			<path class="st0" d="M459,295.6c0,0.3-0.1,0.6-0.1,0.7l-5.5-0.1l0-0.6l3.6,0c0.7,0,0.9-0.3,0.9-0.7c0-0.8-0.7-1.5-1.6-1.5
				c-1,0-2.1,0.7-2.1,2.6c0,1.7,0.9,2.6,2.4,2.6c1,0,1.6-0.4,2.1-0.9l0.3,0.2c-0.6,0.9-1.5,1.5-2.9,1.5c-2,0-3.3-1.3-3.3-3.3
				c0-2,1.6-3.4,3.5-3.4C457.8,293.1,459.1,294,459,295.6z"/>
			<path class="st0" d="M463.9,296.5c0-2.2,1.7-3.3,3.5-3.3c1.7,0,3.4,1.2,3.4,3.4c0,2.2-1.8,3.3-3.5,3.3
				C465.6,299.8,463.9,298.7,463.9,296.5z M469.4,296.6c0-1.8-0.7-2.8-2-2.8c-1.3,0-2.1,1-2.1,2.7c0,1.8,0.7,2.7,2,2.7
				C468.6,299.3,469.4,298.3,469.4,296.6z"/>
			<path class="st0" d="M475.8,299.3l0,0.5l-3.8,0l0-0.5l1.7-0.2l0.3,0L475.8,299.3z M473.3,294.1l-1.3,0l0-0.6l1.7-0.2l-0.4,0.2
				c0.2-1.5,0.4-2.3,1.1-3c0.7-0.6,1.4-0.8,2.1-0.8c0.7,0,1.3,0.2,1.4,0.7c0,0.3-0.4,0.6-0.9,0.6c-0.4,0-0.7-0.1-1.1-0.4l-0.7-0.5
				l1.3-0.3l0.3,0.4c-0.2-0.1-0.4-0.2-0.6-0.2c-0.4,0-1,0.3-1.2,0.7c-0.4,0.5-0.6,1.4-0.5,3l0,3c0,0.9,0,1.9,0,2.8l-1.3,0
				c0-0.9,0.1-1.9,0.1-2.8L473.3,294.1z M476.5,293.4l0,0.7l-2.7,0l0-0.7L476.5,293.4z"/>
			<path class="st0" d="M480.6,299.3l1.6-0.2l-0.5,0.7c0-0.6,0.1-2,0.1-2.8l0.1-5.9l-1.2-0.1l0-0.5l2.2-0.6l0.2,0.1l-0.1,1.9l0,2.6
				l0,0.2l-0.1,4.1l-0.2,1.2l-2.2-0.2L480.6,299.3z M486.9,296.8c0-1.7-0.8-2.7-1.9-2.7c-0.5,0-1.3,0.2-2.4,1.2l-0.1-0.2
				c0.9-1.2,1.9-1.7,2.9-1.6c1.6,0,2.8,1.2,2.8,3.3c0,2.1-1.4,3.4-3.1,3.4c-0.9,0-1.8-0.4-2.6-1.8l0.1-0.2c0.8,0.9,1.6,1.2,2.3,1.3
				C485.9,299.3,486.8,298.5,486.9,296.8z"/>
			<path class="st0" d="M489.5,296.8c0-2.2,1.7-3.3,3.5-3.3c1.7,0,3.4,1.2,3.4,3.4c0,2.2-1.8,3.3-3.5,3.3
				C491.1,300.1,489.5,299,489.5,296.8z M495,296.8c0-1.8-0.7-2.8-2-2.8c-1.3,0-2.1,1-2.1,2.7c0,1.8,0.7,2.7,2,2.7
				C494.2,299.5,494.9,298.6,495,296.8z"/>
			<path class="st0" d="M497.7,296.9c0-2.2,1.7-3.3,3.5-3.3c1.7,0,3.4,1.2,3.4,3.4c0,2.2-1.8,3.3-3.5,3.3
				C499.3,300.2,497.7,299.1,497.7,296.9z M503.2,296.9c0-1.8-0.7-2.8-2-2.8c-1.3,0-2.1,1-2.1,2.7c0,1.8,0.7,2.7,2,2.7
				C502.4,299.6,503.1,298.7,503.2,296.9z"/>
			<path class="st0" d="M509.2,299.7l0,0.5l-3.7,0l0-0.5l1.7-0.2l0.3,0L509.2,299.7z M507.9,290.2l0.2,0.1l-0.1,1.9l-0.1,5.1
				c0,0.9,0,1.9,0,2.8l-1.3,0c0-0.9,0.1-1.9,0.1-2.8l0.1-5.9l-1.2-0.1l0-0.5L507.9,290.2z M512.3,293.8l-4.9,4.4l0-0.8l4-3.7
				L512.3,293.8z M511.6,299.4l1.6,0.3l0,0.5l-2,0l-2.4-3.6l0.8-0.8l2.9,4.1L511.6,299.4z M510.8,294.6l-1.4-0.3l0-0.5l3.5,0l0,0.5
				l-1.7,0.2L510.8,294.6z"/>
			<path class="st0" d="M514,299.8l0-1.5l0.8,0l0.4,1.6l-0.7-0.3l0-0.5c0.5,0.4,1.1,0.6,1.8,0.6c1.2,0,1.7-0.4,1.7-1
				c0-0.6-0.4-0.9-1.4-1.2l-0.7-0.2c-1.1-0.4-1.8-0.9-1.8-1.8c0-1,0.9-1.8,2.6-1.8c0.8,0,1.4,0.2,2.1,0.6l-0.1,1.3l-0.7,0l-0.3-1.4
				l0.5,0.2l0,0.3c-0.5-0.3-1-0.5-1.5-0.5c-0.9,0-1.4,0.3-1.4,0.9c0,0.6,0.4,0.8,1.4,1.2l0.4,0.2c1.5,0.5,2,1.1,2,2
				c0,1-1,1.9-2.9,1.9C515.4,300.4,514.8,300.2,514,299.8z"/>
		</g>
	</g>
</g>
<line class="st1" x1="315.6" y1="306.6" x2="518.5" y2="307.2"/>
</svg>
