<?xml version="1.0" encoding="utf-8"?>
<!-- Generator: Adobe Illustrator 22.1.0, SVG Export Plug-In . SVG Version: 6.00 Build 0)  -->
<svg version="1.1" id="Warstwa_1" xmlns="http://www.w3.org/2000/svg" xmlns:xlink="http://www.w3.org/1999/xlink" x="0px" y="0px"
	 viewBox="0 0 792 612" style="enable-background:new 0 0 792 612;" xml:space="preserve">
<style type="text/css">
	.st0{fill:#EFEEEE;}
	.st1{fill:#FEF7BE;}
	.st2{fill:#DBAC99;}
	.st3{fill:#D88500;}
	.st4{fill:#CA836B;}
	.st5{fill:#C1B171;}
	.st6{fill:#E94754;}
	.st7{fill:url(#SVGID_1_);}
	.st8{fill:url(#SVGID_2_);}
</style>
<rect x="-4.4" y="1" class="st0" width="795.6" height="611"/>
<rect x="53.3" class="st1" width="682.1" height="611"/>
<rect x="12.1" y="101.7" class="st0" width="764.4" height="509.3"/>
<path class="st0" d="M42.7,159.3"/>
<path class="st1" d="M15.4,604c10.7-21.4,21.4-42.9,32.1-64.3c114.7-2.2,229.3-4.4,344-6.5c-7,23.8-14.1,47.5-21.1,71.3
	C252,604.3,133.7,604.1,15.4,604z"/>
<path class="st2" d="M198.7,505.4c6.1,13.2,10.6,19.4,15,22.5c5.6,3.8,10.6,8.5,16.4,11.8c0.2,0.1,1.1,0.6,2,1.6
	c2,2.1,3.4,5.7,2.5,7.7c-1.7,4-12.6,1.8-13.3,1.7c-10.5-2.2-17.9-10-22.3-16c-4-8.1-8-16.3-12-24.4c-0.5-1-2.3-2.5-2.8-3.5
	C188.2,506.2,194.8,505.9,198.7,505.4z"/>
<polygon class="st3" points="205.4,504.1 215.5,489.7 261,484 248.1,500.2 "/>
<polygon class="st3" points="199,534.6 204.9,503.6 248.2,500.1 242.1,526 "/>
<path d="M171,526.8c-4.1,13.9-8.2,27.8-12.3,41.6c-4.3-0.1-14.1-1.1-23-8.4c-2.9-2.4-8.4-6.8-10.7-14.5c-0.7-2.2-1.5-6.4,1.2-19
	c1.3-6,3.5-14.2,7.4-23.9c-2.9-13.1,1.2-24.4,8.5-27.7c3.9-1.7,10.1-1.8,14.1,1.8c2.7,2.4,3.4,5.6,4.5,11.1
	c2.3,11.5,0.7,23,0.6,23.7c-0.8,5.5-1.8,7.9-0.2,10.5C163,525.5,167.4,526.5,171,526.8z"/>
<path class="st4" d="M234,550.2c-0.9-1.7-2.4-3.8-4.8-5.6c-1.1-0.8-2.1-1.3-2.6-1.5c-16-7.6-30-10.6-30-10.6
	c-7.9-1.7-18.9-4.5-32.8-9.6c-5.2,6.6-8,12.8-9.5,17.1c-2.4,6.6-5.4,15-2,23.5c1,2.5,2.3,4.4,3.3,5.6c1.8,0,4.7,0.1,8.2,0.2
	c20.8,0.7,34.9,1.6,52.2-0.1c12.2-1.2,16.6-2.7,18.6-6.7C236.8,558.5,235.3,553.4,234,550.2z"/>
<path d="M242.8,549.7c-4.1-0.6-8.2-1.1-12.3-1.7c-0.8-0.8-1.9-1.6-2.6-1.3c-1.5,0.5-0.5,5.4,0.3,8.3c1,3.2,3.4,8.7,5.7,8.6
	c1.1,0,0.9-1.2,2.6-2.4c2.3-1.6,5.3-1.3,9.2-0.9c4.1,0.4,5.4,1.2,5.9,0.7C252.2,560.3,251,557.8,242.8,549.7z"/>
<ellipse transform="matrix(0.4503 -0.8929 0.8929 0.4503 -350.6583 524.7905)" cx="250.9" cy="547.2" rx="11" ry="15"/>
<path d="M173.6,518.1c-0.6-1.8,3.3-5.1,6.5-6.9c3.2-1.8,4.8-1.7,11.8-3.2c8-1.8,12.1-2.7,15.3-4c2.8-1.1,5.2-2.4,8.7-2.1
	c2.3,0.2,5.6,1.1,5.8,2.5c0.2,1.4-2.7,2.9-4.8,3.4c-2.6,0.6-4.9-0.2-6-0.6c-3.4,1-7.1,2.3-11,3.9c-1.2,0.5-3.1,1.5-11.9,5.7
	c-2.4,1.2-4.1,2-6.7,2.4C178.9,519.5,174.2,519.8,173.6,518.1z"/>
<path class="st2" d="M188,516.8c6.1,13.2,10.6,19.4,15,22.5c5.6,3.8,10.6,8.5,16.4,11.8c0.2,0.1,1.1,0.6,2,1.6
	c2,2.1,3.4,5.7,2.5,7.7c-1.7,4-12.6,1.8-13.3,1.7c-10.5-2.2-17.9-10-22.3-16c-4-8.1-8-16.3-12-24.4c-0.5-1-2.3-2.5-2.8-3.5
	C177.5,517.6,184.1,517.3,188,516.8z"/>
<path d="M260.6,534.4c-2.1,1.6-5.4,4.6-7.9,9.3c-0.7,1.3-7.6,14.5-2.4,20.2c3.7,4,12,2.9,16.7-1.6c4.4-4.2,6.3-11.9,3.9-15.6
	c-1.3-2-4.7-4.4-5.1-4.6c-1.6-1.1-2.7-1.5-3.6-2.9C261,537.6,260.7,535.8,260.6,534.4z"/>
<path d="M101.3,539.5c12.9-19.5,19.4-31.2,22.9-38.7c0.2-0.5,2.5-5.3,6.7-10.7c4.8-6.2,8.9-11.5,14.5-11.4c5,0,9.1,4.3,11,8.5
	c3.1,7,0.1,13.9-0.3,14.7c-9.9,8.9-17.4,17.8-23,25.5c-9.7,13.5-14,23.9-20.5,23.8C107.9,551.2,104.1,545.8,101.3,539.5z"/>
<path d="M180.5,506.9c-0.6-1.8,3.3-5.1,6.5-6.9c3.2-1.8,4.8-1.7,11.8-3.2c8-1.8,12.1-2.7,15.3-4c2.8-1.1,5.2-2.4,8.7-2.1
	c2.3,0.2,5.6,1.1,5.8,2.5c0.2,1.4-2.7,2.9-4.8,3.4c-2.6,0.6-4.9-0.2-6-0.6c-3.4,1-7.1,2.3-11,3.9c-1.2,0.5-3.1,1.5-11.9,5.7
	c-2.4,1.2-4.1,2-6.7,2.4C185.8,508.4,181.1,508.6,180.5,506.9z"/>
<ellipse transform="matrix(0.3466 -0.938 0.938 0.3466 -354.771 601.4911)" cx="254.4" cy="555.4" rx="10.1" ry="14.7"/>
<path d="M87.1,535.1c13.9-18.6,21-30,24.9-37.2c0.3-0.5,2.8-5.2,7.3-10.3c5.1-5.9,9.5-10.8,14.9-10.3c4.8,0.5,8.6,5.3,10.1,9.7
	c2.6,7.5-0.9,14.2-1.3,15c-10.3,8.1-18.1,16.4-24.1,23.8c-10.4,12.8-15.2,23-21.5,22.3C92.7,547.6,89.4,541.7,87.1,535.1z"/>
<path class="st2" d="M124.6,536.4c-1.9,10.2-3.8,20.4-5.7,30.6c-14.1-2.2-28.2-4.3-42.3-6.5c-0.6-0.6-2.3-2.5-2.3-5.2
	c-0.1-4.7,4.8-7.6,5.7-8.1c3.1-1.9,6.2-1.7,7.6-1.4c3.5,0.2,7.1,0.4,10.6,0.5c1.2,0,2.9-0.2,4.6-1.3c3.2-2.1,5.1-6.4,5.1-11.1
	C113.4,534.7,119,535.5,124.6,536.4z"/>
<path d="M254.7,553.3c-1.6,2.4-6.5,10.3-4.5,18.6c3.2,13.5,21.2,16.3,25.9,17.1c4.4,0.7,19.9,3.2,28.4-7.5c0.9-1.1,5.9-7.3,5.2-16.1
	c-0.4-4.8-2.2-8.3-3.4-10.1c1.7,5.7,0,11.9-4,15.1c-6.1,4.9-14.9,0.9-17.4-4.1c-1.8-3.7,0.9-5.5-0.3-12.3c-1.6-8.8-7.8-14-8.8-14.8
	c-2.6-2.1-5.1-3.1-6.8-3.7c-1.6,4.2-3.1,8.3-4.7,12.5C261.2,549.8,257.9,551.5,254.7,553.3z"/>
<g>
	<g>
		<path d="M370.9,604.1c1.6-0.1,3.3-0.1,4.9-0.2c0.3,0,0.3-0.4,0-0.4c-1.6,0.1-3.3,0.1-4.9,0.2C370.7,603.7,370.7,604.1,370.9,604.1
			L370.9,604.1z"/>
	</g>
</g>
<g>
	<g>
		<path d="M370.8,600.4c2.7-0.1,5.3-0.2,8-0.3c0.3,0,0.3-0.4,0-0.4c-2.7,0.1-5.3,0.2-8,0.3C370.6,599.9,370.6,600.4,370.8,600.4
			L370.8,600.4z"/>
	</g>
</g>
<g>
	<g>
		<path d="M370.3,596.2c3.7-0.1,7.4-0.2,11-0.4c0.3,0,0.3-0.4,0-0.4c-3.7,0.1-7.4,0.2-11,0.4C370.1,595.8,370.1,596.2,370.3,596.2
			L370.3,596.2z"/>
	</g>
</g>
<g>
	<g>
		<path d="M373.3,591.2c3.9-0.1,7.8-0.5,11.7,0c0.3,0,0.4-0.4,0.1-0.4c-3.9-0.5-7.9-0.2-11.9,0C373,590.8,373,591.2,373.3,591.2
			L373.3,591.2z"/>
	</g>
</g>
<g>
	<g>
		<path d="M373.9,586.2c3.4-0.1,6.8-0.2,10.3-0.3c0.3,0,0.3-0.4,0-0.4c-3.4,0.1-6.8,0.2-10.3,0.3
			C373.6,585.8,373.6,586.2,373.9,586.2L373.9,586.2z"/>
	</g>
</g>
<path class="st2" d="M102.9,544.1c-3.3,9.7-6.6,19.4-9.9,29.1c-13.4-5.5-26.7-11-40.1-16.6c-0.5-0.8-1.9-3-1.5-5.7
	c0.6-4.7,5.8-6.4,6.7-6.7c3.3-1.1,6.2-0.2,7.6,0.4c3.4,1,6.8,2.1,10.2,3.1c1.1,0.3,2.8,0.5,4.7-0.2c3.4-1.3,5.9-5.1,6.5-9.9
	C92.3,539.7,97.6,541.9,102.9,544.1z"/>
<g>
	<g>
		<path d="M375.6,580.8c3.7-0.1,7.4-0.2,11-0.4c0.3,0,0.3-0.4,0-0.4c-3.7,0.1-7.4,0.2-11,0.4C375.4,580.4,375.4,580.8,375.6,580.8
			L375.6,580.8z"/>
	</g>
</g>
<g>
	<g>
		<path d="M378.2,575.3c4.6-0.1,9.1-0.3,13.7-0.4c0.3,0,0.3-0.4,0-0.4c-4.6,0.1-9.1,0.3-13.7,0.4
			C377.9,574.9,377.9,575.3,378.2,575.3L378.2,575.3z"/>
	</g>
</g>
<g>
	<g>
		<path d="M379.5,567.4c1.8-0.1,3.5-0.1,5.3-0.2c0.3,0,0.3-0.4,0-0.4c-1.8,0.1-3.5,0.1-5.3,0.2C379.2,567,379.2,567.4,379.5,567.4
			L379.5,567.4z"/>
	</g>
</g>
<g>
	<g>
		<path d="M380.8,561.6c2.3-0.1,4.6-0.1,6.8-0.2c0.3,0,0.3-0.4,0-0.4c-2.3,0.1-4.6,0.1-6.8,0.2C380.6,561.2,380.6,561.6,380.8,561.6
			L380.8,561.6z"/>
	</g>
</g>
<g>
	<g>
		<path d="M382.6,554.9c2.3-0.1,4.6-0.1,6.8-0.2c0.3,0,0.3-0.4,0-0.4c-2.3,0.1-4.6,0.1-6.8,0.2C382.3,554.5,382.3,554.9,382.6,554.9
			L382.6,554.9z"/>
	</g>
</g>
<g>
	<g>
		<path d="M385.1,550.7c2.2,0,4.4,0.1,6.5-0.6c0.3-0.1,0.1-0.5-0.1-0.4c-2.1,0.8-4.2,0.6-6.4,0.6
			C384.8,550.3,384.8,550.7,385.1,550.7L385.1,550.7z"/>
	</g>
</g>
<g>
	<g>
		<path d="M385.3,544.9c2.9-0.1,5.8-0.2,8.7-0.3c0.3,0,0.3-0.4,0-0.4c-2.9,0.1-5.8,0.2-8.7,0.3C385.1,544.5,385.1,544.9,385.3,544.9
			L385.3,544.9z"/>
	</g>
</g>
<g>
	<g>
		<path d="M387.1,542c2.9-0.1,5.8-0.2,8.7-0.3c0.3,0,0.3-0.4,0-0.4c-2.9,0.1-5.8,0.2-8.7,0.3C386.9,541.6,386.9,542,387.1,542
			L387.1,542z"/>
	</g>
</g>
<g>
	<g>
		<path d="M388.2,539c2.3-0.1,4.6-0.1,6.8-0.2c0.3,0,0.3-0.4,0-0.4c-2.3,0.1-4.6,0.1-6.8,0.2C387.9,538.6,387.9,539.1,388.2,539
			L388.2,539z"/>
	</g>
</g>
<g>
	<g>
		<path d="M389.3,536.5c2.4-0.1,4.8-0.2,7.2-0.2c0.3,0,0.3-0.4,0-0.4c-2.4,0.1-4.8,0.2-7.2,0.2C389,536.1,389,536.5,389.3,536.5
			L389.3,536.5z"/>
	</g>
</g>
<g>
	<g>
		<path d="M380.9,563.7c1.4,0,2.8-0.1,4.2-0.1c0.3,0,0.3-0.4,0-0.4c-1.4,0-2.8,0.1-4.2,0.1C380.6,563.3,380.6,563.7,380.9,563.7
			L380.9,563.7z"/>
	</g>
</g>
<g>
	<g>
		<path d="M382.6,557.4c2-0.1,4.1-0.1,6.1-0.2c0.3,0,0.3-0.4,0-0.4c-2,0.1-4.1,0.1-6.1,0.2C382.3,557,382.3,557.4,382.6,557.4
			L382.6,557.4z"/>
	</g>
</g>
<g>
	<g>
		<path d="M378.8,570.8c2.3-0.1,4.6-0.1,6.8-0.2c0.3,0,0.3-0.4,0-0.4c-2.3,0.1-4.6,0.1-6.8,0.2C378.5,570.3,378.5,570.8,378.8,570.8
			L378.8,570.8z"/>
	</g>
</g>
<g>
	<g>
		<path d="M376.3,577c3.7-0.1,7.4-0.2,11-0.4c0.3,0,0.3-0.4,0-0.4c-3.7,0.1-7.4,0.2-11,0.4C376,576.6,376,577,376.3,577L376.3,577z"
			/>
	</g>
</g>
<g>
	<g>
		<path d="M375.7,582.8c1.6-0.1,3.3-0.1,4.9-0.2c0.3,0,0.3-0.4,0-0.4c-1.6,0.1-3.3,0.1-4.9,0.2C375.4,582.4,375.4,582.8,375.7,582.8
			L375.7,582.8z"/>
	</g>
</g>
<g>
	<g>
		<path d="M47.9,541.2c-1.6,0.1-3.2,0.1-4.9,0.2c-0.3,0-0.3,0.4,0,0.4c1.6-0.1,3.2-0.1,4.9-0.2C48.2,541.6,48.2,541.2,47.9,541.2
			L47.9,541.2z"/>
	</g>
</g>
<g>
	<g>
		<path d="M47.1,544c-1.5,0-3.1,0.1-4.6,0.1c-0.3,0-0.3,0.4,0,0.4c1.5,0,3.1-0.1,4.6-0.1C47.4,544.4,47.4,543.9,47.1,544L47.1,544z"
			/>
	</g>
</g>
<g>
	<g>
		<path d="M45.5,547.2c-3,0.1-6.1,0.2-9.1,0.3c-0.3,0-0.3,0.4,0,0.4c3-0.1,6.1-0.2,9.1-0.3C45.8,547.6,45.8,547.2,45.5,547.2
			L45.5,547.2z"/>
	</g>
</g>
<g>
	<g>
		<path d="M43.9,549.6c-0.9,0.3-1.8,0.3-2.7,0.3c-0.3,0-0.3,0.4,0,0.4c0.9,0,1.9,0,2.8-0.3C44.2,549.9,44.1,549.5,43.9,549.6
			L43.9,549.6z"/>
	</g>
</g>
<g>
	<g>
		<path d="M36.8,553.2c1.7-0.1,3.4-0.1,5.1-0.2c0.3,0,0.3-0.4,0-0.4c-1.7,0.1-3.4,0.1-5.1,0.2C36.5,552.8,36.5,553.2,36.8,553.2
			L36.8,553.2z"/>
	</g>
</g>
<g>
	<g>
		<path d="M37.5,554.8c0.9,0,1.8-0.1,2.7-0.1c0.3,0,0.3-0.4,0-0.4c-0.9,0-1.8,0.1-2.7,0.1C37.2,554.4,37.2,554.8,37.5,554.8
			L37.5,554.8z"/>
	</g>
</g>
<g>
	<g>
		<path d="M34,556.7c2.5-0.1,4.9-0.2,7.4-0.2c0.3,0,0.3-0.4,0-0.4c-2.5,0.1-4.9,0.2-7.4,0.2C33.7,556.3,33.7,556.7,34,556.7
			L34,556.7z"/>
	</g>
</g>
<g>
	<g>
		<path d="M34.6,558.8c1.2,0,2.4-0.1,3.6-0.1c0.3,0,0.3-0.4,0-0.4c-1.2,0-2.4,0.1-3.6,0.1C34.4,558.4,34.4,558.8,34.6,558.8
			L34.6,558.8z"/>
	</g>
</g>
<g>
	<g>
		<path d="M32.7,559.5c2.7,0.9,5.6,0.2,8.3,1.1c0.3,0.1,0.4-0.3,0.1-0.4c-2.7-0.9-5.6-0.2-8.3-1.1C32.6,559,32.4,559.4,32.7,559.5
			L32.7,559.5z"/>
	</g>
</g>
<g>
	<g>
		<path d="M30.5,563.7c2.7-0.1,5.5-0.2,8.2-0.3c0.3,0,0.3-0.4,0-0.4c-2.7,0.1-5.5,0.2-8.2,0.3C30.3,563.3,30.3,563.7,30.5,563.7
			L30.5,563.7z"/>
	</g>
</g>
<g>
	<g>
		<path d="M33.5,561.8c1.8-0.1,3.5-0.1,5.3-0.2c0.3,0,0.3-0.4,0-0.4c-1.8,0.1-3.5,0.1-5.3,0.2C33.2,561.4,33.2,561.8,33.5,561.8
			L33.5,561.8z"/>
	</g>
</g>
<g>
	<g>
		<path d="M26,567.8c3.4-0.2,6.5,1.2,9.8,1.5c0.3,0,0.3-0.4,0-0.4c-3.3-0.3-6.4-1.8-9.8-1.5C25.7,567.4,25.7,567.8,26,567.8
			L26,567.8z"/>
	</g>
</g>
<g>
	<g>
		<path d="M30.8,566.7c2.2-0.1,4.4-0.1,6.5-0.2c0.3,0,0.3-0.4,0-0.4c-2.2,0.1-4.4,0.1-6.5,0.2C30.6,566.3,30.6,566.7,30.8,566.7
			L30.8,566.7z"/>
	</g>
</g>
<g>
	<g>
		<path d="M29.5,570.9c1.3,0,2.7-0.1,4-0.1c0.3,0,0.3-0.4,0-0.4c-1.3,0-2.7,0.1-4,0.1C29.2,570.5,29.2,570.9,29.5,570.9L29.5,570.9z
			"/>
	</g>
</g>
<g>
	<g>
		<path d="M28.5,572.7c1.3-0.1,2.5,0.2,3.7,0.8c0.2,0.1,0.5-0.2,0.2-0.4c-1.2-0.6-2.6-0.9-3.9-0.8C28.2,572.3,28.2,572.7,28.5,572.7
			L28.5,572.7z"/>
	</g>
</g>
<g>
	<g>
		<path d="M26,574.4c2.5-0.2,4.6,1.4,7,1.4c0.3,0,0.3-0.4,0-0.4c-2.4,0-4.5-1.6-7-1.4C25.7,574,25.7,574.4,26,574.4L26,574.4z"/>
	</g>
</g>
<g>
	<g>
		<path d="M27.1,576.4c1.3,0,2.5-0.1,3.8,0.1c0.3,0,0.4-0.4,0.1-0.4c-1.3-0.2-2.6-0.2-3.9-0.1C26.8,576,26.8,576.5,27.1,576.4
			L27.1,576.4z"/>
	</g>
</g>
<g>
	<g>
		<path d="M24.8,577.4c2.8-0.1,5.5,0.1,8.2,0.2c0.3,0,0.3-0.4,0-0.4c-2.7-0.1-5.5-0.3-8.2-0.2C24.5,577,24.5,577.4,24.8,577.4
			L24.8,577.4z"/>
	</g>
</g>
<g>
	<g>
		<path d="M14.7,594.7c4.1-0.2,8.2-1,12.2,0.1c0.3,0.1,0.4-0.3,0.1-0.4c-4-1.1-8.2-0.3-12.3-0.1C14.4,594.3,14.4,594.8,14.7,594.7
			L14.7,594.7z"/>
	</g>
</g>
<g>
	<g>
		<path d="M18.6,592.1c1.4-0.1,2.7,0.5,4,0.6c0.3,0,0.3-0.4,0-0.4c-1.4,0-2.7-0.6-4-0.6C18.4,591.7,18.4,592.1,18.6,592.1
			L18.6,592.1z"/>
	</g>
</g>
<g>
	<g>
		<path d="M19.9,590.4c1.5,0,3-0.1,4.4-0.1c0.3,0,0.3-0.4,0-0.4c-1.5,0-3,0.1-4.4,0.1C19.6,590,19.6,590.5,19.9,590.4L19.9,590.4z"
			/>
	</g>
</g>
<g>
	<g>
		<path d="M18.5,586.6c2-0.1,4.1,0.1,6.1,0c0.3,0,0.3-0.4,0-0.4c-2,0-4.1-0.1-6.1,0C18.2,586.2,18.2,586.6,18.5,586.6L18.5,586.6z"
			/>
	</g>
</g>
<g>
	<g>
		<path d="M22.2,584.6c1.3-0.1,2.7,0.2,4,0.1c0.3,0,0.3-0.4,0-0.4c-1.3,0.1-2.7-0.2-4-0.1C22,584.2,22,584.6,22.2,584.6L22.2,584.6z
			"/>
	</g>
</g>
<g>
	<g>
		<path d="M24.1,582.3c1.6-0.1,3.2-0.1,4.9-0.2c0.3,0,0.3-0.4,0-0.4c-1.6,0.1-3.2,0.1-4.9,0.2C23.8,581.9,23.8,582.3,24.1,582.3
			L24.1,582.3z"/>
	</g>
</g>
<g>
	<g>
		<path d="M25.3,579.9c1.4,0,2.8-0.1,4.2-0.1c0.3,0,0.3-0.4,0-0.4c-1.4,0-2.8,0.1-4.2,0.1C25,579.5,25,580,25.3,579.9L25.3,579.9z"
			/>
	</g>
</g>
<path class="st4" d="M107.5,528.6c1,1.5,4.3,5.8,10.5,6.6c3.8,0.5,7.2-0.6,9-1.3c-0.1,1.1-0.4,2.4-1.3,3.6
	c-3.4,4.5-11.4,1.6-12.5,1.2c-1.1-0.4-8.1-2.9-7.4-7.1C106,530.4,106.8,529.4,107.5,528.6z"/>
<path class="st4" d="M87.4,534.1c1,1.5,4.3,5.8,10.5,6.6c3.8,0.5,7.2-0.6,9-1.3c-0.1,1.1-0.4,2.4-1.3,3.6
	c-3.4,4.5-11.4,1.6-12.5,1.2c-1.1-0.4-8.1-2.9-7.4-7.1C85.8,535.9,86.6,534.8,87.4,534.1z"/>
<rect x="6.4" y="417.2" class="st0" width="422.1" height="190.5"/>
<rect x="-4.4" y="469.2" class="st5" width="795.6" height="142.8"/>
<path class="st1" d="M201.2,566c9.6-21.4,19.2-42.8,28.9-64.2c103.6-1.8,207.2-3.7,310.7-5.5c-6.3,23.7-12.6,47.5-18.9,71.2
	C415,567.1,308.1,566.5,201.2,566z"/>
<path class="st2" d="M384.6,467.4c6.1,13.2,10.6,19.4,15,22.5c5.6,3.8,10.6,8.5,16.4,11.8c0.2,0.1,1.1,0.6,2,1.6
	c2,2.1,3.4,5.7,2.5,7.7c-1.7,4-12.6,1.8-13.3,1.7c-10.5-2.2-17.9-10-22.3-16c-4-8.1-8-16.3-12-24.4c-0.5-1-2.3-2.5-2.8-3.5
	C374,468.2,380.7,467.9,384.6,467.4z"/>
<polygon class="st6" points="391.3,466.2 401.4,451.7 446.9,446 434,462.3 "/>
<polygon class="st6" points="384.9,496.7 390.8,465.7 434,462.1 428,488 "/>
<path d="M356.8,488.8c-4.1,13.9-8.2,27.8-12.3,41.6c-4.3-0.1-14.1-1.1-23-8.4c-2.9-2.4-8.4-6.8-10.7-14.5c-0.7-2.2-1.5-6.4,1.2-19
	c1.3-6,3.5-14.2,7.4-23.9c-2.9-13.1,1.2-24.4,8.5-27.7c3.9-1.7,10.1-1.8,14.1,1.8c2.7,2.4,3.4,5.6,4.5,11.1
	c2.3,11.5,0.7,23,0.6,23.7c-0.8,5.5-1.8,7.9-0.2,10.5C348.9,487.5,353.2,488.5,356.8,488.8z"/>
<path class="st4" d="M419.9,512.2c-0.9-1.7-2.4-3.8-4.8-5.6c-1.1-0.8-2.1-1.3-2.6-1.5c-16-7.6-30-10.6-30-10.6
	c-7.9-1.7-18.9-4.5-32.8-9.6c-5.2,6.6-8,12.8-9.5,17.1c-2.4,6.6-5.4,15-2,23.5c1,2.5,2.3,4.4,3.3,5.6c1.8,0,4.7,0.1,8.2,0.2
	c20.8,0.7,34.9,1.6,52.2-0.1c12.2-1.2,16.6-2.7,18.6-6.7C422.7,520.5,421.2,515.4,419.9,512.2z"/>
<path d="M428.7,511.8c-4.1-0.6-8.2-1.1-12.3-1.7c-0.8-0.8-1.9-1.6-2.6-1.3c-1.5,0.5-0.5,5.4,0.3,8.3c1,3.2,3.4,8.7,5.7,8.6
	c1.1,0,0.9-1.2,2.6-2.4c2.3-1.6,5.3-1.3,9.2-0.9c4.1,0.4,5.4,1.2,5.9,0.7C438.1,522.4,436.9,519.9,428.7,511.8z"/>
<ellipse transform="matrix(0.4503 -0.8929 0.8929 0.4503 -214.6064 669.8718)" cx="436.7" cy="509.2" rx="11" ry="15"/>
<path d="M359.4,480.1c-0.6-1.8,3.3-5.1,6.5-6.9c3.2-1.8,4.8-1.7,11.8-3.2c8-1.8,12.1-2.7,15.3-4c2.8-1.1,5.2-2.4,8.7-2.1
	c2.3,0.2,5.6,1.1,5.8,2.5c0.2,1.4-2.7,2.9-4.8,3.4c-2.6,0.6-4.9-0.2-6-0.6c-3.4,1-7.1,2.3-11,3.9c-1.2,0.5-3.1,1.5-11.9,5.7
	c-2.4,1.2-4.1,2-6.7,2.4C364.8,481.6,360.1,481.8,359.4,480.1z"/>
<path class="st2" d="M373.9,478.8c6.1,13.2,10.6,19.4,15,22.5c5.6,3.8,10.6,8.5,16.4,11.8c0.2,0.1,1.1,0.6,2,1.6
	c2,2.1,3.4,5.7,2.5,7.7c-1.7,4-12.6,1.8-13.3,1.7c-10.5-2.2-17.9-10-22.3-16c-4-8.1-8-16.3-12-24.4c-0.5-1-2.3-2.5-2.8-3.5
	C363.3,479.6,370,479.3,373.9,478.8z"/>
<path d="M446.5,496.5c-2.1,1.6-5.4,4.6-7.9,9.3c-0.7,1.3-7.6,14.5-2.4,20.2c3.7,4,12,2.9,16.7-1.6c4.4-4.2,6.3-11.9,3.9-15.6
	c-1.3-2-4.7-4.4-5.1-4.6c-1.6-1.1-2.7-1.5-3.6-2.9C446.9,499.6,446.5,497.8,446.5,496.5z"/>
<path d="M287.1,501.6c12.9-19.5,19.4-31.2,22.9-38.7c0.2-0.5,2.5-5.3,6.7-10.7c4.8-6.2,8.9-11.5,14.5-11.4c5,0,9.1,4.3,11,8.5
	c3.1,7,0.1,13.9-0.3,14.7c-9.9,8.9-17.4,17.8-23,25.5c-9.7,13.5-14,23.9-20.5,23.8C293.7,513.2,290,507.8,287.1,501.6z"/>
<path d="M366.3,468.9c-0.6-1.8,3.3-5.1,6.5-6.9c3.2-1.8,4.8-1.7,11.8-3.2c8-1.8,12.1-2.7,15.3-4c2.8-1.1,5.2-2.4,8.7-2.1
	c2.3,0.2,5.6,1.1,5.8,2.5c0.2,1.4-2.7,2.9-4.8,3.4c-2.6,0.6-4.9-0.2-6-0.6c-3.4,1-7.1,2.3-11,3.9c-1.2,0.5-3.1,1.5-11.9,5.7
	c-2.4,1.2-4.1,2-6.7,2.4C371.7,470.4,366.9,470.6,366.3,468.9z"/>
<ellipse transform="matrix(0.3466 -0.938 0.938 0.3466 -197.7314 751.0253)" cx="440.2" cy="517.4" rx="10.1" ry="14.7"/>
<path d="M272.9,497.1c13.9-18.6,21-30,24.9-37.2c0.3-0.5,2.8-5.2,7.3-10.3c5.1-5.9,9.5-10.8,14.9-10.3c4.8,0.5,8.6,5.3,10.1,9.7
	c2.6,7.5-0.9,14.2-1.3,15c-10.3,8.1-18.1,16.4-24.1,23.8c-10.4,12.8-15.2,23-21.5,22.3C278.5,509.7,275.3,503.8,272.9,497.1z"/>
<path class="st2" d="M310.4,498.4c-1.9,10.2-3.8,20.4-5.7,30.6c-14.1-2.2-28.2-4.3-42.3-6.5c-0.6-0.6-2.3-2.5-2.3-5.2
	c-0.1-4.7,4.8-7.6,5.7-8.1c3.1-1.9,6.2-1.7,7.6-1.4c3.5,0.2,7.1,0.4,10.6,0.5c1.2,0,2.9-0.2,4.6-1.3c3.2-2.1,5.1-6.4,5.1-11.1
	C299.2,496.7,304.8,497.6,310.4,498.4z"/>
<path d="M440.5,515.3c-1.6,2.4-6.5,10.3-4.5,18.6c3.2,13.5,21.2,16.3,25.9,17.1c4.4,0.7,19.9,3.2,28.4-7.5c0.9-1.1,5.9-7.3,5.2-16.1
	c-0.4-4.8-2.2-8.3-3.4-10.1c1.7,5.7,0,11.9-4,15.1c-6.1,4.9-14.9,0.9-17.4-4.1c-1.8-3.7,0.9-5.5-0.3-12.3c-1.6-8.8-7.8-14-8.8-14.8
	c-2.6-2.1-5.1-3.1-6.8-3.7c-1.6,4.2-3.1,8.3-4.7,12.5C447,511.8,443.8,513.6,440.5,515.3z"/>
<g>
	<g>
		<path d="M522.7,561.5c2.7-0.1,5.3-0.2,8-0.3c0.3,0,0.3-0.4,0-0.4c-2.7,0.1-5.3,0.2-8,0.3C522.5,561.1,522.5,561.5,522.7,561.5
			L522.7,561.5z"/>
	</g>
</g>
<g>
	<g>
		<path d="M522.2,557.4c3.7-0.1,7.4-0.2,11-0.4c0.3,0,0.3-0.4,0-0.4c-3.7,0.1-7.4,0.2-11,0.4C522,557,522,557.4,522.2,557.4
			L522.2,557.4z"/>
	</g>
</g>
<g>
	<g>
		<path d="M525.1,552.3c3.9-0.1,7.8-0.5,11.7,0c0.3,0,0.4-0.4,0.1-0.4c-3.9-0.5-7.9-0.2-11.9,0C524.9,551.9,524.9,552.3,525.1,552.3
			L525.1,552.3z"/>
	</g>
</g>
<g>
	<g>
		<path d="M525.8,547.4c3.4-0.1,6.8-0.2,10.3-0.3c0.3,0,0.3-0.4,0-0.4c-3.4,0.1-6.8,0.2-10.3,0.3
			C525.5,546.9,525.5,547.4,525.8,547.4L525.8,547.4z"/>
	</g>
</g>
<path class="st2" d="M288.8,506.1c-3.3,9.7-6.6,19.4-9.9,29.1c-13.4-5.5-26.7-11-40.1-16.6c-0.5-0.8-1.9-3-1.5-5.7
	c0.6-4.7,5.8-6.4,6.7-6.7c3.3-1.1,6.2-0.2,7.6,0.4c3.4,1,6.8,2.1,10.2,3.1c1.1,0.3,2.8,0.5,4.7-0.2c3.4-1.3,5.9-5.1,6.5-9.9
	C278.1,501.8,283.4,504,288.8,506.1z"/>
<g>
	<g>
		<path d="M527.5,541.9c3.7-0.1,7.4-0.2,11-0.4c0.3,0,0.3-0.4,0-0.4c-3.7,0.1-7.4,0.2-11,0.4C527.3,541.5,527.3,541.9,527.5,541.9
			L527.5,541.9z"/>
	</g>
</g>
<g>
	<g>
		<path d="M530,536.5c4.6-0.1,9.1-0.3,13.7-0.4c0.3,0,0.3-0.4,0-0.4c-4.6,0.1-9.1,0.3-13.7,0.4C529.8,536.1,529.8,536.5,530,536.5
			L530,536.5z"/>
	</g>
</g>
<g>
	<g>
		<path d="M531.3,528.6c1.8-0.1,3.5-0.1,5.3-0.2c0.3,0,0.3-0.4,0-0.4c-1.8,0.1-3.5,0.1-5.3,0.2C531.1,528.2,531.1,528.6,531.3,528.6
			L531.3,528.6z"/>
	</g>
</g>
<g>
	<g>
		<path d="M532.7,522.7c2.3-0.1,4.6-0.1,6.8-0.2c0.3,0,0.3-0.4,0-0.4c-2.3,0.1-4.6,0.1-6.8,0.2C532.4,522.3,532.4,522.8,532.7,522.7
			L532.7,522.7z"/>
	</g>
</g>
<g>
	<g>
		<path d="M534.4,516.1c2.3-0.1,4.6-0.1,6.8-0.2c0.3,0,0.3-0.4,0-0.4c-2.3,0.1-4.6,0.1-6.8,0.2C534.2,515.7,534.2,516.1,534.4,516.1
			L534.4,516.1z"/>
	</g>
</g>
<g>
	<g>
		<path d="M537,511.9c2.2,0,4.4,0.1,6.5-0.6c0.3-0.1,0.1-0.5-0.1-0.4c-2.1,0.8-4.2,0.6-6.4,0.6C536.7,511.5,536.7,511.9,537,511.9
			L537,511.9z"/>
	</g>
</g>
<g>
	<g>
		<path d="M537.2,506.1c2.9-0.1,5.8-0.2,8.7-0.3c0.3,0,0.3-0.4,0-0.4c-2.9,0.1-5.8,0.2-8.7,0.3C536.9,505.7,536.9,506.1,537.2,506.1
			L537.2,506.1z"/>
	</g>
</g>
<g>
	<g>
		<path d="M539,503.1c2.9-0.1,5.8-0.2,8.7-0.3c0.3,0,0.3-0.4,0-0.4c-2.9,0.1-5.8,0.2-8.7,0.3C538.8,502.7,538.8,503.1,539,503.1
			L539,503.1z"/>
	</g>
</g>
<g>
	<g>
		<path d="M540.1,500.2c2.3-0.1,4.6-0.1,6.8-0.2c0.3,0,0.3-0.4,0-0.4c-2.3,0.1-4.6,0.1-6.8,0.2C539.8,499.8,539.8,500.2,540.1,500.2
			L540.1,500.2z"/>
	</g>
</g>
<g>
	<g>
		<path d="M541.2,497.7c2.4-0.1,4.8-0.2,7.2-0.2c0.3,0,0.3-0.4,0-0.4c-2.4,0.1-4.8,0.2-7.2,0.2C540.9,497.3,540.9,497.7,541.2,497.7
			L541.2,497.7z"/>
	</g>
</g>
<g>
	<g>
		<path d="M532.8,524.8c1.4,0,2.8-0.1,4.2-0.1c0.3,0,0.3-0.4,0-0.4c-1.4,0-2.8,0.1-4.2,0.1C532.5,524.4,532.5,524.8,532.8,524.8
			L532.8,524.8z"/>
	</g>
</g>
<g>
	<g>
		<path d="M534.5,518.6c2-0.1,4.1-0.1,6.1-0.2c0.3,0,0.3-0.4,0-0.4c-2,0.1-4.1,0.1-6.1,0.2C534.2,518.1,534.2,518.6,534.5,518.6
			L534.5,518.6z"/>
	</g>
</g>
<g>
	<g>
		<path d="M530.7,531.9c2.3-0.1,4.6-0.1,6.8-0.2c0.3,0,0.3-0.4,0-0.4c-2.3,0.1-4.6,0.1-6.8,0.2C530.4,531.5,530.4,531.9,530.7,531.9
			L530.7,531.9z"/>
	</g>
</g>
<g>
	<g>
		<path d="M528.2,538.2c3.7-0.1,7.4-0.2,11-0.4c0.3,0,0.3-0.4,0-0.4c-3.7,0.1-7.4,0.2-11,0.4C527.9,537.8,527.9,538.2,528.2,538.2
			L528.2,538.2z"/>
	</g>
</g>
<g>
	<g>
		<path d="M527.6,544c1.6-0.1,3.3-0.1,4.9-0.2c0.3,0,0.3-0.4,0-0.4c-1.6,0.1-3.3,0.1-4.9,0.2C527.3,543.6,527.3,544,527.6,544
			L527.6,544z"/>
	</g>
</g>
<g>
	<g>
		<path d="M233.8,503.2c-1.6,0.1-3.2,0.1-4.9,0.2c-0.3,0-0.3,0.4,0,0.4c1.6-0.1,3.2-0.1,4.9-0.2C234,503.6,234,503.2,233.8,503.2
			L233.8,503.2z"/>
	</g>
</g>
<g>
	<g>
		<path d="M233,506c-1.5,0-3.1,0.1-4.6,0.1c-0.3,0-0.3,0.4,0,0.4c1.5,0,3.1-0.1,4.6-0.1C233.3,506.4,233.3,506,233,506L233,506z"/>
	</g>
</g>
<g>
	<g>
		<path d="M231.4,509.3c-3,0.1-6.1,0.2-9.1,0.3c-0.3,0-0.3,0.4,0,0.4c3-0.1,6.1-0.2,9.1-0.3C231.7,509.7,231.7,509.3,231.4,509.3
			L231.4,509.3z"/>
	</g>
</g>
<g>
	<g>
		<path d="M229.7,511.6c-0.9,0.3-1.8,0.3-2.7,0.3c-0.3,0-0.3,0.4,0,0.4c0.9,0,1.9,0,2.8-0.3C230.1,511.9,230,511.5,229.7,511.6
			L229.7,511.6z"/>
	</g>
</g>
<g>
	<g>
		<path d="M222.7,515.2c1.7-0.1,3.4-0.1,5.1-0.2c0.3,0,0.3-0.4,0-0.4c-1.7,0.1-3.4,0.1-5.1,0.2C222.4,514.8,222.4,515.2,222.7,515.2
			L222.7,515.2z"/>
	</g>
</g>
<g>
	<g>
		<path d="M223.3,516.8c0.9,0,1.8-0.1,2.7-0.1c0.3,0,0.3-0.4,0-0.4c-0.9,0-1.8,0.1-2.7,0.1C223.1,516.4,223.1,516.8,223.3,516.8
			L223.3,516.8z"/>
	</g>
</g>
<g>
	<g>
		<path d="M219.8,518.8c2.5-0.1,4.9-0.2,7.4-0.2c0.3,0,0.3-0.4,0-0.4c-2.5,0.1-4.9,0.2-7.4,0.2C219.5,518.4,219.5,518.8,219.8,518.8
			L219.8,518.8z"/>
	</g>
</g>
<g>
	<g>
		<path d="M220.5,520.8c1.2,0,2.4-0.1,3.6-0.1c0.3,0,0.3-0.4,0-0.4c-1.2,0-2.4,0.1-3.6,0.1C220.2,520.4,220.2,520.8,220.5,520.8
			L220.5,520.8z"/>
	</g>
</g>
<g>
	<g>
		<path d="M218.6,521.6c2.7,0.9,5.6,0.2,8.3,1.1c0.3,0.1,0.4-0.3,0.1-0.4c-2.7-0.9-5.6-0.2-8.3-1.1
			C218.4,521.1,218.3,521.5,218.6,521.6L218.6,521.6z"/>
	</g>
</g>
<g>
	<g>
		<path d="M216.4,525.8c2.7-0.1,5.5-0.2,8.2-0.3c0.3,0,0.3-0.4,0-0.4c-2.7,0.1-5.5,0.2-8.2,0.3C216.1,525.4,216.1,525.8,216.4,525.8
			L216.4,525.8z"/>
	</g>
</g>
<g>
	<g>
		<path d="M219.3,523.8c1.8-0.1,3.5-0.1,5.3-0.2c0.3,0,0.3-0.4,0-0.4c-1.8,0.1-3.5,0.1-5.3,0.2C219,523.4,219,523.8,219.3,523.8
			L219.3,523.8z"/>
	</g>
</g>
<g>
	<g>
		<path d="M211.9,529.8c3.4-0.2,6.5,1.2,9.8,1.5c0.3,0,0.3-0.4,0-0.4c-3.3-0.3-6.4-1.8-9.8-1.5C211.6,529.4,211.6,529.8,211.9,529.8
			L211.9,529.8z"/>
	</g>
</g>
<g>
	<g>
		<path d="M216.7,528.7c2.2-0.1,4.4-0.1,6.5-0.2c0.3,0,0.3-0.4,0-0.4c-2.2,0.1-4.4,0.1-6.5,0.2C216.4,528.3,216.4,528.7,216.7,528.7
			L216.7,528.7z"/>
	</g>
</g>
<g>
	<g>
		<path d="M215.3,532.9c1.3,0,2.7-0.1,4-0.1c0.3,0,0.3-0.4,0-0.4c-1.3,0-2.7,0.1-4,0.1C215.1,532.5,215.1,532.9,215.3,532.9
			L215.3,532.9z"/>
	</g>
</g>
<g>
	<g>
		<path d="M214.3,534.8c1.3-0.1,2.5,0.2,3.7,0.8c0.2,0.1,0.5-0.2,0.2-0.4c-1.2-0.6-2.6-0.9-3.9-0.8
			C214.1,534.4,214.1,534.8,214.3,534.8L214.3,534.8z"/>
	</g>
</g>
<g>
	<g>
		<path d="M211.8,536.5c2.5-0.2,4.6,1.4,7,1.4c0.3,0,0.3-0.4,0-0.4c-2.4,0-4.5-1.6-7-1.4C211.6,536.1,211.6,536.5,211.8,536.5
			L211.8,536.5z"/>
	</g>
</g>
<g>
	<g>
		<path d="M212.9,538.5c1.3,0,2.5-0.1,3.8,0.1c0.3,0,0.4-0.4,0.1-0.4c-1.3-0.2-2.6-0.2-3.9-0.1C212.7,538.1,212.7,538.5,212.9,538.5
			L212.9,538.5z"/>
	</g>
</g>
<g>
	<g>
		<path d="M210.6,539.5c2.8-0.1,5.5,0.1,8.2,0.2c0.3,0,0.3-0.4,0-0.4c-2.7-0.1-5.5-0.3-8.2-0.2C210.4,539.1,210.4,539.5,210.6,539.5
			L210.6,539.5z"/>
	</g>
</g>
<g>
	<g>
		<path d="M200.6,556.8c4.1-0.2,8.2-1,12.2,0.1c0.3,0.1,0.4-0.3,0.1-0.4c-4-1.1-8.2-0.3-12.3-0.1
			C200.3,556.4,200.3,556.8,200.6,556.8L200.6,556.8z"/>
	</g>
</g>
<g>
	<g>
		<path d="M204.5,554.1c1.4-0.1,2.7,0.5,4,0.6c0.3,0,0.3-0.4,0-0.4c-1.4,0-2.7-0.6-4-0.6C204.2,553.7,204.2,554.1,204.5,554.1
			L204.5,554.1z"/>
	</g>
</g>
<g>
	<g>
		<path d="M205.7,552.5c1.5,0,3-0.1,4.4-0.1c0.3,0,0.3-0.4,0-0.4c-1.5,0-3,0.1-4.4,0.1C205.4,552.1,205.4,552.5,205.7,552.5
			L205.7,552.5z"/>
	</g>
</g>
<g>
	<g>
		<path d="M204.3,548.6c2-0.1,4.1,0.1,6.1,0c0.3,0,0.3-0.4,0-0.4c-2,0-4.1-0.1-6.1,0C204.1,548.2,204.1,548.7,204.3,548.6
			L204.3,548.6z"/>
	</g>
</g>
<g>
	<g>
		<path d="M208.1,546.7c1.3-0.1,2.7,0.2,4,0.1c0.3,0,0.3-0.4,0-0.4c-1.3,0.1-2.7-0.2-4-0.1C207.8,546.3,207.8,546.7,208.1,546.7
			L208.1,546.7z"/>
	</g>
</g>
<g>
	<g>
		<path d="M209.9,544.3c1.6-0.1,3.2-0.1,4.9-0.2c0.3,0,0.3-0.4,0-0.4c-1.6,0.1-3.2,0.1-4.9,0.2C209.7,543.9,209.7,544.3,209.9,544.3
			L209.9,544.3z"/>
	</g>
</g>
<g>
	<g>
		<path d="M211.1,542c1.4,0,2.8-0.1,4.2-0.1c0.3,0,0.3-0.4,0-0.4c-1.4,0-2.8,0.1-4.2,0.1C210.9,541.6,210.9,542,211.1,542L211.1,542
			z"/>
	</g>
</g>
<path class="st4" d="M293.4,490.7c1,1.5,4.3,5.8,10.5,6.6c3.8,0.5,7.2-0.6,9-1.3c-0.1,1.1-0.4,2.4-1.3,3.6
	c-3.4,4.5-11.4,1.6-12.5,1.2c-1.1-0.4-8.1-2.9-7.4-7.1C291.9,492.5,292.7,491.5,293.4,490.7z"/>
<path class="st4" d="M273.2,496.1c1,1.5,4.3,5.8,10.5,6.6c3.8,0.5,7.2-0.6,9-1.3c-0.1,1.1-0.4,2.4-1.3,3.6
	c-3.4,4.5-11.4,1.6-12.5,1.2c-1.1-0.4-8.1-2.9-7.4-7.1C271.7,497.9,272.5,496.9,273.2,496.1z"/>
<linearGradient id="SVGID_1_" gradientUnits="userSpaceOnUse" x1="684.569" y1="20.101" x2="694.9752" y2="20.101">
	<stop  offset="0.5836" style="stop-color:#E9B700"/>
	<stop  offset="1" style="stop-color:#78571E"/>
</linearGradient>
<path class="st7" d="M686.1,0c3,0,5.9,0,8.9,0c0,13.4,0,26.8,0,40.2c-3.5,0-6.9,0-10.4,0C685.1,26.8,685.6,13.4,686.1,0z"/>
<linearGradient id="SVGID_2_" gradientUnits="userSpaceOnUse" x1="630.8422" y1="50.7068" x2="742.6541" y2="50.7068">
	<stop  offset="0.503" style="stop-color:#E9B700"/>
	<stop  offset="1" style="stop-color:#78571E"/>
</linearGradient>
<path class="st8" d="M630.8,76.3c0-28.2,25-51.1,55.9-51.1c30.9,0,55.9,22.9,55.9,51.1"/>
<path class="st5" d="M703.8,76.3c0,9-7.3,16.4-16.4,16.4S671,85.3,671,76.3"/>
</svg>
