<?xml version="1.0" encoding="UTF-8" standalone="no"?>
<svg
   xmlns:dc="http://purl.org/dc/elements/1.1/"
   xmlns:cc="http://creativecommons.org/ns#"
   xmlns:rdf="http://www.w3.org/1999/02/22-rdf-syntax-ns#"
   xmlns:svg="http://www.w3.org/2000/svg"
   xmlns="http://www.w3.org/2000/svg"
   viewBox="0 0 1122.52 793.70135"
   height="793.70135"
   width="1122.52"
   xml:space="preserve"
   id="svg834"
   version="1.1"><metadata
     id="metadata840"><rdf:RDF><cc:Work
         rdf:about=""><dc:format>image/svg+xml</dc:format><dc:type
           rdf:resource="http://purl.org/dc/dcmitype/StillImage" /><dc:title></dc:title></cc:Work></rdf:RDF></metadata><defs
     id="defs838"><clipPath
       id="clipPath854"
       clipPathUnits="userSpaceOnUse"><path
         id="path852"
         d="M 0,595.276 H 841.89 V 0 H 0 Z" /></clipPath><clipPath
       id="clipPath948"
       clipPathUnits="userSpaceOnUse"><path
         id="path946"
         d="M 0,595.276 H 841.89 V 0 H 0 Z" /></clipPath><clipPath
       id="clipPath1020"
       clipPathUnits="userSpaceOnUse"><path
         id="path1018"
         d="M 0,595.276 H 841.89 V 0 H 0 Z" /></clipPath><clipPath
       id="clipPath1072"
       clipPathUnits="userSpaceOnUse"><path
         id="path1070"
         d="M 0,595.276 H 841.89 V 0 H 0 Z" /></clipPath></defs><g
     transform="matrix(1.3333333,0,0,-1.3333333,0,793.70133)"
     id="g842"><g
       id="g848"><g
         clip-path="url(#clipPath854)"
         id="g850"><g
           transform="translate(379.2822,227.9807)"
           id="g856"><path
             id="path858"
             style="fill:#d6dcf1;fill-opacity:1;fill-rule:nonzero;stroke:none"
             d="m 0,0 c -35.914,43.034 -49.328,74.67 -54.667,96.296 -0.798,3.233 -5.583,23.122 -10.666,22.538 -5.338,-0.615 -5.974,-23.227 -12,-24.587 -7.484,-1.688 -13.121,31.69 -21.334,30.733 -7.918,-0.922 -9.663,-32.762 -16,-32.782 -5.549,-0.017 -6.253,24.381 -20,51.222 -5.46,10.661 -12.45,24.31 -21.333,24.586 -11.083,0.345 -19.545,-20.295 -24.001,-30.733 -14.349,-33.612 -53.503,-125.33 -78.667,-120.882 -11.175,1.974 -19.894,25.903 -37.333,73.758 -13.469,36.96 -19.147,64.619 -26.667,63.515 -8.116,-1.191 -9.478,-34.577 -16,-34.83 -9.707,-0.378 -14.214,73.288 -21.865,73.758 -6.098,0.375 -14.787,-45.715 -27.469,-202.836 C -258.668,-6.83 -129.334,-3.415 0,0" /></g><g
           transform="translate(20.043,234.6506)"
           id="g860"><path
             id="path862"
             style="fill:#d6dcf1;fill-opacity:1;fill-rule:nonzero;stroke:none"
             d="m 0,0 c 38.751,43.034 53.225,74.671 58.986,96.296 0.861,3.233 6.024,23.123 11.509,22.538 5.76,-0.614 6.446,-23.227 12.948,-24.586 8.076,-1.689 14.157,31.69 23.019,30.732 8.544,-0.922 10.426,-32.761 17.265,-32.781 5.986,-0.018 6.747,24.38 21.58,51.221 5.891,10.662 13.434,24.31 23.019,24.586 11.958,0.346 21.088,-20.295 25.896,-30.733 15.483,-33.612 57.731,-125.33 84.882,-120.882 12.058,1.975 21.467,25.903 40.283,73.759 14.532,36.96 20.66,64.618 28.774,63.515 8.757,-1.191 10.227,-34.578 17.264,-34.831 10.474,-0.377 15.337,73.289 23.592,73.759 6.58,0.374 15.956,-45.715 29.639,-202.837 C 279.104,-6.829 139.552,-3.415 0,0" /></g><g
           transform="translate(224.9883,206.4621)"
           id="g864"><path
             id="path866"
             style="fill:#d6dcf1;fill-opacity:1;fill-rule:nonzero;stroke:none"
             d="m 0,0 c 58.178,43.035 79.908,74.671 88.557,96.297 1.293,3.233 9.044,23.122 17.279,22.537 8.647,-0.614 9.677,-23.227 19.439,-24.586 12.123,-1.689 21.254,31.69 34.558,30.732 12.828,-0.922 15.653,-32.761 25.92,-32.781 8.988,-0.017 10.13,24.38 32.398,51.221 8.845,10.662 20.169,24.31 34.559,24.587 17.953,0.345 31.66,-20.295 38.879,-30.733 23.244,-33.612 86.672,-125.33 127.434,-120.882 18.104,1.974 32.228,25.902 60.478,73.758 21.817,36.96 31.017,64.618 43.198,63.515 13.148,-1.191 15.354,-34.578 25.919,-34.831 15.726,-0.377 23.026,73.289 35.419,73.759 9.878,0.375 23.954,-45.715 44.498,-202.837 C 419.023,-6.829 209.512,-3.414 0,0" /></g><g
           transform="translate(376.2915,223.0383)"
           id="g868"><path
             id="path870"
             style="fill:#1c2042;fill-opacity:1;fill-rule:nonzero;stroke:none"
             d="m 0,0 c -35.914,43.034 -49.328,74.67 -54.667,96.296 -0.798,3.233 -5.583,23.122 -10.666,22.538 -5.338,-0.615 -5.974,-23.227 -12,-24.587 -7.484,-1.688 -13.121,31.69 -21.334,30.733 -7.918,-0.922 -9.663,-32.762 -16,-32.782 -5.548,-0.017 -6.253,24.381 -20,51.221 -5.46,10.662 -12.45,24.31 -21.333,24.587 -11.083,0.345 -19.545,-20.295 -24,-30.733 -14.35,-33.612 -53.504,-125.33 -78.668,-120.882 -11.175,1.974 -19.894,25.902 -37.333,73.758 -13.469,36.96 -19.147,64.619 -26.667,63.515 -8.116,-1.191 -9.478,-34.577 -16,-34.83 -9.707,-0.378 -14.214,73.288 -21.865,73.758 -6.098,0.375 -14.787,-45.715 -27.469,-202.837 z" /></g><path
           id="path872"
           style="fill:#8cd6a1;fill-opacity:1;fill-rule:nonzero;stroke:none"
           d="M 841.89,0 H 0 v 204.332 h 841.89 z" /><g
           transform="translate(10.7285,229.592)"
           id="g874"><path
             id="path876"
             style="fill:#1c2042;fill-opacity:1;fill-rule:nonzero;stroke:none"
             d="m 0,0 c 38.751,43.034 53.225,74.671 58.986,96.296 0.861,3.233 6.024,23.123 11.509,22.538 5.76,-0.615 6.446,-23.227 12.948,-24.586 8.076,-1.689 14.157,31.689 23.019,30.732 8.544,-0.922 10.426,-32.761 17.265,-32.781 5.986,-0.018 6.747,24.38 21.58,51.221 5.891,10.661 13.434,24.31 23.019,24.586 11.958,0.346 21.088,-20.295 25.896,-30.733 15.483,-33.612 57.731,-125.33 84.882,-120.882 12.059,1.975 21.467,25.903 40.283,73.759 14.533,36.96 20.66,64.618 28.774,63.515 8.757,-1.192 10.227,-34.578 17.264,-34.831 10.474,-0.377 15.337,73.289 23.592,73.759 6.58,0.374 15.955,-45.715 29.639,-202.837 C 279.104,-6.829 139.552,-3.415 0,0" /></g><g
           transform="translate(218.3169,199.9338)"
           id="g878"><path
             id="path880"
             style="fill:#1c2042;fill-opacity:1;fill-rule:nonzero;stroke:none"
             d="m 0,0 c 57.721,43.034 79.28,74.671 87.861,96.296 1.283,3.233 8.973,23.122 17.143,22.538 8.579,-0.615 9.601,-23.227 19.287,-24.587 12.028,-1.688 21.086,31.69 34.287,30.733 12.727,-0.922 15.529,-32.761 25.715,-32.782 8.917,-0.017 10.05,24.381 32.144,51.222 8.775,10.661 20.01,24.31 34.287,24.586 17.812,0.346 31.411,-20.295 38.573,-30.733 23.062,-33.612 85.991,-125.33 126.434,-120.882 17.961,1.975 31.975,25.903 60.002,73.758 21.646,36.961 30.773,64.619 42.859,63.515 13.043,-1.191 15.233,-34.577 25.715,-34.83 15.602,-0.377 22.845,73.289 35.141,73.758 9.801,0.375 23.765,-45.715 44.148,-202.836 C 415.731,-6.829 207.866,-3.415 0,0" /></g><g
           transform="translate(445.2168,111.2688)"
           id="g882"><path
             id="path884"
             style="fill:#c0d5f0;fill-opacity:1;fill-rule:nonzero;stroke:none"
             d="m 0,0 c -131.957,7.163 -218.317,4.668 -269.206,1.601 -29.118,-1.755 -77.723,-5.572 -82.074,-24.008 -2.517,-10.666 10.772,-21.997 13.132,-24.009 28.574,-24.362 66.775,-5.89 152.659,0 36.897,2.531 74.66,4.858 121.471,-4.801 40.039,-8.262 39.914,-15.64 75.508,-24.009 69.009,-16.223 164.18,-10.757 178.924,27.209 8.734,22.494 -13.81,48.533 -14.773,49.618 C 144.674,36.461 73.221,38.485 0,0" /></g><g
           transform="translate(437.7832,80.6897)"
           id="g886"><path
             id="path888"
             style="fill:#8c97d4;fill-opacity:1;fill-rule:nonzero;stroke:none"
             d="m 0,0 c -15.255,0.341 -29.042,0.809 -29.052,1.422 -0.013,0.756 20.898,1.145 21.063,2.844 0.042,0.429 -1.258,0.786 -1.97,0.969 -10.439,2.684 -33.59,3.783 -33.619,4.008 -0.014,0.106 4.859,1.545 42.851,1.778 C 43.891,11.293 80.681,9.573 80.619,8.888 80.54,8.006 19.553,9.448 18.884,6.398 18.466,4.495 41.877,2.305 41.399,0.711 40.989,-0.655 23.317,-0.625 0,0" /></g><g
           transform="translate(219.6792,102.2678)"
           id="g890"><path
             id="path892"
             style="fill:#8c97d4;fill-opacity:1;fill-rule:nonzero;stroke:none"
             d="m 0,0 c -7.983,-0.355 -15.197,-0.843 -15.203,-1.482 -0.006,-0.789 10.936,-1.195 11.022,-2.965 0.022,-0.448 -0.658,-0.82 -1.03,-1.01 -5.463,-2.798 -17.578,-3.943 -17.593,-4.178 -0.007,-0.11 2.543,-1.611 22.424,-1.853 23.348,-0.284 42.6,1.509 42.568,2.223 C 42.146,-8.346 10.232,-9.85 9.882,-6.67 9.663,-4.686 21.914,-2.402 21.664,-0.741 21.45,0.683 12.202,0.652 0,0" /></g><g
           transform="translate(313.5859,76.715)"
           id="g894"><path
             id="path896"
             style="fill:#8c97d4;fill-opacity:1;fill-rule:nonzero;stroke:none"
             d="m 0,0 c -15.255,0.899 -29.042,2.134 -29.052,3.753 -0.013,1.995 20.898,3.023 21.063,7.506 0.041,1.133 -1.259,2.074 -1.97,2.556 -10.439,7.083 -33.59,9.984 -33.619,10.579 -0.014,0.278 4.859,4.078 42.851,4.69 44.618,0.72 81.407,-3.82 81.346,-5.629 C 80.541,21.128 19.553,24.937 18.884,16.888 18.466,11.862 41.877,6.082 41.399,1.877 40.989,-1.729 23.317,-1.65 0,0" /></g><g
           transform="translate(575.4268,211.1389)"
           id="g898"><path
             id="path900"
             style="fill:#d69888;fill-opacity:1;fill-rule:nonzero;stroke:none"
             d="m 0,0 c 10.454,9.854 14.953,16.117 16.443,21.427 1.877,6.69 4.74,13.105 6.037,19.941 0.048,0.252 0.24,1.279 0.863,2.465 1.382,2.63 4.349,5.015 6.469,4.706 4.272,-0.624 5.533,-12.27 5.606,-12.996 C 36.548,24.337 31.52,14.608 27.225,8.432 20.828,2.117 14.433,-4.197 8.036,-10.511 7.245,-11.292 6.363,-13.502 5.572,-14.283 3.919,-10.475 1.652,-3.809 0,0" /></g><g
           transform="translate(495.7803,54.4494)"
           id="g902"><path
             id="path904"
             style="fill:#eaeae7;fill-opacity:1;fill-rule:nonzero;stroke:none"
             d="m 0,0 c 1.987,12.787 7.023,34.613 21.556,56.816 24.875,38.006 60.575,51.146 74.151,55.915 19.531,6.862 42.376,14.887 68.116,7.215 13.064,-3.894 22.474,-10.52 82.775,-82.068 C 274.355,4.941 275.838,2.222 275.051,-1.804 266.054,-47.836 2.821,-46.992 -3.449,-9.92 -4.108,-6.023 -1.825,-2.335 0,0" /></g><g
           transform="translate(590.7529,234.5754)"
           id="g906"><path
             id="path908"
             style="fill:#faf9a7;fill-opacity:1;fill-rule:nonzero;stroke:none"
             d="M 0,0 -35.492,-4.4 -53.621,43.48 -36.429,28.997 Z" /></g><g
           transform="translate(570.8447,221.4006)"
           id="g910"><path
             id="path912"
             style="fill:#d67710;fill-opacity:1;fill-rule:nonzero;stroke:none"
             d="M 0,0 -16.521,6.225 -35.588,50.73 -16.521,42.172 Z" /></g><g
           transform="translate(606.0293,225.1535)"
           id="g914"><path
             id="path916"
             style="fill:#faf9a7;fill-opacity:1;fill-rule:nonzero;stroke:none"
             d="m 0,0 -35.492,-4.4 -16.213,42.819 29.577,5.535 z" /></g><g
           transform="translate(601.2969,223.3889)"
           id="g918"><path
             id="path920"
             style="fill:#d67710;fill-opacity:1;fill-rule:nonzero;stroke:none"
             d="m 0,0 -30.76,-2.636 -16.399,42.85 26.039,1.085 z" /></g><g
           transform="translate(558.3252,170.9895)"
           id="g922"><path
             id="path924"
             style="fill:#231f20;fill-opacity:1;fill-rule:nonzero;stroke:none"
             d="m 0,0 c 21.814,5.347 33.996,9.578 41.262,12.668 0.467,0.199 5.159,2.198 11.716,3.236 7.479,1.184 13.844,2.191 18.027,-1.915 3.749,-3.679 4.201,-9.951 3.029,-14.505 -1.968,-7.645 -8.558,-10.621 -9.354,-10.963 -13.039,0.511 -24.167,-0.76 -33.224,-2.564 C 15.729,-17.176 6.073,-21.95 1.231,-17.149 -2.242,-13.706 -1.714,-6.845 0,0" /></g><g
           transform="translate(602.4424,192.7385)"
           id="g926"><path
             id="path928"
             style="fill:#231f20;fill-opacity:1;fill-rule:nonzero;stroke:none"
             d="m 0,0 c 14.201,-0.3 28.402,-0.6 42.603,-0.899 1.173,-4.384 3.229,-14.556 -0.861,-25.657 -1.331,-3.612 -3.843,-10.43 -10.328,-14.852 -1.877,-1.28 -5.512,-3.332 -18.073,-4.051 -5.953,-0.342 -14.364,-0.409 -24.529,0.899 -11.335,-6.601 -23.152,-5.599 -28.402,0.901 -2.806,3.473 -4.73,9.751 -2.582,14.853 1.459,3.462 4.219,5.023 9.037,7.652 10.053,5.485 21.224,7.102 21.947,7.202 5.39,0.739 7.924,0.427 9.898,2.7 C 1.2,-8.383 0.804,-3.691 0,0" /></g><g
           transform="translate(605.2031,263.1809)"
           id="g930"><path
             id="path932"
             style="fill:#c36f5f;fill-opacity:1;fill-rule:nonzero;stroke:none"
             d="m 0,0 c -1.298,-1.433 -2.831,-3.545 -3.732,-6.407 -0.424,-1.348 -0.579,-2.447 -0.649,-3.035 -2.208,-18.38 -0.811,-33.385 -0.811,-33.385 0.786,-8.446 1.458,-20.382 0.973,-35.915 7.712,-3.471 14.411,-4.54 18.822,-4.89 6.882,-0.545 15.67,-1.242 22.553,4.553 2.043,1.72 3.39,3.566 4.219,4.89 -0.498,1.829 -1.301,4.788 -2.271,8.43 -5.676,21.294 -9.083,35.829 -15.902,52.945 C 18.422,-0.815 15.608,3.304 11.357,4.216 6.899,5.172 2.591,2.229 0,0" /></g><g
           transform="translate(602.1475,271.9875)"
           id="g934"><path
             id="path936"
             style="fill:#231f20;fill-opacity:1;fill-rule:nonzero;stroke:none"
             d="m 0,0 c 0.719,-4.317 1.437,-8.634 2.156,-12.951 -0.469,-1.063 -0.887,-2.353 -0.431,-2.988 0.955,-1.33 5.199,0.955 7.616,2.656 2.656,1.869 7.078,5.829 6.323,8.136 -0.351,1.07 -1.429,0.607 -3.018,1.992 C 10.483,-1.271 9.84,1.887 9.054,5.977 8.227,10.277 8.565,11.833 7.904,12.12 7.062,12.484 5.086,10.583 0,0" /></g></g></g><g
       id="g942"><g
         clip-path="url(#clipPath948)"
         id="g944"><g
           transform="translate(608.0967,278.382)"
           id="g950"><path
             id="path952"
             style="fill:#231f20;fill-opacity:1;fill-rule:nonzero;stroke:none"
             d="m 0,0 c -0.79,-8.617 -6.256,-15.119 -12.21,-14.523 -5.953,0.596 -10.14,8.066 -9.351,16.684 0.79,8.618 6.256,15.12 12.21,14.524 C -3.397,16.088 0.789,8.618 0,0" /></g><g
           transform="translate(593.5078,192.9816)"
           id="g954"><path
             id="path956"
             style="fill:#231f20;fill-opacity:1;fill-rule:nonzero;stroke:none"
             d="m 0,0 c -1.447,-1.14 -5.731,1.951 -8.396,4.671 -2.704,2.76 -2.98,4.363 -6.59,11.075 -4.113,7.646 -6.169,11.468 -8.381,14.383 -1.904,2.51 -3.803,4.6 -4.591,8.264 -0.518,2.407 -0.67,6.021 0.628,6.587 1.253,0.546 3.519,-1.899 4.62,-3.892 1.384,-2.503 1.335,-5.027 1.227,-6.25 2.015,-3.198 4.338,-6.59 7.011,-10.082 0.852,-1.113 2.296,-2.743 8.9,-10.472 1.832,-2.145 3.119,-3.651 4.259,-6.137 C -0.249,5.825 1.396,1.1 0,0" /></g><g
           transform="translate(587.9355,207.2658)"
           id="g958"><path
             id="path960"
             style="fill:#d69888;fill-opacity:1;fill-rule:nonzero;stroke:none"
             d="m 0,0 c 10.453,9.854 14.953,16.117 16.443,21.427 1.877,6.689 4.74,13.104 6.037,19.941 0.048,0.251 0.24,1.279 0.863,2.465 1.382,2.629 4.349,5.015 6.469,4.705 4.272,-0.624 5.533,-12.27 5.605,-12.996 C 36.547,24.336 31.52,14.608 27.224,8.431 20.828,2.116 14.433,-4.197 8.036,-10.512 7.245,-11.293 6.363,-13.503 5.572,-14.284 3.919,-10.475 1.652,-3.81 0,0" /></g><g
           transform="translate(582.4717,285.7854)"
           id="g962"><path
             id="path964"
             style="fill:#231f20;fill-opacity:1;fill-rule:nonzero;stroke:none"
             d="M 0,0 C 2.172,-1.692 5.925,-4.172 11.093,-5.438 12.546,-5.794 26.922,-9.155 30.66,-2.246 33.274,2.587 29.748,10.712 24.094,14.279 18.82,17.607 11.103,17.341 8.338,13.842 6.886,12.002 5.688,7.86 5.559,7.405 4.995,5.422 4.923,4.278 3.981,2.92 2.841,1.275 1.207,0.445 0,0" /></g><g
           transform="translate(575.9961,89.0725)"
           id="g966"><path
             id="path968"
             style="fill:#231f20;fill-opacity:1;fill-rule:nonzero;stroke:none"
             d="m 0,0 c -5.762,22.646 -10.17,35.256 -13.34,42.76 -0.205,0.483 -2.255,5.328 -3.442,12.152 -1.356,7.783 -2.508,14.408 1.29,18.904 3.405,4.031 9.385,4.69 13.77,3.601 C 5.645,75.589 8.686,68.787 9.037,67.965 8.938,54.317 10.484,42.722 12.479,33.308 15.943,16.959 20.795,7.006 16.353,1.801 13.165,-1.934 6.592,-1.587 0,0" /></g><g
           transform="translate(534.3916,101.9689)"
           id="g970"><path
             id="path972"
             style="fill:#231f20;fill-opacity:1;fill-rule:nonzero;stroke:none"
             d="m 0,0 c 7.45,22.102 10.607,35.115 12.034,43.182 0.092,0.519 1.011,5.73 3.708,12.066 3.077,7.228 5.696,13.378 11.258,14.852 4.984,1.32 10.278,-1.662 13.313,-5.149 5.098,-5.853 3.943,-13.263 3.79,-14.15 C 36.663,39.588 31.69,29.099 28.262,20.147 22.31,4.603 20.951,-6.479 14.476,-8.157 9.83,-9.361 4.589,-5.198 0,0" /></g><g
           transform="translate(594.2061,95.0647)"
           id="g974"><path
             id="path976"
             style="fill:#d69888;fill-opacity:1;fill-rule:nonzero;stroke:none"
             d="m 0,0 c 3.429,-9.541 6.858,-19.082 10.287,-28.622 -13.853,-5.954 -27.708,-11.908 -41.561,-17.862 -0.871,0.175 -3.326,0.798 -4.733,3.012 -2.449,3.855 0.517,9.01 1.028,9.9 1.893,3.289 4.773,4.783 6.173,5.38 3.292,1.794 6.584,3.587 9.876,5.38 1.037,0.638 2.492,1.773 3.498,3.659 1.874,3.507 1.411,8.134 -1.029,12.051 C -10.974,-4.734 -5.487,-2.367 0,0" /></g><g
           transform="translate(574.8857,91.551)"
           id="g978"><path
             id="path980"
             style="fill:#c36f5f;fill-opacity:1;fill-rule:nonzero;stroke:none"
             d="m 0,0 c 1.729,-0.558 6.993,-1.953 12.759,1.196 3.582,1.957 5.86,4.85 7.041,6.602 0.493,-0.91 1.003,-2.206 0.905,-3.699 C 20.337,-1.492 11.806,-4.162 10.627,-4.53 9.495,-4.885 2.016,-7.225 0.219,-3.455 -0.298,-2.372 -0.211,-1.065 0,0" /></g><g
           transform="translate(549.999,93.1496)"
           id="g982"><path
             id="path984"
             style="fill:#d69888;fill-opacity:1;fill-rule:nonzero;stroke:none"
             d="m 0,0 c -4.963,-8.772 -9.926,-17.544 -14.889,-26.316 -13.115,7.567 -26.229,15.133 -39.344,22.7 -0.413,0.819 -1.488,3.212 -0.719,5.746 1.339,4.411 7.038,5.222 8.022,5.361 3.637,0.518 6.554,-0.894 7.876,-1.663 3.399,-1.56 6.797,-3.122 10.196,-4.682 1.126,-0.447 2.881,-0.92 4.918,-0.561 3.788,0.67 6.946,3.944 8.337,8.388 C -10.402,5.981 -5.201,2.99 0,0" /></g><g
           transform="translate(535.0732,105.8625)"
           id="g986"><path
             id="path988"
             style="fill:#c36f5f;fill-opacity:1;fill-rule:nonzero;stroke:none"
             d="m 0,0 c 0.832,-1.58 3.543,-6.2 9.307,-8.334 3.581,-1.325 6.842,-1.137 8.684,-0.88 -0.212,-0.921 -0.641,-2.096 -1.599,-2.96 -3.587,-3.238 -10.927,1.164 -11.942,1.773 -0.972,0.584 -7.408,4.444 -6.367,8.083 0.3,1.046 1.138,1.801 1.917,2.318" /></g><g
           transform="translate(580.999,196.8557)"
           id="g990"><path
             id="path992"
             style="fill:#231f20;fill-opacity:1;fill-rule:nonzero;stroke:none"
             d="m 0,0 c -1.447,-1.14 -5.731,1.951 -8.396,4.67 -2.703,2.76 -2.98,4.363 -6.59,11.075 -4.113,7.646 -6.169,11.469 -8.381,14.384 -1.904,2.509 -3.803,4.6 -4.591,8.264 -0.518,2.407 -0.67,6.021 0.628,6.586 1.253,0.547 3.519,-1.899 4.62,-3.891 1.384,-2.504 1.335,-5.028 1.227,-6.25 2.015,-3.199 4.338,-6.59 7.011,-10.083 0.852,-1.112 2.296,-2.743 8.9,-10.472 1.832,-2.144 3.119,-3.651 4.259,-6.137 C -0.249,5.824 1.396,1.1 0,0" /></g><g
           transform="translate(-0.9785,344.7673)"
           id="g998"><path
             id="path1000"
             style="fill:#a8b681;fill-opacity:1;fill-rule:nonzero;stroke:none"
             d="m 0,0 c 174.638,-25.537 282.015,-79.689 338.59,-114.574 57.206,-35.274 56.87,-47.395 55.02,-52.512 -13.122,-36.319 -218.474,-35.73 -394.401,-21.241 C -2.202,-128.387 1.411,-59.939 0,0" /></g><g
           transform="translate(235.5747,145.4855)"
           id="g1002"><path
             id="path1004"
             style="fill:#d6dcf1;fill-opacity:1;fill-rule:nonzero;stroke:none"
             d="m 0,0 c -19.892,1.924 -31.217,15.563 -29.726,23.998 1.34,7.581 13.759,15.046 29.726,13.998 -10.916,7.84 -12.951,22.773 -5.945,31.997 5.767,7.593 16.942,10.371 26.753,5.999 -1.524,13.746 8.787,24.171 17.836,23.997 9.136,-0.175 19.128,-11.197 16.844,-24.997 12.211,10.059 28.04,6.355 32.699,-2 4.02,-7.207 0.824,-19.844 -9.909,-26.997 9.339,1.495 17.667,-2.422 19.818,-7.999 C 100.797,30.991 94.699,18.911 81.251,15.999 89.436,14.689 95.798,10.888 96.114,7 96.481,2.485 88.845,-3.903 76.297,-4.999 50.864,-3.333 25.432,-1.666 0,0" /></g><g
           transform="translate(229.7471,142.1936)"
           id="g1006"><path
             id="path1008"
             style="fill:#1c2042;fill-opacity:1;fill-rule:nonzero;stroke:none"
             d="m 0,0 c -19.892,1.923 -31.217,15.563 -29.726,23.997 1.34,7.582 13.759,15.047 29.726,13.999 -10.916,7.839 -12.951,22.773 -5.945,31.996 5.767,7.594 16.942,10.371 26.753,6 -1.524,13.745 8.787,24.171 17.836,23.997 9.136,-0.176 19.128,-11.197 16.844,-24.997 12.211,10.059 28.04,6.354 32.699,-2 4.02,-7.207 0.824,-19.845 -9.909,-26.997 9.339,1.494 17.667,-2.423 19.818,-7.999 C 100.797,30.991 94.699,18.91 81.251,15.998 89.436,14.689 95.797,10.888 96.114,6.999 96.481,2.485 88.844,-3.903 76.297,-5 50.864,-3.333 25.432,-1.667 0,0" /></g></g></g><g
       id="g1014"><g
         clip-path="url(#clipPath1020)"
         id="g1016"><g
           transform="translate(470.6387,188.2443)"
           id="g1022"><path
             id="path1024"
             style="fill:#8cd6a1;fill-opacity:1;fill-rule:nonzero;stroke:none"
             d="m 0,0 c 1.704,6.424 3.409,12.849 5.113,19.272 0.787,-2.228 1.574,-4.457 2.361,-6.686 1.835,7.343 3.671,14.685 5.505,22.026 0.657,-6.948 1.312,-13.897 1.967,-20.845 1.967,2.753 3.934,5.505 5.901,8.259 1.442,-7.08 2.883,-14.16 4.326,-21.24 C 16.782,0.524 8.391,0.262 0,0" /></g><g
           transform="translate(497.2148,21.5734)"
           id="g1026"><path
             id="path1028"
             style="fill:#8cd6a1;fill-opacity:1;fill-rule:nonzero;stroke:none"
             d="m 0,0 c 1.704,6.424 3.409,12.849 5.113,19.272 0.786,-2.228 1.574,-4.457 2.361,-6.686 1.835,7.343 3.671,14.685 5.505,22.026 0.657,-6.948 1.312,-13.897 1.967,-20.845 1.967,2.753 3.934,5.505 5.901,8.259 1.442,-7.08 2.883,-14.16 4.326,-21.24 C 16.782,0.524 8.391,0.262 0,0" /></g><g
           transform="translate(483.2256,28.26)"
           id="g1030"><path
             id="path1032"
             style="fill:#8cd6a1;fill-opacity:1;fill-rule:nonzero;stroke:none"
             d="m 0,0 c 1.704,6.424 3.408,12.849 5.113,19.272 0.786,-2.228 1.574,-4.457 2.36,-6.686 1.836,7.343 3.671,14.685 5.506,22.026 0.656,-6.948 1.312,-13.897 1.967,-20.845 1.967,2.753 3.934,5.505 5.9,8.259 1.442,-7.08 2.884,-14.16 4.327,-21.24 C 16.782,0.524 8.391,0.262 0,0" /></g><g
           transform="translate(679.1396,13.967)"
           id="g1034"><path
             id="path1036"
             style="fill:#8cd6a1;fill-opacity:1;fill-rule:nonzero;stroke:none"
             d="m 0,0 c 1.705,6.425 3.409,12.849 5.113,19.273 0.787,-2.228 1.574,-4.458 2.361,-6.686 1.835,7.342 3.671,14.684 5.506,22.026 0.656,-6.949 1.311,-13.897 1.966,-20.846 1.967,2.754 3.934,5.506 5.901,8.259 C 22.289,14.946 23.731,7.867 25.173,0.787 16.782,0.524 8.392,0.263 0,0" /></g><g
           transform="translate(178.4609,49.5266)"
           id="g1038"><path
             id="path1040"
             style="fill:#8cd6a1;fill-opacity:1;fill-rule:nonzero;stroke:none"
             d="m 0,0 c 1.705,6.425 3.409,12.85 5.113,19.273 0.787,-2.228 1.574,-4.458 2.36,-6.686 1.836,7.342 3.671,14.684 5.507,22.026 0.655,-6.948 1.311,-13.897 1.966,-20.846 1.967,2.754 3.934,5.506 5.9,8.26 1.443,-7.08 2.885,-14.16 4.327,-21.24 C 16.782,0.524 8.391,0.263 0,0" /></g><g
           transform="translate(467.042,21.5734)"
           id="g1042"><path
             id="path1044"
             style="fill:#8cd6a1;fill-opacity:1;fill-rule:nonzero;stroke:none"
             d="m 0,0 c 1.704,6.424 3.409,12.849 5.113,19.272 0.787,-2.228 1.574,-4.457 2.361,-6.686 1.835,7.343 3.671,14.685 5.505,22.026 0.657,-6.948 1.312,-13.897 1.967,-20.845 1.967,2.753 3.934,5.505 5.901,8.259 1.442,-7.08 2.883,-14.16 4.326,-21.24 C 16.782,0.524 8.391,0.262 0,0" /></g></g></g><g
       id="g1066"><g
         clip-path="url(#clipPath1072)"
         id="g1068"><g
           transform="translate(159.5283,147.132)"
           id="g1074"><path
             id="path1076"
             style="fill:#d6dcf1;fill-opacity:1;fill-rule:nonzero;stroke:none"
             d="m 0,0 c -19.892,1.924 -31.217,15.563 -29.726,23.997 1.34,7.582 13.759,15.047 29.726,13.999 -10.916,7.839 -12.951,22.773 -5.945,31.996 5.767,7.594 16.942,10.372 26.753,6 -1.524,13.745 8.787,24.171 17.836,23.997 9.136,-0.175 19.128,-11.197 16.844,-24.997 12.211,10.059 28.04,6.354 32.699,-2 4.02,-7.207 0.823,-19.845 -9.909,-26.997 9.339,1.494 17.667,-2.423 19.818,-7.999 C 100.797,30.991 94.698,18.91 81.251,15.998 89.436,14.689 95.797,10.888 96.114,6.999 96.481,2.485 88.844,-3.903 76.296,-4.999 50.864,-3.333 25.432,-1.666 0,0" /></g><g
           transform="translate(153.7007,143.84)"
           id="g1078"><path
             id="path1080"
             style="fill:#1c2042;fill-opacity:1;fill-rule:nonzero;stroke:none"
             d="m 0,0 c -19.892,1.923 -31.217,15.563 -29.726,23.997 1.34,7.582 13.759,15.047 29.726,13.998 -10.916,7.84 -12.951,22.773 -5.945,31.997 5.767,7.593 16.941,10.371 26.753,5.999 -1.524,13.746 8.787,24.171 17.836,23.998 9.136,-0.176 19.128,-11.198 16.844,-24.998 12.211,10.06 28.04,6.355 32.699,-1.999 4.02,-7.207 0.823,-19.845 -9.909,-26.997 9.339,1.494 17.667,-2.423 19.818,-8 2.7,-7.004 -3.398,-19.085 -16.845,-21.997 8.185,-1.31 14.546,-5.11 14.863,-8.999 C 96.481,2.485 88.844,-3.904 76.296,-5 50.864,-3.333 25.432,-1.667 0,0" /></g><g
           transform="translate(92.3242,146.8889)"
           id="g1082"><path
             id="path1084"
             style="fill:#d6dcf1;fill-opacity:1;fill-rule:nonzero;stroke:none"
             d="m 0,0 c -19.892,1.924 -31.216,15.563 -29.726,23.998 1.34,7.581 13.759,15.046 29.726,13.998 -10.915,7.84 -12.951,22.773 -5.945,31.997 5.767,7.593 16.942,10.371 26.754,5.999 -1.525,13.745 8.787,24.171 17.835,23.997 9.136,-0.175 19.128,-11.197 16.845,-24.997 12.21,10.059 28.039,6.355 32.699,-2 4.019,-7.207 0.823,-19.844 -9.909,-26.997 9.339,1.495 17.667,-2.422 19.817,-7.999 C 100.797,30.991 94.699,18.911 81.251,15.999 89.436,14.689 95.798,10.888 96.114,7 96.481,2.485 88.845,-3.903 76.297,-4.999 50.865,-3.333 25.433,-1.666 0,0" /></g><g
           transform="translate(86.4966,143.5969)"
           id="g1086"><path
             id="path1088"
             style="fill:#1c2042;fill-opacity:1;fill-rule:nonzero;stroke:none"
             d="m 0,0 c -19.892,1.923 -31.216,15.563 -29.726,23.997 1.34,7.582 13.759,15.047 29.726,13.999 -10.916,7.839 -12.951,22.773 -5.945,31.996 5.767,7.593 16.942,10.371 26.754,5.999 -1.525,13.746 8.787,24.172 17.835,23.998 9.136,-0.176 19.128,-11.197 16.845,-24.997 12.21,10.059 28.039,6.354 32.699,-2 4.019,-7.207 0.823,-19.845 -9.909,-26.997 9.338,1.494 17.666,-2.423 19.817,-7.999 C 100.797,30.991 94.699,18.91 81.251,15.998 89.436,14.689 95.798,10.888 96.114,6.999 96.481,2.485 88.845,-3.903 76.297,-5 50.865,-3.333 25.433,-1.667 0,0" /></g><g
           transform="translate(10.7793,151.0061)"
           id="g1090"><path
             id="path1092"
             style="fill:#d6dcf1;fill-opacity:1;fill-rule:nonzero;stroke:none"
             d="m 0,0 c -19.892,1.923 -31.217,15.563 -29.726,23.997 1.34,7.581 13.759,15.046 29.726,13.998 -10.916,7.84 -12.951,22.773 -5.945,31.997 5.767,7.593 16.942,10.371 26.753,5.999 -1.524,13.746 8.787,24.171 17.836,23.998 9.136,-0.176 19.128,-11.198 16.844,-24.998 12.211,10.059 28.04,6.355 32.699,-1.999 4.02,-7.208 0.824,-19.845 -9.909,-26.997 9.339,1.494 17.667,-2.423 19.818,-8 C 100.797,30.991 94.699,18.91 81.251,15.998 89.436,14.688 95.797,10.887 96.114,6.999 96.481,2.485 88.844,-3.904 76.297,-5 50.864,-3.333 25.432,-1.667 0,0" /></g><g
           transform="translate(4.9517,147.7131)"
           id="g1094"><path
             id="path1096"
             style="fill:#1c2042;fill-opacity:1;fill-rule:nonzero;stroke:none"
             d="m 0,0 c -19.892,1.924 -31.217,15.563 -29.726,23.998 1.34,7.581 13.759,15.046 29.726,13.998 -10.916,7.839 -12.951,22.773 -5.945,31.996 5.767,7.594 16.942,10.372 26.753,6 -1.524,13.745 8.787,24.171 17.836,23.997 9.136,-0.175 19.128,-11.197 16.844,-24.997 12.211,10.059 28.04,6.354 32.699,-2 4.02,-7.207 0.823,-19.844 -9.909,-26.997 9.339,1.494 17.667,-2.423 19.818,-7.999 C 100.797,30.991 94.698,18.91 81.251,15.998 89.436,14.689 95.797,10.888 96.114,6.999 96.481,2.485 88.844,-3.903 76.296,-4.999 50.864,-3.333 25.432,-1.666 0,0" /></g><g
           transform="translate(612.3994,295.4758)"
           id="g1098"><path
             id="path1100"
             style="fill:#231f20;fill-opacity:1;fill-rule:nonzero;stroke:none"
             d="M 0,0 -1.056,-0.533 C -2.405,-1.216 -4.068,-0.669 -4.75,0.681 l -0.533,1.056 c -0.682,1.349 -0.135,3.012 1.215,3.693 l 1.055,0.534 c 1.35,0.682 3.012,0.135 3.694,-1.215 L 1.214,3.693 C 1.896,2.344 1.35,0.682 0,0" /></g><g
           transform="translate(615.5,298.8308)"
           id="g1102"><path
             id="path1104"
             style="fill:#231f20;fill-opacity:1;fill-rule:nonzero;stroke:none"
             d="m 0,0 c 0.783,-0.583 1.812,-1.399 2.95,-2.453 0.194,-0.179 2.305,-2.144 3.738,-4.018 3.448,-4.51 2.14,-7.416 4.69,-9.765 1.133,-1.044 3.191,-2.128 7.215,-1.733 -0.428,-0.406 -1.053,-0.928 -1.887,-1.4 -1.972,-1.114 -5.237,-2.019 -7.842,-0.881 -3.238,1.414 -4.558,5.594 -5.791,9.499 -0.98,3.102 -1.048,5.209 -2.995,7.918 -0.944,1.314 -1.942,2.229 -2.642,2.799 C -1.71,-0.022 -0.854,-0.011 0,0" /></g><g
           transform="translate(615.2783,300.0261)"
           id="g1106"><path
             id="path1108"
             style="fill:#231f20;fill-opacity:1;fill-rule:nonzero;stroke:none"
             d="m 0,0 c 0.95,-0.227 2.217,-0.57 3.679,-1.088 0.248,-0.088 2.965,-1.058 5.022,-2.214 4.948,-2.781 4.896,-5.967 8.165,-7.117 1.454,-0.511 3.774,-0.694 7.314,1.258 -0.233,-0.542 -0.601,-1.267 -1.181,-2.031 -1.37,-1.802 -4.013,-3.924 -6.854,-3.908 -3.535,0.019 -6.399,3.338 -9.075,6.437 -2.126,2.463 -3.02,4.372 -5.88,6.092 -1.386,0.834 -2.665,1.279 -3.533,1.527 C -1.562,-0.696 -0.781,-0.348 0,0" /></g><g
           transform="translate(613.6152,300.4948)"
           id="g1110"><path
             id="path1112"
             style="fill:#231f20;fill-opacity:1;fill-rule:nonzero;stroke:none"
             d="m 0,0 c 0.973,0.092 2.282,0.175 3.834,0.157 0.264,-0.003 3.147,-0.045 5.468,-0.475 5.581,-1.036 6.558,-4.068 10.025,-4.102 1.541,-0.015 3.795,0.561 6.516,3.551 -0.045,-0.588 -0.159,-1.394 -0.462,-2.303 -0.716,-2.149 -2.532,-5.01 -5.228,-5.911 -3.351,-1.123 -7.132,1.094 -10.665,3.165 C 6.682,-4.272 5.219,-2.754 1.957,-2.05 0.375,-1.708 -0.979,-1.698 -1.88,-1.744 -1.253,-1.163 -0.626,-0.582 0,0" /></g><g
           transform="translate(611.6895,300.6843)"
           id="g1114"><path
             id="path1116"
             style="fill:#231f20;fill-opacity:1;fill-rule:nonzero;stroke:none"
             d="M 0,0 C 0.867,0.449 2.05,1.018 3.495,1.582 3.74,1.678 6.431,2.719 8.743,3.189 14.305,4.32 16.349,1.874 19.575,3.142 21.009,3.705 22.883,5.083 24.286,8.875 24.465,8.313 24.661,7.522 24.721,6.566 24.861,4.306 24.249,0.973 22.088,-0.873 19.401,-3.168 15.063,-2.53 11.014,-1.933 7.795,-1.458 5.869,-0.599 2.582,-1.167 0.987,-1.443 -0.271,-1.941 -1.09,-2.322 Z" /></g><g
           transform="translate(613.8213,285.2766)"
           id="g1118"><path
             id="path1120"
             style="fill:#231f20;fill-opacity:1;fill-rule:nonzero;stroke:none"
             d="m 0,0 c 0,-8.492 -4.427,-15.377 -9.888,-15.377 -5.462,0 -9.888,6.885 -9.888,15.377 0,8.493 4.426,15.378 9.888,15.378 C -4.427,15.378 0,8.493 0,0" /></g></g></g></g></svg>