<svg width="48" height="46" viewBox="0 0 48 46" fill="none" xmlns="http://www.w3.org/2000/svg">
<path d="M31.4599 8.77147C33.6045 8.77147 35.6613 9.58039 37.1778 11.0203C38.6942 12.4602 39.5462 14.4131 39.5462 16.4494V29.7113C39.5462 31.7476 38.6942 33.7005 37.1778 35.1404C35.6613 36.5803 33.6045 37.3892 31.4599 37.3892H17.4926C15.348 37.3892 13.2912 36.5803 11.7747 35.1404C10.2582 33.7005 9.4063 31.7476 9.4063 29.7113V16.4494C9.4063 14.4131 10.2582 12.4602 11.7747 11.0203C13.2912 9.58039 15.348 8.77147 17.4926 8.77147H31.4599ZM31.4599 5.97949H17.4926C14.5708 5.98778 11.7712 7.09351 9.70513 9.05521C7.6391 11.0169 6.47455 13.6752 6.46582 16.4494V29.7113C6.47455 32.4855 7.6391 35.1438 9.70513 37.1055C11.7712 39.0672 14.5708 40.1729 17.4926 40.1812H31.4599C34.3817 40.1729 37.1813 39.0672 39.2473 37.1055C41.3134 35.1438 42.4779 32.4855 42.4867 29.7113V16.4494C42.4779 13.6752 41.3134 11.0169 39.2473 9.05521C37.1813 7.09351 34.3817 5.98778 31.4599 5.97949Z" fill="black"/>
<path d="M34.0842 11.9125C33.6677 11.9125 33.2605 12.0298 32.9141 12.2495C32.5678 12.4692 32.2978 12.7815 32.1384 13.147C31.979 13.5124 31.9373 13.9144 32.0186 14.3024C32.0998 14.6903 32.3004 15.0466 32.595 15.3263C32.8895 15.6059 33.2648 15.7964 33.6733 15.8736C34.0819 15.9507 34.5053 15.9111 34.8902 15.7598C35.275 15.6084 35.604 15.3521 35.8354 15.0232C36.0668 14.6944 36.1903 14.3077 36.1903 13.9122C36.1903 13.6496 36.1358 13.3896 36.03 13.147C35.9242 12.9043 35.769 12.6839 35.5735 12.4982C35.3779 12.3125 35.1457 12.1652 34.8902 12.0647C34.6347 11.9642 34.3608 11.9125 34.0842 11.9125Z" fill="black"/>
<path d="M24.5755 16.9624C25.861 16.9617 27.118 17.3231 28.1872 18.0008C29.2564 18.6786 30.0899 19.6422 30.5822 20.7698C31.0745 21.8974 31.2035 23.1383 30.9529 24.3356C30.7023 25.5328 30.0833 26.6326 29.1742 27.4957C28.2652 28.3588 27.1069 28.9466 25.846 29.1845C24.5851 29.4225 23.2782 29.3 22.0906 28.8326C20.903 28.3651 19.8881 27.5737 19.1743 26.5585C18.4606 25.5433 18.08 24.3498 18.0807 23.1292C18.0836 21.4945 18.7688 19.9276 19.9862 18.7717C21.2036 17.6158 22.8538 16.9652 24.5755 16.9624ZM24.5755 14.1704C22.7092 14.1739 20.886 14.7025 19.3361 15.6896C17.7862 16.6766 16.5793 18.0777 15.8678 19.7158C15.1563 21.354 14.9722 23.1556 15.3388 24.8931C15.7054 26.6305 16.6062 28.2258 17.9273 29.4773C19.2485 30.7288 20.9307 31.5804 22.7614 31.9244C24.5921 32.2684 26.4891 32.0894 28.2127 31.41C29.9363 30.7306 31.4092 29.5814 32.4451 28.1075C33.481 26.6335 34.0335 24.9011 34.0328 23.1292C34.0323 21.9511 33.7872 20.7846 33.3115 19.6965C32.8357 18.6084 32.1388 17.6201 31.2604 16.788C30.382 15.9559 29.3394 15.2964 28.1924 14.8473C27.0453 14.3981 25.8162 14.1681 24.5755 14.1704Z" fill="black"/>
</svg>
