<?xml version="1.0" encoding="utf-8"?>
<!-- Generator: Adobe Illustrator 22.1.0, SVG Export Plug-In . SVG Version: 6.00 Build 0)  -->
<svg version="1.1" id="Warstwa_1" xmlns="http://www.w3.org/2000/svg" xmlns:xlink="http://www.w3.org/1999/xlink" x="0px" y="0px"
	 viewBox="0 0 841.9 595.3" style="enable-background:new 0 0 841.9 595.3;" xml:space="preserve">
<style type="text/css">
	.st0{fill:#FFFFFF;}
	.st1{fill:#FEF7BE;}
	.st2{font-family:'Sacramento-Regular';}
	.st3{font-size:24.6632px;}
	.st4{fill:#744829;}
	.st5{fill:#DBAC99;}
	.st6{fill:#D88500;}
	.st7{fill:#CA836B;}
	.st8{fill:#999999;}
	.st9{font-family:'MyriadPro-Regular';}
	.st10{font-size:8.3622px;}
	.st11{fill:#3EBFF0;}
	.st12{font-size:7.3397px;}
	.st13{fill:#010202;}
	.st14{font-size:11.2815px;}
</style>
<rect x="151" y="21.4" class="st0" width="552.7" height="460.8"/>
<rect x="214.9" y="50" class="st1" width="238.4" height="432.3"/>
<text transform="matrix(0.9501 0 0 1 300.292 92.6089)" class="st2 st3">Login</text>
<path class="st0" d="M410.8,142.4h-165c-3.2,0-5.9-2.6-5.9-5.9v-11c0-3.2,2.6-5.9,5.9-5.9h165c3.2,0,5.9,2.6,5.9,5.9v11
	C416.6,139.8,414,142.4,410.8,142.4z"/>
<path class="st0" d="M411,171.4H245.6c-3.1,0-5.7-2.6-5.7-5.7v-10.6c0-3.1,2.6-5.7,5.7-5.7H411c3.1,0,5.7,2.6,5.7,5.7v10.6
	C416.6,168.9,414.1,171.4,411,171.4z"/>
<text transform="matrix(0.9501 0 0 1 290.9834 247.6753)" class="st2 st3">Sign Up</text>
<path class="st4" d="M558,326.6l57.2-22.6c8.7-2.5,16.4-2.6,17.2-0.2c0,0,16.2,48.3,16.2,48.3c0.5,1.5-1.7,3.4-6.2,5.6
	c-3,1.4-6.6,2.7-10.1,4.1c-16.4,6.3-31.8,12.9-47.8,19.4c-6.6,2.7-11.2,3.1-11.7,1c-2.6-10.1-5.2-20.3-7.8-30.4
	c-1.3-5.2-2.6-10.3-4-15.5c-0.5-2.1-1.3-3.7-3.8-5.2C556.1,330.2,551.1,328.5,558,326.6z"/>
<path class="st4" d="M599.5,343.3l42,13.4c6.2,0,11.2-4.3,11.2-9.6c0,0,0-109.3,0-109.3c0-3.3-1.9-6.1-5.2-7.9
	c-2.3-1.2-4.9-1.8-7.4-2.5c-12-3.3-23.4-8.1-35.2-12.1c-4.8-1.7-7.9,0.1-7.8,4.7c0.5,22.5,1,45,1.6,67.5c0.3,11.4,0.5,22.9,0.8,34.3
	c0.1,4.7,0,8.4-1.3,12.9C597.5,336.8,594.6,343.3,599.5,343.3z"/>
<path class="st5" d="M561.1,285.6c11.7-6.7,17.2-11.5,19.7-16.1c3.2-5.9,7.2-11.2,9.9-17.3c0.1-0.2,0.5-1.1,1.3-2.1
	c1.8-2.1,5.1-3.7,6.9-2.8c3.7,1.7,2.3,13,2.2,13.7c-1.5,10.9-8.2,18.8-13.5,23.6c-7.2,4.4-14.4,8.7-21.6,13.1
	c-0.9,0.5-2.2,2.4-3.1,2.9C562.3,296.5,561.8,289.6,561.1,285.6z"/>
<polygon class="st6" points="559.6,278.7 546,268.7 538.6,221.9 554,234.7 "/>
<polygon class="st6" points="587.7,284.4 559.2,279.2 553.8,234.6 577.7,240.1 "/>
<path d="M581.9,313.7c12.8,3.8,25.7,7.7,38.5,11.5c0.1,4.4-0.3,14.6-6.5,24c-2,3.1-5.8,8.9-12.7,11.5c-2,0.7-5.7,1.8-17.3-0.7
	c-5.5-1.2-13.1-3.2-22.1-7c-11.8,3.4-22.3-0.5-25.6-7.9c-1.8-4-2.1-10.4,1-14.7c2.1-2.9,4.9-3.7,9.9-5c10.4-2.7,20.9-1.4,21.5-1.3
	c5.1,0.6,7.3,1.6,9.6-0.1C581.2,321.9,581.9,317.3,581.9,313.7z"/>
<path class="st7" d="M600.1,247.8c-1.5,1-3.4,2.6-4.8,5.1c-0.7,1.2-1.1,2.2-1.3,2.7c-6.1,16.8-8.2,31.3-8.2,31.3
	c-1.2,8.2-3.2,19.6-7.1,34.2c6.2,5.2,12.1,7.9,16,9.3c6.1,2.2,14,5.1,21.5,1.3c2.2-1.1,3.9-2.5,4.9-3.6c0-1.9-0.1-4.8-0.2-8.5
	c-0.4-21.5-0.3-36.1-2.7-54c-1.7-12.5-3.3-17.1-7-19C607.5,244.6,603,246.3,600.1,247.8z"/>
<path d="M599.3,238.7c-0.3,4.3-0.6,8.5-0.9,12.8c-0.7,0.9-1.3,2-1.1,2.7c0.6,1.5,4.9,0.4,7.5-0.6c2.8-1.1,7.7-3.7,7.6-6.1
	c-0.1-1.1-1.2-0.9-2.3-2.6c-1.5-2.3-1.4-5.5-1.2-9.5c0.2-4.3,0.9-5.7,0.3-6.1C608.5,228.7,606.3,230,599.3,238.7z"/>
<ellipse transform="matrix(0.2744 -0.9616 0.9616 0.2744 211.2836 740.8681)" cx="596.6" cy="230.4" rx="15.2" ry="10.2"/>
<path d="M573.9,311.2c-1.6,0.7-4.8-3.3-6.6-6.5c-1.8-3.3-1.7-4.9-3.5-12.1c-2-8.3-3.1-12.4-4.4-15.7c-1.2-2.8-2.4-5.3-2.3-9
	c0.1-2.4,0.7-5.9,2-6.1c1.3-0.2,2.8,2.7,3.3,4.8c0.7,2.7,0.1,5.1-0.3,6.2c1.1,3.5,2.5,7.3,4.1,11.3c0.5,1.3,1.5,3.2,5.8,12.1
	c1.2,2.5,2,4.2,2.5,6.9C575,305.6,575.4,310.5,573.9,311.2z"/>
<path class="st5" d="M572,296.3c11.7-6.7,17.2-11.5,19.7-16.1c3.2-5.9,7.2-11.2,9.9-17.3c0.1-0.2,0.5-1.1,1.3-2.1
	c1.8-2.1,5.1-3.7,6.9-2.8c3.7,1.7,2.3,13,2.2,13.7c-1.5,10.9-8.2,18.8-13.5,23.6c-7.2,4.4-14.4,8.7-21.6,13.1
	c-0.9,0.5-2.2,2.4-3.1,2.9C573.2,307.2,572.7,300.3,572,296.3z"/>
<path d="M584.5,220.7c1.6,2.1,4.5,5.4,8.9,7.9c1.2,0.7,13.6,7.5,18.5,1.9c3.5-3.9,2.1-12.5-2.3-17.3c-4.1-4.5-11.1-6.1-14.4-3.5
	c-1.7,1.4-3.7,5-4,5.4c-1,1.7-1.3,2.8-2.4,3.8C587.4,220.2,585.7,220.6,584.5,220.7z"/>
<path d="M475,333.7c21.7-2,34-4.3,41.4-6.2c0.5-0.1,5.2-1.3,11.7-1.4c7.4-0.1,13.7-0.2,17.3,4.2c3.3,3.9,3.1,9.8,1.5,13.8
	c-2.7,6.8-9.4,8.7-10.2,8.9c-12.6-2.2-23.6-2.6-32.5-2.1c-15.6,0.8-25.5,3.9-29.7-1.2C471.5,346.1,472.7,339.9,475,333.7z"/>
<path class="st5" d="M512.1,394.7c-6.5,7.1-12.9,14.1-19.4,21.2c-10.2-10.4-20.5-20.8-30.7-31.3c-0.2-0.9-0.6-3.4,0.6-5.6
	c2.2-3.8,7.6-3.2,8.5-3.1c3.4,0.4,5.8,2.5,6.8,3.5c2.7,2.3,5.5,4.6,8.2,7c0.9,0.7,2.4,1.6,4.3,1.8c3.6,0.3,7.2-2,9.4-5.8
	C504,386.4,508.1,390.6,512.1,394.7z"/>
<path d="M563.4,304.4c-1.6,0.7-4.8-3.3-6.6-6.5c-1.8-3.3-1.7-4.9-3.5-12.1c-2-8.3-3.1-12.4-4.4-15.7c-1.2-2.8-2.4-5.3-2.3-9
	c0.1-2.4,0.7-5.9,2-6.1c1.3-0.2,2.8,2.7,3.3,4.8c0.7,2.7,0.1,5.1-0.3,6.2c1.1,3.5,2.5,7.3,4.1,11.3c0.5,1.3,1.5,3.2,5.8,12.1
	c1.2,2.5,2,4.2,2.5,6.9C564.5,298.8,564.9,303.7,563.4,304.4z"/>
<ellipse transform="matrix(0.2063 -0.9785 0.9785 0.2063 257.61 770.7448)" cx="603.9" cy="226.6" rx="14.9" ry="9.3"/>
<path d="M502,385.1c11.7-19,17.4-30.5,20.5-37.8c0.2-0.5,2.2-5.2,6.1-10.5c4.4-6.1,8.2-11.2,13.5-11.2c4.8,0,9,4.1,11,8.2
	c3.3,6.8,0.6,13.5,0.3,14.3c-9.3,8.7-16.1,17.4-21.2,25c-8.9,13.2-12.6,23.3-18.8,23.3C508.9,396.4,505,391.2,502,385.1z"/>
<path class="st5" d="M478.9,350.4c-9.5,0.3-18.9,0.6-28.4,0.9c-1.5-14.7-3.1-29.4-4.6-44c0.4-0.8,1.6-2.8,4-3.5
	c4.1-1.1,7.9,3.2,8.6,3.9c2.4,2.8,3,5.9,3.1,7.4c0.7,3.6,1.4,7.2,2.1,10.8c0.3,1.2,0.9,2.9,2.3,4.4c2.6,2.8,6.9,3.8,11.1,2.7
	C477.6,338.7,478.2,344.6,478.9,350.4z"/>
<path d="M642.3,327.7"/>
<path class="st4" d="M644.7,419.6h4.2c1.4,0,2.5-1.1,2.5-2.5v-63.4c0-1.4-1.1-2.5-2.5-2.5h-4.2c-1.4,0-2.5,1.1-2.5,2.5v63.4
	C642.3,418.5,643.4,419.6,644.7,419.6z"/>
<path class="st4" d="M575.1,439h4.2c1.4,0,2.5-1.1,2.5-2.5v-63.4c0-1.4-1.1-2.5-2.5-2.5h-4.2c-1.4,0-2.5,1.1-2.5,2.5v63.4
	C572.6,437.9,573.7,439,575.1,439z"/>
<path class="st4" d="M618.4,396.4h4.2c1.4,0,2.5-1.1,2.5-2.5v-40.2c0-1.4-1.1-2.5-2.5-2.5h-4.2c-1.4,0-2.5,1.1-2.5,2.5V394
	C615.9,395.3,617,396.4,618.4,396.4z"/>
<path class="st4" d="M561.6,398.3h4.2c1.4,0,2.5-1.1,2.5-2.5v-40.2c0-1.4-1.1-2.5-2.5-2.5h-4.2c-1.4,0-2.5,1.1-2.5,2.5v40.2
	C559.1,397.2,560.2,398.3,561.6,398.3z"/>
<text transform="matrix(0.9448 0 0 1 246.3208 134.6197)" class="st8 st9 st10">email</text>
<text transform="matrix(0.9448 0 0 1 246.3208 162.0777)" class="st8 st9 st10">password</text>
<path class="st0" d="M410.6,196.8h-40.1c-2.5,0-4.5-2-4.5-4.5v-8.4c0-2.5,2-4.5,4.5-4.5h40.1c2.5,0,4.5,2,4.5,4.5v8.4
	C415.1,194.8,413.1,196.8,410.6,196.8z"/>
<text transform="matrix(0.9448 0 0 1 380.2446 191.3628)" class="st8 st9 st10">Login</text>
<path class="st0" d="M412,298.1H247c-3.2,0-5.9-2.6-5.9-5.9v-11c0-3.2,2.6-5.9,5.9-5.9h165c3.2,0,5.9,2.6,5.9,5.9v11
	C417.9,295.4,415.2,298.1,412,298.1z"/>
<path class="st0" d="M412.2,327.1H246.8c-3.1,0-5.7-2.6-5.7-5.7v-10.6c0-3.1,2.6-5.7,5.7-5.7h165.4c3.1,0,5.7,2.6,5.7,5.7v10.6
	C417.9,324.5,415.3,327.1,412.2,327.1z"/>
<path class="st0" d="M413.9,357.3h-165c-3.2,0-5.9-2.6-5.9-5.9v-11c0-3.2,2.6-5.9,5.9-5.9h165c3.2,0,5.9,2.6,5.9,5.9v11
	C419.8,354.6,417.1,357.3,413.9,357.3z"/>
<path class="st0" d="M414.1,386.3H248.7c-3.1,0-5.7-2.6-5.7-5.7V370c0-3.1,2.6-5.7,5.7-5.7h165.4c3.1,0,5.7,2.6,5.7,5.7v10.6
	C419.8,383.7,417.2,386.3,414.1,386.3z"/>
<text transform="matrix(0.9448 0 0 1 252.3559 290.2701)" class="st8 st9 st10">Username</text>
<text transform="matrix(0.9448 0 0 1 252.3559 347.8082)" class="st8 st9 st10">Password</text>
<text transform="matrix(0.9108 0 0 1 243.4985 180.6626)" class="st11 st9 st12">forgot password</text>
<rect x="243.5" y="183.8" class="st11" width="45.5" height="0.6"/>
<g>
	<text transform="matrix(0.9448 0 0 1 252.3559 319.6334)" class="st8 st9 st10">Email</text>
</g>
<text transform="matrix(0.9448 0 0 1 252.3559 378.4986)" class="st8 st9 st10">Repeat password</text>
<path class="st0" d="M416.5,415.7h-40.1c-2.5,0-4.5-2-4.5-4.5v-8.4c0-2.5,2-4.5,4.5-4.5h40.1c2.5,0,4.5,2,4.5,4.5v8.4
	C421,413.7,418.9,415.7,416.5,415.7z"/>
<text transform="matrix(0.9448 0 0 1 386.1079 410.2662)" class="st8 st9 st10">Sign Up</text>
<rect x="149.4" y="482" class="st13" width="554.3" height="77.7"/>
<text transform="matrix(1.044 0 0 1 365.811 527.4429)" class="st0 st9 st14">CS162 Final Project, 2019 </text>
</svg>
