<?xml version="1.0" encoding="utf-8"?>
<!-- Generator: Adobe Illustrator 22.1.0, SVG Export Plug-In . SVG Version: 6.00 Build 0)  -->
<svg version="1.1" id="Warstwa_1" xmlns="http://www.w3.org/2000/svg" xmlns:xlink="http://www.w3.org/1999/xlink" x="0px" y="0px"
	 viewBox="0 0 841.9 595.3" style="enable-background:new 0 0 841.9 595.3;" xml:space="preserve">
<style type="text/css">
	.st0{fill:#9BCEAC;}
	.st1{fill:#FFEDB9;}
	.st2{fill:#DBAC99;}
	.st3{fill:#E94754;}
	.st4{fill:#CA836B;}
</style>
<g>
	<g>
		<path class="st0" d="M440.8,338.1c2.4,0,2.4-3.8,0-3.8C438.3,334.3,438.3,338.1,440.8,338.1L440.8,338.1z"/>
	</g>
</g>
<path class="st1" d="M150.7,356.1c15.9-15.7,31.8-31.5,47.7-47.2c164.3-1.7,328.5-3.3,492.8-5c-10.7,17.4-21.4,34.9-32.1,52.3
	C489.7,356.2,320.2,356.2,150.7,356.1z"/>
<path class="st2" d="M361.1,276.1c4.7,9.7,8.2,14.3,11.7,16.6c4.4,2.8,8.4,6.3,13,8.8c0.2,0.1,0.9,0.5,1.6,1.2
	c1.6,1.6,2.6,4.2,1.9,5.7c-1.4,2.9-10.1,1.2-10.6,1.1c-8.3-1.7-14.2-7.5-17.6-11.9c-3.1-6-6.2-12-9.3-18c-0.4-0.7-1.8-1.9-2.2-2.6
	C352.7,276.5,358,276.4,361.1,276.1z"/>
<polygon class="st3" points="366.5,275.2 374.6,264.8 410.9,261.1 400.5,272.8 "/>
<polygon class="st3" points="361.1,297.5 366.1,274.8 400.5,272.7 395.5,291.6 "/>
<path d="M338.8,291.4c-3.4,10.1-6.8,20.2-10.2,30.3c-3.4-0.1-11.2-0.9-18.2-6.4c-2.3-1.8-6.6-5.1-8.4-10.7
	c-0.5-1.6-1.2-4.7,1.1-13.8c1.1-4.3,2.9-10.4,6.1-17.4c-2.2-9.6,1.2-17.8,7-20.1c3.1-1.2,8.1-1.2,11.2,1.5c2.2,1.8,2.7,4.1,3.5,8.2
	c1.7,8.4,0.3,16.8,0.3,17.3c-0.7,4-1.5,5.8-0.3,7.7C332.5,290.4,336,291.2,338.8,291.4z"/>
<path class="st4" d="M388.8,309.1c-0.7-1.2-1.9-2.8-3.8-4.1c-0.9-0.6-1.6-1-2-1.1c-12.7-5.7-23.8-8-23.8-8c-6.2-1.3-15-3.5-26-7.3
	c-4.2,4.7-6.5,9.3-7.7,12.4c-1.9,4.8-4.4,10.9-1.8,17.2c0.8,1.8,1.8,3.2,2.6,4.1c1.4,0.1,3.7,0.1,6.6,0.3
	c16.6,0.7,27.8,1.5,41.6,0.4c9.7-0.7,13.3-1.8,14.9-4.7C390.9,315.2,389.8,311.5,388.8,309.1z"/>
<path d="M395.8,308.9c-3.3-0.5-6.5-0.9-9.8-1.4c-0.7-0.6-1.5-1.2-2.1-1c-1.2,0.4-0.5,3.9,0.2,6c0.7,2.3,2.6,6.4,4.4,6.3
	c0.8,0,0.8-0.9,2.1-1.7c1.8-1.1,4.3-0.9,7.4-0.5c3.3,0.4,4.3,1,4.7,0.5C403.2,316.8,402.2,314.9,395.8,308.9z"/>
<ellipse transform="matrix(0.3739 -0.9275 0.9275 0.3739 -33.0178 565.3735)" cx="402.2" cy="307.1" rx="8.1" ry="11.8"/>
<path d="M341,285.1c-0.5-1.3,2.7-3.7,5.2-5c2.6-1.3,3.8-1.2,9.4-2.2c6.4-1.2,9.6-1.9,12.2-2.8c2.2-0.8,4.2-1.7,7-1.4
	c1.8,0.2,4.5,0.9,4.6,1.9c0.1,1-2.2,2.1-3.8,2.4c-2.1,0.4-3.9-0.2-4.8-0.5c-2.7,0.7-5.7,1.6-8.8,2.8c-1,0.4-2.5,1-9.5,4
	c-2,0.8-3.3,1.4-5.4,1.7C345.2,286.2,341.4,286.3,341,285.1z"/>
<path class="st2" d="M352.5,284.3c4.7,9.7,8.2,14.3,11.7,16.6c4.4,2.8,8.4,6.3,13,8.8c0.2,0.1,0.9,0.5,1.6,1.2
	c1.6,1.6,2.6,4.2,1.9,5.7c-1.4,2.9-10.1,1.2-10.6,1.1c-8.3-1.7-14.2-7.5-17.6-11.9c-3.1-6-6.2-12-9.3-18c-0.4-0.7-1.8-1.9-2.2-2.6
	C344.1,284.7,349.4,284.6,352.5,284.3z"/>
<path d="M411.4,297.9c-1.8,1.2-4.7,3.3-6.9,6.7c-0.6,1-6.7,10.5-2.2,14.7c3.1,3,10.3,2.2,14.4-1c3.8-3,5.5-8.6,3.5-11.4
	c-1.1-1.5-4-3.2-4.3-3.4c-1.4-0.8-2.3-1.2-3.1-2.1C411.7,300.3,411.4,298.9,411.4,297.9z"/>
<path d="M283.2,300c10.5-14.1,15.7-22.6,18.6-28c0.2-0.3,2-3.8,5.4-7.8c3.9-4.5,7.2-8.3,11.6-8.2c4,0.1,7.2,3.2,8.7,6.3
	c2.4,5.1-0.1,10.1-0.4,10.7c-8,6.4-14,12.8-18.6,18.4c-7.9,9.8-11.4,17.3-16.5,17.2C288.3,308.6,285.4,304.6,283.2,300z"/>
<path d="M346.5,277c-0.5-1.3,2.7-3.7,5.2-5c2.6-1.3,3.8-1.2,9.4-2.2c6.4-1.2,9.6-1.9,12.2-2.8c2.2-0.8,4.2-1.7,7-1.4
	c1.8,0.2,4.5,0.9,4.6,1.9c0.1,1-2.2,2.1-3.8,2.4c-2.1,0.4-3.9-0.2-4.8-0.5c-2.7,0.7-5.7,1.6-8.8,2.8c-1,0.4-2.5,1-9.5,4
	c-2,0.8-3.3,1.4-5.4,1.7C350.8,278.1,347,278.2,346.5,277z"/>
<ellipse transform="matrix(0.254 -0.9672 0.9672 0.254 -0.1905 626.1258)" cx="405.8" cy="313.2" rx="7.5" ry="12.4"/>
<path d="M271.9,296.7c11.2-13.5,17-21.7,20.2-27c0.2-0.3,2.3-3.7,5.9-7.4c4.1-4.2,7.6-7.8,11.9-7.3c3.9,0.4,6.8,3.9,7.9,7.2
	c2,5.5-0.8,10.3-1.2,10.9c-8.3,5.8-14.6,11.8-19.4,17.2c-8.4,9.3-12.4,16.7-17.4,16.1C276.3,305.9,273.7,301.5,271.9,296.7z"/>
<path class="st2" d="M301.8,298c-1.6,7.4-3.2,14.9-4.8,22.3c-11.2-1.7-22.4-3.4-33.6-5.1c-0.5-0.5-1.8-1.8-1.8-3.8
	c0-3.4,3.9-5.5,4.6-5.9c2.5-1.3,5-1.1,6.1-1c2.8,0.2,5.6,0.3,8.4,0.5c0.9,0,2.3-0.1,3.7-0.9c2.6-1.5,4.1-4.6,4.1-8.1
	C292.9,296.6,297.3,297.3,301.8,298z"/>
<path class="st2" d="M284.4,303.4c-2.7,7.1-5.4,14.1-8.2,21.2c-10.6-4.2-21.2-8.3-31.8-12.5c-0.4-0.6-1.5-2.2-1.2-4.2
	c0.5-3.4,4.7-4.7,5.4-4.9c2.6-0.8,5-0.1,6,0.4c2.7,0.8,5.4,1.6,8.1,2.4c0.9,0.2,2.2,0.4,3.7-0.1c2.7-0.9,4.7-3.7,5.3-7.1
	C276,300.1,280.2,301.8,284.4,303.4z"/>
<path class="st4" d="M288.3,292.2c0.8,1.1,3.4,4.3,8.3,4.9c3,0.4,5.7-0.3,7.2-0.9c-0.1,0.8-0.4,1.8-1.1,2.6c-2.7,3.2-9.1,1.1-10,0.8
	c-0.8-0.3-6.4-2.2-5.8-5.3C287,293.5,287.7,292.7,288.3,292.2z"/>
<path class="st4" d="M272.2,295.9c0.8,1.1,3.4,4.3,8.3,4.9c3,0.4,5.7-0.3,7.2-0.9c-0.1,0.8-0.4,1.8-1.1,2.6c-2.7,3.2-9.1,1.1-10,0.8
	c-0.8-0.3-6.4-2.2-5.8-5.3C270.9,297.2,271.6,296.5,272.2,295.9z"/>
<path class="st2" d="M500.1,288.5c-4.9,9.6-8.5,14.2-12,16.4c-4.4,2.8-8.5,6.2-13.1,8.6c-0.2,0.1-0.9,0.4-1.6,1.1
	c-1.6,1.6-2.7,4.2-2,5.7c1.4,2.9,10.1,1.4,10.6,1.3c8.3-1.6,14.3-7.2,17.9-11.6c3.2-5.9,6.4-11.9,9.6-17.8c0.4-0.7,1.8-1.8,2.2-2.6
	C508.5,289.1,503.2,288.9,500.1,288.5z"/>
<polygon class="st3" points="494.8,287.5 486.7,277 450.5,272.7 460.7,284.6 "/>
<polygon class="st3" points="499.8,309.9 495.2,287.2 460.7,284.5 465.4,303.4 "/>
<path d="M522.2,304.2c3.2,10.2,6.5,20.3,9.7,30.5c3.4-0.1,11.2-0.8,18.4-6.1c2.3-1.7,6.7-5,8.5-10.6c0.5-1.6,1.2-4.7-0.9-13.9
	c-1-4.4-2.8-10.4-5.9-17.5c2.4-9.6-0.9-17.8-6.7-20.3c-3.1-1.3-8.1-1.3-11.3,1.3c-2.2,1.8-2.7,4.1-3.6,8.1
	c-1.8,8.4-0.6,16.8-0.5,17.3c0.6,4,1.4,5.8,0.2,7.7C528.5,303.3,525.1,304,522.2,304.2z"/>
<path class="st4" d="M471.9,321.1c0.8-1.2,2-2.8,3.8-4c0.9-0.6,1.6-0.9,2.1-1.1c12.8-5.5,24-7.7,24-7.7c6.3-1.2,15-3.3,26.2-6.9
	c4.2,4.8,6.4,9.4,7.5,12.5c1.9,4.8,4.2,11,1.5,17.2c-0.8,1.8-1.9,3.2-2.6,4.1c-1.4,0-3.7,0.1-6.6,0.2c-16.6,0.4-27.8,1.1-41.7-0.2
	c-9.7-0.9-13.3-2.1-14.8-4.9C469.6,327.2,470.8,323.5,471.9,321.1z"/>
<path d="M464.8,320.8c3.3-0.4,6.5-0.8,9.8-1.2c0.7-0.6,1.5-1.1,2.1-0.9c1.2,0.4,0.4,3.9-0.3,6c-0.8,2.3-2.7,6.3-4.5,6.3
	c-0.8,0-0.7-0.9-2.1-1.7c-1.8-1.2-4.2-1-7.4-0.7c-3.3,0.3-4.3,0.9-4.7,0.5C457.3,328.5,458.3,326.7,464.8,320.8z"/>
<ellipse transform="matrix(0.934 -0.3573 0.3573 0.934 -83.6768 184.8256)" cx="458.4" cy="318.9" rx="11.8" ry="8.1"/>
<path d="M520.1,297.8c0.5-1.3-2.6-3.7-5.2-5.1c-2.6-1.4-3.8-1.2-9.4-2.4c-6.4-1.3-9.6-2-12.2-3c-2.2-0.8-4.1-1.8-7-1.6
	c-1.9,0.1-4.5,0.8-4.6,1.8c-0.1,1,2.1,2.1,3.8,2.5c2.1,0.5,3.9-0.1,4.8-0.4c2.7,0.8,5.7,1.7,8.8,2.9c1,0.4,2.5,1.1,9.5,4.2
	c1.9,0.9,3.3,1.5,5.3,1.8C515.9,298.9,519.6,299.1,520.1,297.8z"/>
<path class="st2" d="M508.6,296.8c-4.9,9.6-8.5,14.2-12,16.4c-4.4,2.8-8.5,6.2-13.1,8.6c-0.2,0.1-0.9,0.4-1.6,1.1
	c-1.6,1.6-2.7,4.2-2,5.7c1.4,2.9,10.1,1.4,10.6,1.3c8.3-1.6,14.3-7.2,17.9-11.6c3.2-5.9,6.4-11.9,9.6-17.8c0.4-0.7,1.8-1.8,2.2-2.6
	C517,297.4,511.7,297.2,508.6,296.8z"/>
<path d="M449.4,309.5c1.8,1.2,4.6,3.4,6.8,6.8c0.6,1,6.5,10.6,2,14.8c-3.2,2.9-10.3,2.1-14.4-1.2c-3.8-3.1-5.4-8.7-3.3-11.4
	c1.1-1.4,4.1-3.2,4.4-3.4c1.4-0.8,2.3-1.1,3.1-2.1C449.1,311.9,449.3,310.5,449.4,309.5z"/>
<path d="M577.8,313.7c-10.2-14.3-15.4-22.9-18.2-28.3c-0.2-0.4-2-3.9-5.3-7.9c-3.8-4.5-7.1-8.4-11.5-8.4c-4,0-7.3,3.1-8.8,6.2
	c-2.5,5.1-0.1,10.1,0.2,10.7c7.9,6.5,13.8,13,18.3,18.7c7.7,9.9,11.1,17.5,16.3,17.5C572.5,322.2,575.5,318.3,577.8,313.7z"/>
<path d="M514.7,289.6c0.5-1.3-2.6-3.7-5.2-5.1c-2.6-1.4-3.8-1.2-9.4-2.4c-6.4-1.3-9.6-2-12.2-3c-2.2-0.8-4.1-1.8-7-1.6
	c-1.9,0.1-4.5,0.8-4.6,1.8c-0.1,1,2.1,2.1,3.8,2.5c2.1,0.5,3.9-0.1,4.8-0.4c2.7,0.8,5.7,1.7,8.8,2.9c1,0.4,2.5,1.1,9.5,4.2
	c1.9,0.9,3.3,1.5,5.3,1.8C510.4,290.7,514.2,290.9,514.7,289.6z"/>
<ellipse transform="matrix(0.9714 -0.2375 0.2375 0.9714 -64.1505 117.3008)" cx="454.7" cy="324.9" rx="12.4" ry="7.5"/>
<path d="M589.1,310.5c-11-13.6-16.6-22-19.8-27.3c-0.2-0.3-2.2-3.8-5.8-7.5c-4.1-4.3-7.5-7.9-11.8-7.5c-3.9,0.4-6.8,3.8-8.1,7.1
	c-2.1,5.4,0.7,10.4,1,10.9c8.2,6,14.4,12.1,19.2,17.5c8.3,9.4,12.1,16.9,17.1,16.4C584.6,319.6,587.2,315.4,589.1,310.5z"/>
<path class="st2" d="M559.2,311.4c1.5,7.5,3,14.9,4.5,22.4c11.3-1.5,22.5-3.1,33.8-4.6c0.5-0.4,1.8-1.8,1.9-3.8
	c0.1-3.4-3.8-5.6-4.5-6c-2.5-1.4-4.9-1.2-6.1-1.1c-2.8,0.1-5.6,0.2-8.5,0.4c-0.9,0-2.3-0.2-3.7-1c-2.6-1.5-4.1-4.7-4-8.1
	C568.1,310.2,563.7,310.8,559.2,311.4z"/>
<path class="st2" d="M576.5,317.1c2.6,7.1,5.2,14.2,7.8,21.3c10.7-4,21.4-8,32.1-12c0.4-0.6,1.5-2.2,1.2-4.2
	c-0.5-3.4-4.6-4.7-5.3-4.9c-2.6-0.8-5-0.1-6.1,0.3c-2.7,0.7-5.4,1.5-8.2,2.2c-0.9,0.2-2.3,0.3-3.7-0.2c-2.7-1-4.7-3.8-5.2-7.2
	C584.9,313.9,580.7,315.5,576.5,317.1z"/>
<path class="st4" d="M572.8,305.7c-0.8,1.1-3.5,4.2-8.4,4.8c-3.1,0.4-5.7-0.4-7.2-1c0.1,0.8,0.3,1.8,1.1,2.7c2.7,3.3,9.1,1.2,10,0.9
	c0.9-0.3,6.5-2.1,5.9-5.2C574,307.1,573.4,306.3,572.8,305.7z"/>
<path class="st4" d="M588.9,309.8c-0.8,1.1-3.5,4.2-8.4,4.8c-3.1,0.4-5.7-0.4-7.2-1c0.1,0.8,0.3,1.8,1.1,2.7c2.7,3.3,9.1,1.2,10,0.9
	c0.9-0.3,6.5-2.1,5.9-5.2C590.1,311.1,589.5,310.3,588.9,309.8z"/>
</svg>
