<?xml version="1.0" encoding="utf-8"?>
<!-- Generator: Adobe Illustrator 22.1.0, SVG Export Plug-In . SVG Version: 6.00 Build 0)  -->
<svg version="1.1" id="Warstwa_1" xmlns="http://www.w3.org/2000/svg" xmlns:xlink="http://www.w3.org/1999/xlink" x="0px" y="0px"
	 viewBox="0 0 841.9 595.3" style="enable-background:new 0 0 841.9 595.3;" xml:space="preserve">
<style type="text/css">
	.st0{fill:#FFFFFF;}
</style>
<path class="st0" d="M620.8,347.6H222.3c-1.8,0-3.3-1.5-3.3-3.3V250c0-1.8,1.5-3.3,3.3-3.3h398.5c1.8,0,3.3,1.5,3.3,3.3v94.3
	C624.1,346.2,622.6,347.6,620.8,347.6z"/>
<g>
	<g>
		<path d="M356.6,298.4v-1.8c0-2.1,0-3.2-0.1-4.7l-3.5-0.3v-1.3l6-2.2l0.7,0.4l0.5,4.7v5.3c0,2.3,0,6.2,0.1,7.9h-3.8
			C356.5,304.6,356.6,300.7,356.6,298.4z M353.3,305l4.9-0.7h0.9l4.9,0.7v1.3h-10.6V305z M358.3,293.4h2.5l-1.1,0.3
			c1.4-3.5,4.1-5.6,6.7-5.6c1.3,0,2.6,0.5,3.1,1.3c0,1.8-0.8,2.7-2.6,2.7c-1,0-1.9-0.3-2.7-0.9l-1.2-0.9l2.2-0.4
			c-2.7,1.2-4.3,3.1-5.3,6h-1.7V293.4z"/>
		<path d="M390.2,295.2c0,0.9-0.1,1.6-0.3,2.1h-16.3v-1.6h10.5c2.1,0,2.6-0.9,2.6-1.9c0-2.1-2.1-4.1-4.9-4.1c-2.8,0-6.1,2-6.1,7.4
			c0,4.8,2.8,7.3,7.2,7.3c2.8,0,4.6-1.1,6.2-2.7l1,0.7c-1.6,2.7-4.4,4.3-8.4,4.3c-5.9,0-9.8-3.5-9.8-9.2c0-5.7,4.6-9.5,10.1-9.5
			C386.6,288,390.2,290.7,390.2,295.2z"/>
		<path d="M402.5,304.9c1,0,1.9-0.3,3-1l1,1c-1.1,1.2-2.9,1.9-5.1,1.9c-3,0-4.9-1.3-4.9-4.2c0-0.9,0-1.7,0-3.1v-8.9h-3.7v-1.6
			l5.5-0.6l-1.8,1.2l1.3-6.1h2.6L400,290v12.1C400,304.1,401,304.9,402.5,304.9z M406.1,288.5v1.9h-7.9v-1.9H406.1z"/>
		<path d="M414.3,299.6c0,3.3,1.1,4.5,3.6,4.5c2.3,0,4.5-0.9,6.8-2.8h0.9v1.9h-2.3l1.5-0.6c-2.5,2.9-5.5,4.1-8.4,4.1
			c-3.5,0-5.7-1.8-5.7-6.7l0.1-9.9l0.9,0.7l-4.1-0.7v-1.3l6.4-0.5l0.4,0.4l-0.2,5.2V299.6z M424.9,306.6l-0.6-4.4l0.1-12.1l0.9,0.7
			l-4.1-0.7v-1.3l6.3-0.5l0.4,0.4l-0.1,5.2v11.2l-1.1-0.9l4.1,0.7v1.3L424.9,306.6z"/>
		<path d="M437.6,298.4v-1.8c0-2.1,0-3.2-0.1-4.7l-3.5-0.3v-1.3l6-2.2l0.7,0.4l0.5,4.7v5.3c0,2.3,0,6.2,0.1,7.9h-3.8
			C437.5,304.6,437.6,300.7,437.6,298.4z M434.3,305l4.9-0.7h0.9l4.9,0.7v1.3h-10.6V305z M439.4,293.4h2.5l-1.1,0.3
			c1.4-3.5,4.1-5.6,6.7-5.6c1.3,0,2.6,0.5,3.1,1.3c0,1.8-0.8,2.7-2.6,2.7c-1,0-1.9-0.3-2.7-0.9l-1.2-0.9l2.2-0.4
			c-2.7,1.2-4.3,3.1-5.3,6h-1.7V293.4z"/>
		<path d="M456,306.3c0.1-1.7,0.1-5.5,0.1-7.9v-1.8c0-2.1,0-3.2-0.1-4.7l-3.5-0.3v-1.3l6-2.2l0.7,0.4l0.5,4.3v5.7
			c0,2.3,0,6.2,0.1,7.9H456z M462.9,305v1.3h-10.2V305l4.9-0.7h0.9L462.9,305z M473.1,295v3.4c0,2.4,0,6.2,0.1,7.9h-3.8
			c0.1-1.7,0.1-5.5,0.1-7.9v-3.1c0-3.5-1.1-4.6-3.7-4.6c-2.2,0-4,0.7-6.5,2.6h-0.9v-1.7h2.3l-1.9,0.7c2.1-2.4,5.6-4.2,8.7-4.2
			C471.3,288,473.1,290,473.1,295z M471.9,304.2l4.4,0.7v1.3h-10.2V305l4.9-0.7H471.9z"/>
	</g>
</g>
</svg>
