<svg width="48" height="45" viewBox="0 0 48 45" fill="none" xmlns="http://www.w3.org/2000/svg">
<g clip-path="url(#clip0)">
<path d="M32.6064 10.7002C33.5724 10.7128 34.5259 10.91 35.41 11.2799C36.2941 11.6499 37.0906 12.185 37.7522 12.8535C37.7522 12.8535 40.5604 12.33 42.1115 11.2935C42.1115 11.2935 41.7219 13.3456 39.1379 14.9161H39.16C39.3585 14.9161 40.8067 14.8812 43.0855 13.8691C43.0855 13.8691 42.6481 15.0522 39.6672 17.3032C39.8473 22.6289 37.0723 32.4741 26.8026 35.9781C24.5472 36.7615 22.1655 37.1665 19.7639 37.1751C15.9162 37.1918 12.1472 36.14 8.92086 34.1493C9.4722 34.2017 9.96841 34.2017 10.4646 34.2017C16.5367 34.2017 19.4772 31.2422 19.3154 31.2422H19.0912C13.9454 31.2422 12.692 26.5656 12.692 26.5656C13.1042 26.8022 13.5823 26.9142 14.063 26.8867C14.6844 26.8744 15.3017 26.7888 15.9008 26.6319C10.0934 25.3267 10.3102 20.0359 10.3102 20.0359C11.095 20.5332 12.0133 20.8069 12.9567 20.8246C13.1118 20.8263 13.2668 20.8146 13.4198 20.7897C8.11591 16.8042 11.31 12.0473 11.31 12.0473C17.2865 18.6329 24.634 18.8667 25.6448 18.8667H25.7661C25.2221 15.7746 26.5637 12.8047 30.1768 11.1888C30.9306 10.8602 31.7513 10.6933 32.5807 10.7002H32.6064ZM45.493 6.28192L40.7405 9.45081C40.0146 9.86393 39.2298 10.1754 38.4102 10.3757C36.7467 9.14233 34.7021 8.46292 32.5917 8.44221C31.4119 8.43184 30.2444 8.67024 29.1734 9.14021C25.7992 10.6444 23.7482 13.2409 23.3402 16.3575C19.3457 15.5752 15.7464 13.535 13.1257 10.5676L11.0307 8.26073L9.30313 10.8189C8.18942 12.5609 7.74767 14.6161 8.05342 16.6332L7.91743 19.9591C7.8869 22.0704 8.62574 24.1269 10.0088 25.7804L10.3764 27.1415C10.9036 28.8991 11.974 30.4662 13.4492 31.64C12.4677 31.8439 11.4656 31.9446 10.4609 31.9402C10.0235 31.9402 9.57145 31.9227 9.11567 31.8878L0.687531 31.2212L7.50576 35.9781C11.1443 38.2511 15.4084 39.4542 19.7639 39.4366C22.4444 39.4298 25.1034 38.981 27.6223 38.1104C32.6754 36.3982 36.8452 32.9123 39.2739 28.3699C40.954 25.268 41.9034 21.8562 42.0564 18.3712C44.4933 16.3784 45.1622 15.1081 45.3423 14.6229L47.2242 9.53806L44.6513 10.6758L45.493 6.28192Z" fill="black"/>
</g>
<defs>
<clipPath id="clip0">
<rect width="47.0476" height="44.6716" fill="white" transform="translate(0.650787)"/>
</clipPath>
</defs>
</svg>
