<svg width="48" height="46" viewBox="0 0 48 46" fill="none" xmlns="http://www.w3.org/2000/svg">
<path d="M23.5238 12.0137C23.6084 12.0137 31.9483 12.0137 37.4543 12.3906L37.6969 12.4115C38.432 12.4743 39.226 12.5476 40.0052 13.3119C40.3727 13.6609 40.7918 14.8964 40.9351 15.7793C41.1675 17.7156 41.2902 19.6623 41.3027 21.6111V24.4868C41.2897 26.4367 41.167 28.3846 40.9351 30.322C40.7991 31.1841 40.3691 32.437 40.0089 32.765C39.2333 33.5258 38.421 33.5991 37.7043 33.6654L37.4543 33.6899C32.0438 34.0389 23.8951 34.0737 23.5275 34.0737C23.1048 34.0737 13.2358 33.9795 10.0858 33.7248C9.89839 33.6968 9.71828 33.6724 9.5051 33.6515C8.66706 33.5572 7.71508 33.449 7.03142 32.7755C6.66386 32.4265 6.24485 31.1945 6.10517 30.3151C5.87282 28.3788 5.75012 26.4321 5.73761 24.4833V21.6355C5.75068 19.6868 5.87337 17.7401 6.10517 15.8038C6.24852 14.9138 6.67489 13.6784 7.0351 13.3364C7.81432 12.5721 8.62663 12.5023 9.34337 12.4359L9.58596 12.415C15.0994 12.0416 23.4319 12.0381 23.5128 12.0381H23.5238V12.0137ZM23.5238 9.76961C23.5238 9.76961 15.0369 9.76961 9.38013 10.1535C8.58987 10.2408 6.8697 10.2477 5.33697 11.7554C4.1277 12.9071 3.73074 15.5211 3.73074 15.5211C3.47371 17.5505 3.33261 19.5916 3.30804 21.6355V24.5112C3.32554 26.563 3.46051 28.6123 3.71236 30.6501C3.71236 30.6501 4.10565 33.2641 5.3186 34.4123C6.85867 35.9199 8.87657 35.8746 9.77709 36.0351C13.0116 36.3248 23.5238 36.4155 23.5238 36.4155C23.5238 36.4155 32.0181 36.4155 37.6785 36.0212C38.4688 35.9339 40.1926 35.9234 41.7217 34.4158C42.931 33.2676 43.3279 30.6536 43.3279 30.6536C43.5822 28.6159 43.7196 26.5666 43.7396 24.5147V21.639C43.722 19.5873 43.5871 17.538 43.3353 15.5001C43.3353 15.5001 42.942 12.8861 41.729 11.7345C40.1926 10.2268 38.4688 10.2163 37.6859 10.1326C32.0181 9.74518 23.5238 9.74518 23.5238 9.74518V9.76961Z" fill="black"/>
<path d="M19.896 17.3604V28.8005L30.184 23.0804L19.896 17.3604Z" fill="black"/>
</svg>
